<?xml version="1.0" encoding="utf-8" standalone="no"?>
<!DOCTYPE svg PUBLIC "-//W3C//DTD SVG 1.1//EN"
  "http://www.w3.org/Graphics/SVG/1.1/DTD/svg11.dtd">
<svg xmlns:xlink="http://www.w3.org/1999/xlink" width="568.957188pt" height="390.509687pt" viewBox="0 0 568.957188 390.509687" xmlns="http://www.w3.org/2000/svg" version="1.1">
 <metadata>
  <rdf:RDF xmlns:dc="http://purl.org/dc/elements/1.1/" xmlns:cc="http://creativecommons.org/ns#" xmlns:rdf="http://www.w3.org/1999/02/22-rdf-syntax-ns#">
   <cc:Work>
    <dc:type rdf:resource="http://purl.org/dc/dcmitype/StillImage"/>
    <dc:date>2023-11-10T12:14:48.019443</dc:date>
    <dc:format>image/svg+xml</dc:format>
    <dc:creator>
     <cc:Agent>
      <dc:title>Matplotlib v3.7.3, https://matplotlib.org/</dc:title>
     </cc:Agent>
    </dc:creator>
   </cc:Work>
  </rdf:RDF>
 </metadata>
 <defs>
  <style type="text/css">*{stroke-linejoin: round; stroke-linecap: butt}</style>
 </defs>
 <g id="figure_1">
  <g id="patch_1">
   <path d="M 0 390.509687 
L 568.957188 390.509687 
L 568.957188 0 
L 0 0 
z
" style="fill: #ffffff"/>
  </g>
  <g id="axes_1">
   <g id="patch_2">
    <path d="M 60.637188 348.531875 
L 561.757187 348.531875 
L 561.757187 27.771875 
L 60.637188 27.771875 
z
" style="fill: #eaeaf2"/>
   </g>
   <g id="matplotlib.axis_1">
    <g id="xtick_1">
     <g id="line2d_1">
      <path d="M 121.379006 348.531875 
L 121.379006 27.771875 
" clip-path="url(#p380210448c)" style="fill: none; stroke: #ffffff; stroke-linecap: round"/>
     </g>
     <g id="line2d_2"/>
     <g id="text_1">
      <!-- 1995 -->
      <g style="fill: #262626" transform="translate(110.257131 362.689687) scale(0.1 -0.1)">
       <defs>
        <path id="ArialMT-31" d="M 2384 0 
L 1822 0 
L 1822 3584 
Q 1619 3391 1289 3197 
Q 959 3003 697 2906 
L 697 3450 
Q 1169 3672 1522 3987 
Q 1875 4303 2022 4600 
L 2384 4600 
L 2384 0 
z
" transform="scale(0.015625)"/>
        <path id="ArialMT-39" d="M 350 1059 
L 891 1109 
Q 959 728 1153 556 
Q 1347 384 1650 384 
Q 1909 384 2104 503 
Q 2300 622 2425 820 
Q 2550 1019 2634 1356 
Q 2719 1694 2719 2044 
Q 2719 2081 2716 2156 
Q 2547 1888 2255 1720 
Q 1963 1553 1622 1553 
Q 1053 1553 659 1965 
Q 266 2378 266 3053 
Q 266 3750 677 4175 
Q 1088 4600 1706 4600 
Q 2153 4600 2523 4359 
Q 2894 4119 3086 3673 
Q 3278 3228 3278 2384 
Q 3278 1506 3087 986 
Q 2897 466 2520 194 
Q 2144 -78 1638 -78 
Q 1100 -78 759 220 
Q 419 519 350 1059 
z
M 2653 3081 
Q 2653 3566 2395 3850 
Q 2138 4134 1775 4134 
Q 1400 4134 1122 3828 
Q 844 3522 844 3034 
Q 844 2597 1108 2323 
Q 1372 2050 1759 2050 
Q 2150 2050 2401 2323 
Q 2653 2597 2653 3081 
z
" transform="scale(0.015625)"/>
        <path id="ArialMT-35" d="M 266 1200 
L 856 1250 
Q 922 819 1161 601 
Q 1400 384 1738 384 
Q 2144 384 2425 690 
Q 2706 997 2706 1503 
Q 2706 1984 2436 2262 
Q 2166 2541 1728 2541 
Q 1456 2541 1237 2417 
Q 1019 2294 894 2097 
L 366 2166 
L 809 4519 
L 3088 4519 
L 3088 3981 
L 1259 3981 
L 1013 2750 
Q 1425 3038 1878 3038 
Q 2478 3038 2890 2622 
Q 3303 2206 3303 1553 
Q 3303 931 2941 478 
Q 2500 -78 1738 -78 
Q 1113 -78 717 272 
Q 322 622 266 1200 
z
" transform="scale(0.015625)"/>
       </defs>
       <use xlink:href="#ArialMT-31"/>
       <use xlink:href="#ArialMT-39" x="55.615234"/>
       <use xlink:href="#ArialMT-39" x="111.230469"/>
       <use xlink:href="#ArialMT-35" x="166.845703"/>
      </g>
     </g>
    </g>
    <g id="xtick_2">
     <g id="line2d_3">
      <path d="M 200.469915 348.531875 
L 200.469915 27.771875 
" clip-path="url(#p380210448c)" style="fill: none; stroke: #ffffff; stroke-linecap: round"/>
     </g>
     <g id="line2d_4"/>
     <g id="text_2">
      <!-- 2000 -->
      <g style="fill: #262626" transform="translate(189.34804 362.689687) scale(0.1 -0.1)">
       <defs>
        <path id="ArialMT-32" d="M 3222 541 
L 3222 0 
L 194 0 
Q 188 203 259 391 
Q 375 700 629 1000 
Q 884 1300 1366 1694 
Q 2113 2306 2375 2664 
Q 2638 3022 2638 3341 
Q 2638 3675 2398 3904 
Q 2159 4134 1775 4134 
Q 1369 4134 1125 3890 
Q 881 3647 878 3216 
L 300 3275 
Q 359 3922 746 4261 
Q 1134 4600 1788 4600 
Q 2447 4600 2831 4234 
Q 3216 3869 3216 3328 
Q 3216 3053 3103 2787 
Q 2991 2522 2730 2228 
Q 2469 1934 1863 1422 
Q 1356 997 1212 845 
Q 1069 694 975 541 
L 3222 541 
z
" transform="scale(0.015625)"/>
        <path id="ArialMT-30" d="M 266 2259 
Q 266 3072 433 3567 
Q 600 4063 929 4331 
Q 1259 4600 1759 4600 
Q 2128 4600 2406 4451 
Q 2684 4303 2865 4023 
Q 3047 3744 3150 3342 
Q 3253 2941 3253 2259 
Q 3253 1453 3087 958 
Q 2922 463 2592 192 
Q 2263 -78 1759 -78 
Q 1097 -78 719 397 
Q 266 969 266 2259 
z
M 844 2259 
Q 844 1131 1108 757 
Q 1372 384 1759 384 
Q 2147 384 2411 759 
Q 2675 1134 2675 2259 
Q 2675 3391 2411 3762 
Q 2147 4134 1753 4134 
Q 1366 4134 1134 3806 
Q 844 3388 844 2259 
z
" transform="scale(0.015625)"/>
       </defs>
       <use xlink:href="#ArialMT-32"/>
       <use xlink:href="#ArialMT-30" x="55.615234"/>
       <use xlink:href="#ArialMT-30" x="111.230469"/>
       <use xlink:href="#ArialMT-30" x="166.845703"/>
      </g>
     </g>
    </g>
    <g id="xtick_3">
     <g id="line2d_5">
      <path d="M 279.560824 348.531875 
L 279.560824 27.771875 
" clip-path="url(#p380210448c)" style="fill: none; stroke: #ffffff; stroke-linecap: round"/>
     </g>
     <g id="line2d_6"/>
     <g id="text_3">
      <!-- 2005 -->
      <g style="fill: #262626" transform="translate(268.438949 362.689687) scale(0.1 -0.1)">
       <use xlink:href="#ArialMT-32"/>
       <use xlink:href="#ArialMT-30" x="55.615234"/>
       <use xlink:href="#ArialMT-30" x="111.230469"/>
       <use xlink:href="#ArialMT-35" x="166.845703"/>
      </g>
     </g>
    </g>
    <g id="xtick_4">
     <g id="line2d_7">
      <path d="M 358.651733 348.531875 
L 358.651733 27.771875 
" clip-path="url(#p380210448c)" style="fill: none; stroke: #ffffff; stroke-linecap: round"/>
     </g>
     <g id="line2d_8"/>
     <g id="text_4">
      <!-- 2010 -->
      <g style="fill: #262626" transform="translate(347.529858 362.689687) scale(0.1 -0.1)">
       <use xlink:href="#ArialMT-32"/>
       <use xlink:href="#ArialMT-30" x="55.615234"/>
       <use xlink:href="#ArialMT-31" x="111.230469"/>
       <use xlink:href="#ArialMT-30" x="166.845703"/>
      </g>
     </g>
    </g>
    <g id="xtick_5">
     <g id="line2d_9">
      <path d="M 437.742642 348.531875 
L 437.742642 27.771875 
" clip-path="url(#p380210448c)" style="fill: none; stroke: #ffffff; stroke-linecap: round"/>
     </g>
     <g id="line2d_10"/>
     <g id="text_5">
      <!-- 2015 -->
      <g style="fill: #262626" transform="translate(426.620767 362.689687) scale(0.1 -0.1)">
       <use xlink:href="#ArialMT-32"/>
       <use xlink:href="#ArialMT-30" x="55.615234"/>
       <use xlink:href="#ArialMT-31" x="111.230469"/>
       <use xlink:href="#ArialMT-35" x="166.845703"/>
      </g>
     </g>
    </g>
    <g id="xtick_6">
     <g id="line2d_11">
      <path d="M 516.833551 348.531875 
L 516.833551 27.771875 
" clip-path="url(#p380210448c)" style="fill: none; stroke: #ffffff; stroke-linecap: round"/>
     </g>
     <g id="line2d_12"/>
     <g id="text_6">
      <!-- 2020 -->
      <g style="fill: #262626" transform="translate(505.711676 362.689687) scale(0.1 -0.1)">
       <use xlink:href="#ArialMT-32"/>
       <use xlink:href="#ArialMT-30" x="55.615234"/>
       <use xlink:href="#ArialMT-32" x="111.230469"/>
       <use xlink:href="#ArialMT-30" x="166.845703"/>
      </g>
     </g>
    </g>
    <g id="text_7">
     <!-- Year -->
     <g style="fill: #262626" transform="translate(295.029687 380.129687) scale(0.16 -0.16)">
      <defs>
       <path id="ArialMT-59" d="M 1784 0 
L 1784 1941 
L 19 4581 
L 756 4581 
L 1659 3200 
Q 1909 2813 2125 2425 
Q 2331 2784 2625 3234 
L 3513 4581 
L 4219 4581 
L 2391 1941 
L 2391 0 
L 1784 0 
z
" transform="scale(0.015625)"/>
       <path id="ArialMT-65" d="M 2694 1069 
L 3275 997 
Q 3138 488 2766 206 
Q 2394 -75 1816 -75 
Q 1088 -75 661 373 
Q 234 822 234 1631 
Q 234 2469 665 2931 
Q 1097 3394 1784 3394 
Q 2450 3394 2872 2941 
Q 3294 2488 3294 1666 
Q 3294 1616 3291 1516 
L 816 1516 
Q 847 969 1125 678 
Q 1403 388 1819 388 
Q 2128 388 2347 550 
Q 2566 713 2694 1069 
z
M 847 1978 
L 2700 1978 
Q 2663 2397 2488 2606 
Q 2219 2931 1791 2931 
Q 1403 2931 1139 2672 
Q 875 2413 847 1978 
z
" transform="scale(0.015625)"/>
       <path id="ArialMT-61" d="M 2588 409 
Q 2275 144 1986 34 
Q 1697 -75 1366 -75 
Q 819 -75 525 192 
Q 231 459 231 875 
Q 231 1119 342 1320 
Q 453 1522 633 1644 
Q 813 1766 1038 1828 
Q 1203 1872 1538 1913 
Q 2219 1994 2541 2106 
Q 2544 2222 2544 2253 
Q 2544 2597 2384 2738 
Q 2169 2928 1744 2928 
Q 1347 2928 1158 2789 
Q 969 2650 878 2297 
L 328 2372 
Q 403 2725 575 2942 
Q 747 3159 1072 3276 
Q 1397 3394 1825 3394 
Q 2250 3394 2515 3294 
Q 2781 3194 2906 3042 
Q 3031 2891 3081 2659 
Q 3109 2516 3109 2141 
L 3109 1391 
Q 3109 606 3145 398 
Q 3181 191 3288 0 
L 2700 0 
Q 2613 175 2588 409 
z
M 2541 1666 
Q 2234 1541 1622 1453 
Q 1275 1403 1131 1340 
Q 988 1278 909 1158 
Q 831 1038 831 891 
Q 831 666 1001 516 
Q 1172 366 1500 366 
Q 1825 366 2078 508 
Q 2331 650 2450 897 
Q 2541 1088 2541 1459 
L 2541 1666 
z
" transform="scale(0.015625)"/>
       <path id="ArialMT-72" d="M 416 0 
L 416 3319 
L 922 3319 
L 922 2816 
Q 1116 3169 1280 3281 
Q 1444 3394 1641 3394 
Q 1925 3394 2219 3213 
L 2025 2691 
Q 1819 2813 1613 2813 
Q 1428 2813 1281 2702 
Q 1134 2591 1072 2394 
Q 978 2094 978 1738 
L 978 0 
L 416 0 
z
" transform="scale(0.015625)"/>
      </defs>
      <use xlink:href="#ArialMT-59"/>
      <use xlink:href="#ArialMT-65" x="57.574219"/>
      <use xlink:href="#ArialMT-61" x="113.189453"/>
      <use xlink:href="#ArialMT-72" x="168.804688"/>
     </g>
    </g>
   </g>
   <g id="matplotlib.axis_2">
    <g id="ytick_1">
     <g id="line2d_13">
      <path d="M 60.637188 348.531875 
L 561.757187 348.531875 
" clip-path="url(#p380210448c)" style="fill: none; stroke: #ffffff; stroke-linecap: round"/>
     </g>
     <g id="line2d_14"/>
     <g id="text_8">
      <!-- 0 -->
      <g style="fill: #262626" transform="translate(48.07625 352.110781) scale(0.1 -0.1)">
       <use xlink:href="#ArialMT-30"/>
      </g>
     </g>
    </g>
    <g id="ytick_2">
     <g id="line2d_15">
      <path d="M 60.637188 287.038716 
L 561.757187 287.038716 
" clip-path="url(#p380210448c)" style="fill: none; stroke: #ffffff; stroke-linecap: round"/>
     </g>
     <g id="line2d_16"/>
     <g id="text_9">
      <!-- 5000 -->
      <g style="fill: #262626" transform="translate(31.393438 290.617622) scale(0.1 -0.1)">
       <use xlink:href="#ArialMT-35"/>
       <use xlink:href="#ArialMT-30" x="55.615234"/>
       <use xlink:href="#ArialMT-30" x="111.230469"/>
       <use xlink:href="#ArialMT-30" x="166.845703"/>
      </g>
     </g>
    </g>
    <g id="ytick_3">
     <g id="line2d_17">
      <path d="M 60.637188 225.545557 
L 561.757187 225.545557 
" clip-path="url(#p380210448c)" style="fill: none; stroke: #ffffff; stroke-linecap: round"/>
     </g>
     <g id="line2d_18"/>
     <g id="text_10">
      <!-- 10000 -->
      <g style="fill: #262626" transform="translate(25.8325 229.124464) scale(0.1 -0.1)">
       <use xlink:href="#ArialMT-31"/>
       <use xlink:href="#ArialMT-30" x="55.615234"/>
       <use xlink:href="#ArialMT-30" x="111.230469"/>
       <use xlink:href="#ArialMT-30" x="166.845703"/>
       <use xlink:href="#ArialMT-30" x="222.460938"/>
      </g>
     </g>
    </g>
    <g id="ytick_4">
     <g id="line2d_19">
      <path d="M 60.637188 164.052399 
L 561.757187 164.052399 
" clip-path="url(#p380210448c)" style="fill: none; stroke: #ffffff; stroke-linecap: round"/>
     </g>
     <g id="line2d_20"/>
     <g id="text_11">
      <!-- 15000 -->
      <g style="fill: #262626" transform="translate(25.8325 167.631305) scale(0.1 -0.1)">
       <use xlink:href="#ArialMT-31"/>
       <use xlink:href="#ArialMT-35" x="55.615234"/>
       <use xlink:href="#ArialMT-30" x="111.230469"/>
       <use xlink:href="#ArialMT-30" x="166.845703"/>
       <use xlink:href="#ArialMT-30" x="222.460938"/>
      </g>
     </g>
    </g>
    <g id="ytick_5">
     <g id="line2d_21">
      <path d="M 60.637188 102.55924 
L 561.757187 102.55924 
" clip-path="url(#p380210448c)" style="fill: none; stroke: #ffffff; stroke-linecap: round"/>
     </g>
     <g id="line2d_22"/>
     <g id="text_12">
      <!-- 20000 -->
      <g style="fill: #262626" transform="translate(25.8325 106.138146) scale(0.1 -0.1)">
       <use xlink:href="#ArialMT-32"/>
       <use xlink:href="#ArialMT-30" x="55.615234"/>
       <use xlink:href="#ArialMT-30" x="111.230469"/>
       <use xlink:href="#ArialMT-30" x="166.845703"/>
       <use xlink:href="#ArialMT-30" x="222.460938"/>
      </g>
     </g>
    </g>
    <g id="ytick_6">
     <g id="line2d_23">
      <path d="M 60.637188 41.066081 
L 561.757187 41.066081 
" clip-path="url(#p380210448c)" style="fill: none; stroke: #ffffff; stroke-linecap: round"/>
     </g>
     <g id="line2d_24"/>
     <g id="text_13">
      <!-- 25000 -->
      <g style="fill: #262626" transform="translate(25.8325 44.644987) scale(0.1 -0.1)">
       <use xlink:href="#ArialMT-32"/>
       <use xlink:href="#ArialMT-35" x="55.615234"/>
       <use xlink:href="#ArialMT-30" x="111.230469"/>
       <use xlink:href="#ArialMT-30" x="166.845703"/>
       <use xlink:href="#ArialMT-30" x="222.460938"/>
      </g>
     </g>
    </g>
    <g id="text_14">
     <!-- Cases -->
     <g style="fill: #262626" transform="translate(18.6525 210.826875) rotate(-90) scale(0.16 -0.16)">
      <defs>
       <path id="ArialMT-43" d="M 3763 1606 
L 4369 1453 
Q 4178 706 3683 314 
Q 3188 -78 2472 -78 
Q 1731 -78 1267 223 
Q 803 525 561 1097 
Q 319 1669 319 2325 
Q 319 3041 592 3573 
Q 866 4106 1370 4382 
Q 1875 4659 2481 4659 
Q 3169 4659 3637 4309 
Q 4106 3959 4291 3325 
L 3694 3184 
Q 3534 3684 3231 3912 
Q 2928 4141 2469 4141 
Q 1941 4141 1586 3887 
Q 1231 3634 1087 3207 
Q 944 2781 944 2328 
Q 944 1744 1114 1308 
Q 1284 872 1643 656 
Q 2003 441 2422 441 
Q 2931 441 3284 734 
Q 3638 1028 3763 1606 
z
" transform="scale(0.015625)"/>
       <path id="ArialMT-73" d="M 197 991 
L 753 1078 
Q 800 744 1014 566 
Q 1228 388 1613 388 
Q 2000 388 2187 545 
Q 2375 703 2375 916 
Q 2375 1106 2209 1216 
Q 2094 1291 1634 1406 
Q 1016 1563 777 1677 
Q 538 1791 414 1992 
Q 291 2194 291 2438 
Q 291 2659 392 2848 
Q 494 3038 669 3163 
Q 800 3259 1026 3326 
Q 1253 3394 1513 3394 
Q 1903 3394 2198 3281 
Q 2494 3169 2634 2976 
Q 2775 2784 2828 2463 
L 2278 2388 
Q 2241 2644 2061 2787 
Q 1881 2931 1553 2931 
Q 1166 2931 1000 2803 
Q 834 2675 834 2503 
Q 834 2394 903 2306 
Q 972 2216 1119 2156 
Q 1203 2125 1616 2013 
Q 2213 1853 2448 1751 
Q 2684 1650 2818 1456 
Q 2953 1263 2953 975 
Q 2953 694 2789 445 
Q 2625 197 2315 61 
Q 2006 -75 1616 -75 
Q 969 -75 630 194 
Q 291 463 197 991 
z
" transform="scale(0.015625)"/>
      </defs>
      <use xlink:href="#ArialMT-43"/>
      <use xlink:href="#ArialMT-61" x="72.216797"/>
      <use xlink:href="#ArialMT-73" x="127.832031"/>
      <use xlink:href="#ArialMT-65" x="177.832031"/>
      <use xlink:href="#ArialMT-73" x="233.447266"/>
     </g>
    </g>
   </g>
   <g id="patch_3">
    <path d="M 83.415369 348.531875 
L 96.069915 348.531875 
L 96.069915 134.252814 
L 83.415369 134.252814 
z
" clip-path="url(#p380210448c)" style="fill: #4c72b0"/>
   </g>
   <g id="patch_4">
    <path d="M 99.233551 348.531875 
L 111.888097 348.531875 
L 111.888097 149.662999 
L 99.233551 149.662999 
z
" clip-path="url(#p380210448c)" style="fill: #4c72b0"/>
   </g>
   <g id="patch_5">
    <path d="M 115.051733 348.531875 
L 127.706278 348.531875 
L 127.706278 168.332322 
L 115.051733 168.332322 
z
" clip-path="url(#p380210448c)" style="fill: #4c72b0"/>
   </g>
   <g id="patch_6">
    <path d="M 130.869915 348.531875 
L 143.52446 348.531875 
L 143.52446 184.037675 
L 130.869915 184.037675 
z
" clip-path="url(#p380210448c)" style="fill: #4c72b0"/>
   </g>
   <g id="patch_7">
    <path d="M 146.688097 348.531875 
L 159.342642 348.531875 
L 159.342642 201.932184 
L 146.688097 201.932184 
z
" clip-path="url(#p380210448c)" style="fill: #4c72b0"/>
   </g>
   <g id="patch_8">
    <path d="M 162.506278 348.531875 
L 175.160824 348.531875 
L 175.160824 218.092587 
L 162.506278 218.092587 
z
" clip-path="url(#p380210448c)" style="fill: #4c72b0"/>
   </g>
   <g id="patch_9">
    <path d="M 178.32446 348.531875 
L 190.979006 348.531875 
L 190.979006 228.300451 
L 178.32446 228.300451 
z
" clip-path="url(#p380210448c)" style="fill: #4c72b0"/>
   </g>
   <g id="patch_10">
    <path d="M 194.142642 348.531875 
L 206.797188 348.531875 
L 206.797188 242.431579 
L 194.142642 242.431579 
z
" clip-path="url(#p380210448c)" style="fill: #4c72b0"/>
   </g>
   <g id="patch_11">
    <path d="M 209.960824 348.531875 
L 222.615369 348.531875 
L 222.615369 252.135199 
L 209.960824 252.135199 
z
" clip-path="url(#p380210448c)" style="fill: #4c72b0"/>
   </g>
   <g id="patch_12">
    <path d="M 225.779006 348.531875 
L 238.433551 348.531875 
L 238.433551 259.256107 
L 225.779006 259.256107 
z
" clip-path="url(#p380210448c)" style="fill: #4c72b0"/>
   </g>
   <g id="patch_13">
    <path d="M 241.597187 348.531875 
L 254.251733 348.531875 
L 254.251733 264.507623 
L 241.597187 264.507623 
z
" clip-path="url(#p380210448c)" style="fill: #4c72b0"/>
   </g>
   <g id="patch_14">
    <path d="M 257.415369 348.531875 
L 270.069915 348.531875 
L 270.069915 267.459294 
L 257.415369 267.459294 
z
" clip-path="url(#p380210448c)" style="fill: #4c72b0"/>
   </g>
   <g id="patch_15">
    <path d="M 273.233551 348.531875 
L 285.888097 348.531875 
L 285.888097 271.222676 
L 273.233551 271.222676 
z
" clip-path="url(#p380210448c)" style="fill: #4c72b0"/>
   </g>
   <g id="patch_16">
    <path d="M 289.051733 348.531875 
L 301.706278 348.531875 
L 301.706278 276.560282 
L 289.051733 276.560282 
z
" clip-path="url(#p380210448c)" style="fill: #4c72b0"/>
   </g>
   <g id="patch_17">
    <path d="M 304.869915 348.531875 
L 317.52446 348.531875 
L 317.52446 281.799499 
L 304.869915 281.799499 
z
" clip-path="url(#p380210448c)" style="fill: #4c72b0"/>
   </g>
   <g id="patch_18">
    <path d="M 320.688097 348.531875 
L 333.342642 348.531875 
L 333.342642 284.025551 
L 320.688097 284.025551 
z
" clip-path="url(#p380210448c)" style="fill: #4c72b0"/>
   </g>
   <g id="patch_19">
    <path d="M 336.506278 348.531875 
L 349.160824 348.531875 
L 349.160824 293.372512 
L 336.506278 293.372512 
z
" clip-path="url(#p380210448c)" style="fill: #4c72b0"/>
   </g>
   <g id="patch_20">
    <path d="M 352.32446 348.531875 
L 364.979006 348.531875 
L 364.979006 295.610863 
L 352.32446 295.610863 
z
" clip-path="url(#p380210448c)" style="fill: #4c72b0"/>
   </g>
   <g id="patch_21">
    <path d="M 368.142642 348.531875 
L 380.797188 348.531875 
L 380.797188 300.382732 
L 368.142642 300.382732 
z
" clip-path="url(#p380210448c)" style="fill: #4c72b0"/>
   </g>
   <g id="patch_22">
    <path d="M 383.960824 348.531875 
L 396.615369 348.531875 
L 396.615369 304.072321 
L 383.960824 304.072321 
z
" clip-path="url(#p380210448c)" style="fill: #4c72b0"/>
   </g>
   <g id="patch_23">
    <path d="M 399.779006 348.531875 
L 412.433551 348.531875 
L 412.433551 307.712716 
L 399.779006 307.712716 
z
" clip-path="url(#p380210448c)" style="fill: #4c72b0"/>
   </g>
   <g id="patch_24">
    <path d="M 415.597187 348.531875 
L 428.251733 348.531875 
L 428.251733 310.28313 
L 415.597187 310.28313 
z
" clip-path="url(#p380210448c)" style="fill: #4c72b0"/>
   </g>
   <g id="patch_25">
    <path d="M 431.415369 348.531875 
L 444.069915 348.531875 
L 444.069915 310.086352 
L 431.415369 310.086352 
z
" clip-path="url(#p380210448c)" style="fill: #4c72b0"/>
   </g>
   <g id="patch_26">
    <path d="M 447.233551 348.531875 
L 459.888097 348.531875 
L 459.888097 313.087218 
L 447.233551 313.087218 
z
" clip-path="url(#p380210448c)" style="fill: #4c72b0"/>
   </g>
   <g id="patch_27">
    <path d="M 463.051733 348.531875 
L 475.706278 348.531875 
L 475.706278 315.805216 
L 463.051733 315.805216 
z
" clip-path="url(#p380210448c)" style="fill: #4c72b0"/>
   </g>
   <g id="patch_28">
    <path d="M 478.869915 348.531875 
L 491.52446 348.531875 
L 491.52446 316.063487 
L 478.869915 316.063487 
z
" clip-path="url(#p380210448c)" style="fill: #4c72b0"/>
   </g>
   <g id="patch_29">
    <path d="M 494.688097 348.531875 
L 507.342642 348.531875 
L 507.342642 317.539323 
L 494.688097 317.539323 
z
" clip-path="url(#p380210448c)" style="fill: #4c72b0"/>
   </g>
   <g id="patch_30">
    <path d="M 510.506278 348.531875 
L 523.160824 348.531875 
L 523.160824 323.848521 
L 510.506278 323.848521 
z
" clip-path="url(#p380210448c)" style="fill: #4c72b0"/>
   </g>
   <g id="patch_31">
    <path d="M 526.32446 348.531875 
L 538.979006 348.531875 
L 538.979006 321.192017 
L 526.32446 321.192017 
z
" clip-path="url(#p380210448c)" style="fill: #4c72b0"/>
   </g>
   <g id="patch_32">
    <path d="M 83.415369 134.252814 
L 96.069915 134.252814 
L 96.069915 43.046161 
L 83.415369 43.046161 
z
" clip-path="url(#p380210448c)" style="fill: #55a868"/>
   </g>
   <g id="patch_33">
    <path d="M 99.233551 149.662999 
L 111.888097 149.662999 
L 111.888097 54.065735 
L 99.233551 54.065735 
z
" clip-path="url(#p380210448c)" style="fill: #55a868"/>
   </g>
   <g id="patch_34">
    <path d="M 115.051733 168.332322 
L 127.706278 168.332322 
L 127.706278 69.672698 
L 115.051733 69.672698 
z
" clip-path="url(#p380210448c)" style="fill: #55a868"/>
   </g>
   <g id="patch_35">
    <path d="M 130.869915 184.037675 
L 143.52446 184.037675 
L 143.52446 88.551098 
L 130.869915 88.551098 
z
" clip-path="url(#p380210448c)" style="fill: #55a868"/>
   </g>
   <g id="patch_36">
    <path d="M 146.688097 201.932184 
L 159.342642 201.932184 
L 159.342642 106.507101 
L 146.688097 106.507101 
z
" clip-path="url(#p380210448c)" style="fill: #55a868"/>
   </g>
   <g id="patch_37">
    <path d="M 162.506278 218.092587 
L 175.160824 218.092587 
L 175.160824 124.278623 
L 162.506278 124.278623 
z
" clip-path="url(#p380210448c)" style="fill: #55a868"/>
   </g>
   <g id="patch_38">
    <path d="M 178.32446 228.300451 
L 190.979006 228.300451 
L 190.979006 134.523384 
L 178.32446 134.523384 
z
" clip-path="url(#p380210448c)" style="fill: #55a868"/>
   </g>
   <g id="patch_39">
    <path d="M 194.142642 242.431579 
L 206.797188 242.431579 
L 206.797188 148.506928 
L 194.142642 148.506928 
z
" clip-path="url(#p380210448c)" style="fill: #55a868"/>
   </g>
   <g id="patch_40">
    <path d="M 209.960824 252.135199 
L 222.615369 252.135199 
L 222.615369 153.229603 
L 209.960824 153.229603 
z
" clip-path="url(#p380210448c)" style="fill: #55a868"/>
   </g>
   <g id="patch_41">
    <path d="M 225.779006 259.256107 
L 238.433551 259.256107 
L 238.433551 164.064697 
L 225.779006 164.064697 
z
" clip-path="url(#p380210448c)" style="fill: #55a868"/>
   </g>
   <g id="patch_42">
    <path d="M 241.597187 264.507623 
L 254.251733 264.507623 
L 254.251733 166.684306 
L 241.597187 166.684306 
z
" clip-path="url(#p380210448c)" style="fill: #55a868"/>
   </g>
   <g id="patch_43">
    <path d="M 257.415369 267.459294 
L 270.069915 267.459294 
L 270.069915 170.50918 
L 257.415369 170.50918 
z
" clip-path="url(#p380210448c)" style="fill: #55a868"/>
   </g>
   <g id="patch_44">
    <path d="M 273.233551 271.222676 
L 285.888097 271.222676 
L 285.888097 176.068162 
L 273.233551 176.068162 
z
" clip-path="url(#p380210448c)" style="fill: #55a868"/>
   </g>
   <g id="patch_45">
    <path d="M 289.051733 276.560282 
L 301.706278 276.560282 
L 301.706278 180.089814 
L 289.051733 180.089814 
z
" clip-path="url(#p380210448c)" style="fill: #55a868"/>
   </g>
   <g id="patch_46">
    <path d="M 304.869915 281.799499 
L 317.52446 281.799499 
L 317.52446 186.017755 
L 304.869915 186.017755 
z
" clip-path="url(#p380210448c)" style="fill: #55a868"/>
   </g>
   <g id="patch_47">
    <path d="M 320.688097 284.025551 
L 333.342642 284.025551 
L 333.342642 189.461372 
L 320.688097 189.461372 
z
" clip-path="url(#p380210448c)" style="fill: #55a868"/>
   </g>
   <g id="patch_48">
    <path d="M 336.506278 293.372512 
L 349.160824 293.372512 
L 349.160824 207.380478 
L 336.506278 207.380478 
z
" clip-path="url(#p380210448c)" style="fill: #55a868"/>
   </g>
   <g id="patch_49">
    <path d="M 352.32446 295.610863 
L 364.979006 295.610863 
L 364.979006 212.472112 
L 352.32446 212.472112 
z
" clip-path="url(#p380210448c)" style="fill: #55a868"/>
   </g>
   <g id="patch_50">
    <path d="M 368.142642 300.382732 
L 380.797188 300.382732 
L 380.797188 219.777499 
L 368.142642 219.777499 
z
" clip-path="url(#p380210448c)" style="fill: #55a868"/>
   </g>
   <g id="patch_51">
    <path d="M 383.960824 304.072321 
L 396.615369 304.072321 
L 396.615369 226.517149 
L 383.960824 226.517149 
z
" clip-path="url(#p380210448c)" style="fill: #55a868"/>
   </g>
   <g id="patch_52">
    <path d="M 399.779006 307.712716 
L 412.433551 307.712716 
L 412.433551 231.325914 
L 399.779006 231.325914 
z
" clip-path="url(#p380210448c)" style="fill: #55a868"/>
   </g>
   <g id="patch_53">
    <path d="M 415.597187 310.28313 
L 428.251733 310.28313 
L 428.251733 233.219904 
L 415.597187 233.219904 
z
" clip-path="url(#p380210448c)" style="fill: #55a868"/>
   </g>
   <g id="patch_54">
    <path d="M 431.415369 310.086352 
L 444.069915 310.086352 
L 444.069915 231.289018 
L 431.415369 231.289018 
z
" clip-path="url(#p380210448c)" style="fill: #55a868"/>
   </g>
   <g id="patch_55">
    <path d="M 447.233551 313.087218 
L 459.888097 313.087218 
L 459.888097 234.954011 
L 447.233551 234.954011 
z
" clip-path="url(#p380210448c)" style="fill: #55a868"/>
   </g>
   <g id="patch_56">
    <path d="M 463.051733 315.805216 
L 475.706278 315.805216 
L 475.706278 237.069375 
L 463.051733 237.069375 
z
" clip-path="url(#p380210448c)" style="fill: #55a868"/>
   </g>
   <g id="patch_57">
    <path d="M 478.869915 316.063487 
L 491.52446 316.063487 
L 491.52446 237.905682 
L 478.869915 237.905682 
z
" clip-path="url(#p380210448c)" style="fill: #55a868"/>
   </g>
   <g id="patch_58">
    <path d="M 494.688097 317.539323 
L 507.342642 317.539323 
L 507.342642 239.18474 
L 494.688097 239.18474 
z
" clip-path="url(#p380210448c)" style="fill: #55a868"/>
   </g>
   <g id="patch_59">
    <path d="M 510.506278 323.848521 
L 523.160824 323.848521 
L 523.160824 260.572061 
L 510.506278 260.572061 
z
" clip-path="url(#p380210448c)" style="fill: #55a868"/>
   </g>
   <g id="patch_60">
    <path d="M 526.32446 321.192017 
L 538.979006 321.192017 
L 538.979006 251.999914 
L 526.32446 251.999914 
z
" clip-path="url(#p380210448c)" style="fill: #55a868"/>
   </g>
   <g id="patch_61">
    <path d="M 60.637188 348.531875 
L 60.637188 27.771875 
" style="fill: none"/>
   </g>
   <g id="patch_62">
    <path d="M 561.757187 348.531875 
L 561.757187 27.771875 
" style="fill: none"/>
   </g>
   <g id="patch_63">
    <path d="M 60.637188 348.531875 
L 561.757187 348.531875 
" style="fill: none"/>
   </g>
   <g id="patch_64">
    <path d="M 60.637188 27.771875 
L 561.757187 27.771875 
" style="fill: none"/>
   </g>
   <g id="text_15">
    <!-- US TB Cases by Origin of Birth, 1993-2021 -->
    <g style="fill: #262626" transform="translate(120.181562 21.771875) scale(0.2 -0.2)">
     <defs>
      <path id="ArialMT-55" d="M 3500 4581 
L 4106 4581 
L 4106 1934 
Q 4106 1244 3950 837 
Q 3794 431 3386 176 
Q 2978 -78 2316 -78 
Q 1672 -78 1262 144 
Q 853 366 678 786 
Q 503 1206 503 1934 
L 503 4581 
L 1109 4581 
L 1109 1938 
Q 1109 1341 1220 1058 
Q 1331 775 1601 622 
Q 1872 469 2263 469 
Q 2931 469 3215 772 
Q 3500 1075 3500 1938 
L 3500 4581 
z
" transform="scale(0.015625)"/>
      <path id="ArialMT-53" d="M 288 1472 
L 859 1522 
Q 900 1178 1048 958 
Q 1197 738 1509 602 
Q 1822 466 2213 466 
Q 2559 466 2825 569 
Q 3091 672 3220 851 
Q 3350 1031 3350 1244 
Q 3350 1459 3225 1620 
Q 3100 1781 2813 1891 
Q 2628 1963 1997 2114 
Q 1366 2266 1113 2400 
Q 784 2572 623 2826 
Q 463 3081 463 3397 
Q 463 3744 659 4045 
Q 856 4347 1234 4503 
Q 1613 4659 2075 4659 
Q 2584 4659 2973 4495 
Q 3363 4331 3572 4012 
Q 3781 3694 3797 3291 
L 3216 3247 
Q 3169 3681 2898 3903 
Q 2628 4125 2100 4125 
Q 1550 4125 1298 3923 
Q 1047 3722 1047 3438 
Q 1047 3191 1225 3031 
Q 1400 2872 2139 2705 
Q 2878 2538 3153 2413 
Q 3553 2228 3743 1945 
Q 3934 1663 3934 1294 
Q 3934 928 3725 604 
Q 3516 281 3123 101 
Q 2731 -78 2241 -78 
Q 1619 -78 1198 103 
Q 778 284 539 648 
Q 300 1013 288 1472 
z
" transform="scale(0.015625)"/>
      <path id="ArialMT-20" transform="scale(0.015625)"/>
      <path id="ArialMT-54" d="M 1659 0 
L 1659 4041 
L 150 4041 
L 150 4581 
L 3781 4581 
L 3781 4041 
L 2266 4041 
L 2266 0 
L 1659 0 
z
" transform="scale(0.015625)"/>
      <path id="ArialMT-42" d="M 469 0 
L 469 4581 
L 2188 4581 
Q 2713 4581 3030 4442 
Q 3347 4303 3526 4014 
Q 3706 3725 3706 3409 
Q 3706 3116 3547 2856 
Q 3388 2597 3066 2438 
Q 3481 2316 3704 2022 
Q 3928 1728 3928 1328 
Q 3928 1006 3792 729 
Q 3656 453 3456 303 
Q 3256 153 2954 76 
Q 2653 0 2216 0 
L 469 0 
z
M 1075 2656 
L 2066 2656 
Q 2469 2656 2644 2709 
Q 2875 2778 2992 2937 
Q 3109 3097 3109 3338 
Q 3109 3566 3000 3739 
Q 2891 3913 2687 3977 
Q 2484 4041 1991 4041 
L 1075 4041 
L 1075 2656 
z
M 1075 541 
L 2216 541 
Q 2509 541 2628 563 
Q 2838 600 2978 687 
Q 3119 775 3209 942 
Q 3300 1109 3300 1328 
Q 3300 1584 3169 1773 
Q 3038 1963 2805 2039 
Q 2572 2116 2134 2116 
L 1075 2116 
L 1075 541 
z
" transform="scale(0.015625)"/>
      <path id="ArialMT-62" d="M 941 0 
L 419 0 
L 419 4581 
L 981 4581 
L 981 2947 
Q 1338 3394 1891 3394 
Q 2197 3394 2470 3270 
Q 2744 3147 2920 2923 
Q 3097 2700 3197 2384 
Q 3297 2069 3297 1709 
Q 3297 856 2875 390 
Q 2453 -75 1863 -75 
Q 1275 -75 941 416 
L 941 0 
z
M 934 1684 
Q 934 1088 1097 822 
Q 1363 388 1816 388 
Q 2184 388 2453 708 
Q 2722 1028 2722 1663 
Q 2722 2313 2464 2622 
Q 2206 2931 1841 2931 
Q 1472 2931 1203 2611 
Q 934 2291 934 1684 
z
" transform="scale(0.015625)"/>
      <path id="ArialMT-79" d="M 397 -1278 
L 334 -750 
Q 519 -800 656 -800 
Q 844 -800 956 -737 
Q 1069 -675 1141 -563 
Q 1194 -478 1313 -144 
Q 1328 -97 1363 -6 
L 103 3319 
L 709 3319 
L 1400 1397 
Q 1534 1031 1641 628 
Q 1738 1016 1872 1384 
L 2581 3319 
L 3144 3319 
L 1881 -56 
Q 1678 -603 1566 -809 
Q 1416 -1088 1222 -1217 
Q 1028 -1347 759 -1347 
Q 597 -1347 397 -1278 
z
" transform="scale(0.015625)"/>
      <path id="ArialMT-4f" d="M 309 2231 
Q 309 3372 921 4017 
Q 1534 4663 2503 4663 
Q 3138 4663 3647 4359 
Q 4156 4056 4423 3514 
Q 4691 2972 4691 2284 
Q 4691 1588 4409 1038 
Q 4128 488 3612 205 
Q 3097 -78 2500 -78 
Q 1853 -78 1343 234 
Q 834 547 571 1087 
Q 309 1628 309 2231 
z
M 934 2222 
Q 934 1394 1379 917 
Q 1825 441 2497 441 
Q 3181 441 3623 922 
Q 4066 1403 4066 2288 
Q 4066 2847 3877 3264 
Q 3688 3681 3323 3911 
Q 2959 4141 2506 4141 
Q 1863 4141 1398 3698 
Q 934 3256 934 2222 
z
" transform="scale(0.015625)"/>
      <path id="ArialMT-69" d="M 425 3934 
L 425 4581 
L 988 4581 
L 988 3934 
L 425 3934 
z
M 425 0 
L 425 3319 
L 988 3319 
L 988 0 
L 425 0 
z
" transform="scale(0.015625)"/>
      <path id="ArialMT-67" d="M 319 -275 
L 866 -356 
Q 900 -609 1056 -725 
Q 1266 -881 1628 -881 
Q 2019 -881 2231 -725 
Q 2444 -569 2519 -288 
Q 2563 -116 2559 434 
Q 2191 0 1641 0 
Q 956 0 581 494 
Q 206 988 206 1678 
Q 206 2153 378 2554 
Q 550 2956 876 3175 
Q 1203 3394 1644 3394 
Q 2231 3394 2613 2919 
L 2613 3319 
L 3131 3319 
L 3131 450 
Q 3131 -325 2973 -648 
Q 2816 -972 2473 -1159 
Q 2131 -1347 1631 -1347 
Q 1038 -1347 672 -1080 
Q 306 -813 319 -275 
z
M 784 1719 
Q 784 1066 1043 766 
Q 1303 466 1694 466 
Q 2081 466 2343 764 
Q 2606 1063 2606 1700 
Q 2606 2309 2336 2618 
Q 2066 2928 1684 2928 
Q 1309 2928 1046 2623 
Q 784 2319 784 1719 
z
" transform="scale(0.015625)"/>
      <path id="ArialMT-6e" d="M 422 0 
L 422 3319 
L 928 3319 
L 928 2847 
Q 1294 3394 1984 3394 
Q 2284 3394 2536 3286 
Q 2788 3178 2913 3003 
Q 3038 2828 3088 2588 
Q 3119 2431 3119 2041 
L 3119 0 
L 2556 0 
L 2556 2019 
Q 2556 2363 2490 2533 
Q 2425 2703 2258 2804 
Q 2091 2906 1866 2906 
Q 1506 2906 1245 2678 
Q 984 2450 984 1813 
L 984 0 
L 422 0 
z
" transform="scale(0.015625)"/>
      <path id="ArialMT-6f" d="M 213 1659 
Q 213 2581 725 3025 
Q 1153 3394 1769 3394 
Q 2453 3394 2887 2945 
Q 3322 2497 3322 1706 
Q 3322 1066 3130 698 
Q 2938 331 2570 128 
Q 2203 -75 1769 -75 
Q 1072 -75 642 372 
Q 213 819 213 1659 
z
M 791 1659 
Q 791 1022 1069 705 
Q 1347 388 1769 388 
Q 2188 388 2466 706 
Q 2744 1025 2744 1678 
Q 2744 2294 2464 2611 
Q 2184 2928 1769 2928 
Q 1347 2928 1069 2612 
Q 791 2297 791 1659 
z
" transform="scale(0.015625)"/>
      <path id="ArialMT-66" d="M 556 0 
L 556 2881 
L 59 2881 
L 59 3319 
L 556 3319 
L 556 3672 
Q 556 4006 616 4169 
Q 697 4388 901 4523 
Q 1106 4659 1475 4659 
Q 1713 4659 2000 4603 
L 1916 4113 
Q 1741 4144 1584 4144 
Q 1328 4144 1222 4034 
Q 1116 3925 1116 3625 
L 1116 3319 
L 1763 3319 
L 1763 2881 
L 1116 2881 
L 1116 0 
L 556 0 
z
" transform="scale(0.015625)"/>
      <path id="ArialMT-74" d="M 1650 503 
L 1731 6 
Q 1494 -44 1306 -44 
Q 1000 -44 831 53 
Q 663 150 594 308 
Q 525 466 525 972 
L 525 2881 
L 113 2881 
L 113 3319 
L 525 3319 
L 525 4141 
L 1084 4478 
L 1084 3319 
L 1650 3319 
L 1650 2881 
L 1084 2881 
L 1084 941 
Q 1084 700 1114 631 
Q 1144 563 1211 522 
Q 1278 481 1403 481 
Q 1497 481 1650 503 
z
" transform="scale(0.015625)"/>
      <path id="ArialMT-68" d="M 422 0 
L 422 4581 
L 984 4581 
L 984 2938 
Q 1378 3394 1978 3394 
Q 2347 3394 2619 3248 
Q 2891 3103 3008 2847 
Q 3125 2591 3125 2103 
L 3125 0 
L 2563 0 
L 2563 2103 
Q 2563 2525 2380 2717 
Q 2197 2909 1863 2909 
Q 1613 2909 1392 2779 
Q 1172 2650 1078 2428 
Q 984 2206 984 1816 
L 984 0 
L 422 0 
z
" transform="scale(0.015625)"/>
      <path id="ArialMT-2c" d="M 569 0 
L 569 641 
L 1209 641 
L 1209 0 
Q 1209 -353 1084 -570 
Q 959 -788 688 -906 
L 531 -666 
Q 709 -588 793 -436 
Q 878 -284 888 0 
L 569 0 
z
" transform="scale(0.015625)"/>
      <path id="ArialMT-33" d="M 269 1209 
L 831 1284 
Q 928 806 1161 595 
Q 1394 384 1728 384 
Q 2125 384 2398 659 
Q 2672 934 2672 1341 
Q 2672 1728 2419 1979 
Q 2166 2231 1775 2231 
Q 1616 2231 1378 2169 
L 1441 2663 
Q 1497 2656 1531 2656 
Q 1891 2656 2178 2843 
Q 2466 3031 2466 3422 
Q 2466 3731 2256 3934 
Q 2047 4138 1716 4138 
Q 1388 4138 1169 3931 
Q 950 3725 888 3313 
L 325 3413 
Q 428 3978 793 4289 
Q 1159 4600 1703 4600 
Q 2078 4600 2393 4439 
Q 2709 4278 2876 4000 
Q 3044 3722 3044 3409 
Q 3044 3113 2884 2869 
Q 2725 2625 2413 2481 
Q 2819 2388 3044 2092 
Q 3269 1797 3269 1353 
Q 3269 753 2831 336 
Q 2394 -81 1725 -81 
Q 1122 -81 723 278 
Q 325 638 269 1209 
z
" transform="scale(0.015625)"/>
      <path id="ArialMT-2d" d="M 203 1375 
L 203 1941 
L 1931 1941 
L 1931 1375 
L 203 1375 
z
" transform="scale(0.015625)"/>
     </defs>
     <use xlink:href="#ArialMT-55"/>
     <use xlink:href="#ArialMT-53" x="72.216797"/>
     <use xlink:href="#ArialMT-20" x="138.916016"/>
     <use xlink:href="#ArialMT-54" x="164.949219"/>
     <use xlink:href="#ArialMT-42" x="226.033203"/>
     <use xlink:href="#ArialMT-20" x="292.732422"/>
     <use xlink:href="#ArialMT-43" x="320.515625"/>
     <use xlink:href="#ArialMT-61" x="392.732422"/>
     <use xlink:href="#ArialMT-73" x="448.347656"/>
     <use xlink:href="#ArialMT-65" x="498.347656"/>
     <use xlink:href="#ArialMT-73" x="553.962891"/>
     <use xlink:href="#ArialMT-20" x="603.962891"/>
     <use xlink:href="#ArialMT-62" x="631.746094"/>
     <use xlink:href="#ArialMT-79" x="687.361328"/>
     <use xlink:href="#ArialMT-20" x="737.361328"/>
     <use xlink:href="#ArialMT-4f" x="765.144531"/>
     <use xlink:href="#ArialMT-72" x="842.927734"/>
     <use xlink:href="#ArialMT-69" x="876.228516"/>
     <use xlink:href="#ArialMT-67" x="898.445312"/>
     <use xlink:href="#ArialMT-69" x="954.060547"/>
     <use xlink:href="#ArialMT-6e" x="976.277344"/>
     <use xlink:href="#ArialMT-20" x="1031.892578"/>
     <use xlink:href="#ArialMT-6f" x="1059.675781"/>
     <use xlink:href="#ArialMT-66" x="1115.291016"/>
     <use xlink:href="#ArialMT-20" x="1143.074219"/>
     <use xlink:href="#ArialMT-42" x="1170.857422"/>
     <use xlink:href="#ArialMT-69" x="1237.556641"/>
     <use xlink:href="#ArialMT-72" x="1259.773438"/>
     <use xlink:href="#ArialMT-74" x="1293.074219"/>
     <use xlink:href="#ArialMT-68" x="1320.857422"/>
     <use xlink:href="#ArialMT-2c" x="1376.472656"/>
     <use xlink:href="#ArialMT-20" x="1404.255859"/>
     <use xlink:href="#ArialMT-31" x="1432.039062"/>
     <use xlink:href="#ArialMT-39" x="1487.654297"/>
     <use xlink:href="#ArialMT-39" x="1543.269531"/>
     <use xlink:href="#ArialMT-33" x="1598.884766"/>
     <use xlink:href="#ArialMT-2d" x="1654.5"/>
     <use xlink:href="#ArialMT-32" x="1687.800781"/>
     <use xlink:href="#ArialMT-30" x="1743.416016"/>
     <use xlink:href="#ArialMT-32" x="1799.03125"/>
     <use xlink:href="#ArialMT-31" x="1854.646484"/>
    </g>
   </g>
   <g id="legend_1">
    <g id="patch_65">
     <path d="M 465.291563 43.929687 
L 485.291563 43.929687 
L 485.291563 36.929687 
L 465.291563 36.929687 
z
" style="fill: #4c72b0"/>
    </g>
    <g id="text_16">
     <!-- US Born -->
     <g style="fill: #262626" transform="translate(493.291563 43.929687) scale(0.1 -0.1)">
      <use xlink:href="#ArialMT-55"/>
      <use xlink:href="#ArialMT-53" x="72.216797"/>
      <use xlink:href="#ArialMT-20" x="138.916016"/>
      <use xlink:href="#ArialMT-42" x="166.699219"/>
      <use xlink:href="#ArialMT-6f" x="233.398438"/>
      <use xlink:href="#ArialMT-72" x="289.013672"/>
      <use xlink:href="#ArialMT-6e" x="322.314453"/>
     </g>
    </g>
    <g id="patch_66">
     <path d="M 465.291563 58.075 
L 485.291563 58.075 
L 485.291563 51.075 
L 465.291563 51.075 
z
" style="fill: #55a868"/>
    </g>
    <g id="text_17">
     <!-- Non-US Born -->
     <g style="fill: #262626" transform="translate(493.291563 58.075) scale(0.1 -0.1)">
      <defs>
       <path id="ArialMT-4e" d="M 488 0 
L 488 4581 
L 1109 4581 
L 3516 984 
L 3516 4581 
L 4097 4581 
L 4097 0 
L 3475 0 
L 1069 3600 
L 1069 0 
L 488 0 
z
" transform="scale(0.015625)"/>
      </defs>
      <use xlink:href="#ArialMT-4e"/>
      <use xlink:href="#ArialMT-6f" x="72.216797"/>
      <use xlink:href="#ArialMT-6e" x="127.832031"/>
      <use xlink:href="#ArialMT-2d" x="183.447266"/>
      <use xlink:href="#ArialMT-55" x="216.748047"/>
      <use xlink:href="#ArialMT-53" x="288.964844"/>
      <use xlink:href="#ArialMT-20" x="355.664062"/>
      <use xlink:href="#ArialMT-42" x="383.447266"/>
      <use xlink:href="#ArialMT-6f" x="450.146484"/>
      <use xlink:href="#ArialMT-72" x="505.761719"/>
      <use xlink:href="#ArialMT-6e" x="539.0625"/>
     </g>
    </g>
   </g>
  </g>
 </g>
 <defs>
  <clipPath id="p380210448c">
   <rect x="60.637188" y="27.771875" width="501.12" height="320.76"/>
  </clipPath>
 </defs>
</svg>
