<?xml version="1.0" encoding="utf-8" standalone="no"?>
<!DOCTYPE svg PUBLIC "-//W3C//DTD SVG 1.1//EN"
  "http://www.w3.org/Graphics/SVG/1.1/DTD/svg11.dtd">
<svg xmlns:xlink="http://www.w3.org/1999/xlink" width="471.18375pt" height="329.745625pt" viewBox="0 0 471.18375 329.745625" xmlns="http://www.w3.org/2000/svg" version="1.1">
 <metadata>
  <rdf:RDF xmlns:dc="http://purl.org/dc/elements/1.1/" xmlns:cc="http://creativecommons.org/ns#" xmlns:rdf="http://www.w3.org/1999/02/22-rdf-syntax-ns#">
   <cc:Work>
    <dc:type rdf:resource="http://purl.org/dc/dcmitype/StillImage"/>
    <dc:date>2023-11-05T11:21:48.385035</dc:date>
    <dc:format>image/svg+xml</dc:format>
    <dc:creator>
     <cc:Agent>
      <dc:title>Matplotlib v3.7.3, https://matplotlib.org/</dc:title>
     </cc:Agent>
    </dc:creator>
   </cc:Work>
  </rdf:RDF>
 </metadata>
 <defs>
  <style type="text/css">*{stroke-linejoin: round; stroke-linecap: butt}</style>
 </defs>
 <g id="figure_1">
  <g id="patch_1">
   <path d="M 0 329.745625 
L 471.18375 329.745625 
L 471.18375 0 
L 0 0 
z
" style="fill: #ffffff"/>
  </g>
  <g id="axes_1">
   <g id="patch_2">
    <path d="M 57.031875 290.25375 
L 414.151875 290.25375 
L 414.151875 24.14175 
L 57.031875 24.14175 
z
" style="fill: #e5e5e5"/>
   </g>
   <g id="matplotlib.axis_1">
    <g id="xtick_1">
     <g id="line2d_1">
      <path d="M 100.319148 290.25375 
L 100.319148 24.14175 
" clip-path="url(#p4aec6f25f5)" style="fill: none; stroke: #ffffff; stroke-width: 0.8; stroke-linecap: square"/>
     </g>
     <g id="line2d_2">
      <defs>
       <path id="m565cea7040" d="M 0 0 
L 0 3.5 
" style="stroke: #555555; stroke-width: 0.8"/>
      </defs>
      <g>
       <use xlink:href="#m565cea7040" x="100.319148" y="290.25375" style="fill: #555555; stroke: #555555; stroke-width: 0.8"/>
      </g>
     </g>
     <g id="text_1">
      <!-- 1995 -->
      <g style="fill: #555555" transform="translate(87.594148 304.852187) scale(0.1 -0.1)">
       <defs>
        <path id="DejaVuSans-31" d="M 794 531 
L 1825 531 
L 1825 4091 
L 703 3866 
L 703 4441 
L 1819 4666 
L 2450 4666 
L 2450 531 
L 3481 531 
L 3481 0 
L 794 0 
L 794 531 
z
" transform="scale(0.015625)"/>
        <path id="DejaVuSans-39" d="M 703 97 
L 703 672 
Q 941 559 1184 500 
Q 1428 441 1663 441 
Q 2288 441 2617 861 
Q 2947 1281 2994 2138 
Q 2813 1869 2534 1725 
Q 2256 1581 1919 1581 
Q 1219 1581 811 2004 
Q 403 2428 403 3163 
Q 403 3881 828 4315 
Q 1253 4750 1959 4750 
Q 2769 4750 3195 4129 
Q 3622 3509 3622 2328 
Q 3622 1225 3098 567 
Q 2575 -91 1691 -91 
Q 1453 -91 1209 -44 
Q 966 3 703 97 
z
M 1959 2075 
Q 2384 2075 2632 2365 
Q 2881 2656 2881 3163 
Q 2881 3666 2632 3958 
Q 2384 4250 1959 4250 
Q 1534 4250 1286 3958 
Q 1038 3666 1038 3163 
Q 1038 2656 1286 2365 
Q 1534 2075 1959 2075 
z
" transform="scale(0.015625)"/>
        <path id="DejaVuSans-35" d="M 691 4666 
L 3169 4666 
L 3169 4134 
L 1269 4134 
L 1269 2991 
Q 1406 3038 1543 3061 
Q 1681 3084 1819 3084 
Q 2600 3084 3056 2656 
Q 3513 2228 3513 1497 
Q 3513 744 3044 326 
Q 2575 -91 1722 -91 
Q 1428 -91 1123 -41 
Q 819 9 494 109 
L 494 744 
Q 775 591 1075 516 
Q 1375 441 1709 441 
Q 2250 441 2565 725 
Q 2881 1009 2881 1497 
Q 2881 1984 2565 2268 
Q 2250 2553 1709 2553 
Q 1456 2553 1204 2497 
Q 953 2441 691 2322 
L 691 4666 
z
" transform="scale(0.015625)"/>
       </defs>
       <use xlink:href="#DejaVuSans-31"/>
       <use xlink:href="#DejaVuSans-39" x="63.623047"/>
       <use xlink:href="#DejaVuSans-39" x="127.246094"/>
       <use xlink:href="#DejaVuSans-35" x="190.869141"/>
      </g>
     </g>
    </g>
    <g id="xtick_2">
     <g id="line2d_3">
      <path d="M 156.682784 290.25375 
L 156.682784 24.14175 
" clip-path="url(#p4aec6f25f5)" style="fill: none; stroke: #ffffff; stroke-width: 0.8; stroke-linecap: square"/>
     </g>
     <g id="line2d_4">
      <g>
       <use xlink:href="#m565cea7040" x="156.682784" y="290.25375" style="fill: #555555; stroke: #555555; stroke-width: 0.8"/>
      </g>
     </g>
     <g id="text_2">
      <!-- 2000 -->
      <g style="fill: #555555" transform="translate(143.957784 304.852187) scale(0.1 -0.1)">
       <defs>
        <path id="DejaVuSans-32" d="M 1228 531 
L 3431 531 
L 3431 0 
L 469 0 
L 469 531 
Q 828 903 1448 1529 
Q 2069 2156 2228 2338 
Q 2531 2678 2651 2914 
Q 2772 3150 2772 3378 
Q 2772 3750 2511 3984 
Q 2250 4219 1831 4219 
Q 1534 4219 1204 4116 
Q 875 4013 500 3803 
L 500 4441 
Q 881 4594 1212 4672 
Q 1544 4750 1819 4750 
Q 2544 4750 2975 4387 
Q 3406 4025 3406 3419 
Q 3406 3131 3298 2873 
Q 3191 2616 2906 2266 
Q 2828 2175 2409 1742 
Q 1991 1309 1228 531 
z
" transform="scale(0.015625)"/>
        <path id="DejaVuSans-30" d="M 2034 4250 
Q 1547 4250 1301 3770 
Q 1056 3291 1056 2328 
Q 1056 1369 1301 889 
Q 1547 409 2034 409 
Q 2525 409 2770 889 
Q 3016 1369 3016 2328 
Q 3016 3291 2770 3770 
Q 2525 4250 2034 4250 
z
M 2034 4750 
Q 2819 4750 3233 4129 
Q 3647 3509 3647 2328 
Q 3647 1150 3233 529 
Q 2819 -91 2034 -91 
Q 1250 -91 836 529 
Q 422 1150 422 2328 
Q 422 3509 836 4129 
Q 1250 4750 2034 4750 
z
" transform="scale(0.015625)"/>
       </defs>
       <use xlink:href="#DejaVuSans-32"/>
       <use xlink:href="#DejaVuSans-30" x="63.623047"/>
       <use xlink:href="#DejaVuSans-30" x="127.246094"/>
       <use xlink:href="#DejaVuSans-30" x="190.869141"/>
      </g>
     </g>
    </g>
    <g id="xtick_3">
     <g id="line2d_5">
      <path d="M 213.04642 290.25375 
L 213.04642 24.14175 
" clip-path="url(#p4aec6f25f5)" style="fill: none; stroke: #ffffff; stroke-width: 0.8; stroke-linecap: square"/>
     </g>
     <g id="line2d_6">
      <g>
       <use xlink:href="#m565cea7040" x="213.04642" y="290.25375" style="fill: #555555; stroke: #555555; stroke-width: 0.8"/>
      </g>
     </g>
     <g id="text_3">
      <!-- 2005 -->
      <g style="fill: #555555" transform="translate(200.32142 304.852187) scale(0.1 -0.1)">
       <use xlink:href="#DejaVuSans-32"/>
       <use xlink:href="#DejaVuSans-30" x="63.623047"/>
       <use xlink:href="#DejaVuSans-30" x="127.246094"/>
       <use xlink:href="#DejaVuSans-35" x="190.869141"/>
      </g>
     </g>
    </g>
    <g id="xtick_4">
     <g id="line2d_7">
      <path d="M 269.410057 290.25375 
L 269.410057 24.14175 
" clip-path="url(#p4aec6f25f5)" style="fill: none; stroke: #ffffff; stroke-width: 0.8; stroke-linecap: square"/>
     </g>
     <g id="line2d_8">
      <g>
       <use xlink:href="#m565cea7040" x="269.410057" y="290.25375" style="fill: #555555; stroke: #555555; stroke-width: 0.8"/>
      </g>
     </g>
     <g id="text_4">
      <!-- 2010 -->
      <g style="fill: #555555" transform="translate(256.685057 304.852187) scale(0.1 -0.1)">
       <use xlink:href="#DejaVuSans-32"/>
       <use xlink:href="#DejaVuSans-30" x="63.623047"/>
       <use xlink:href="#DejaVuSans-31" x="127.246094"/>
       <use xlink:href="#DejaVuSans-30" x="190.869141"/>
      </g>
     </g>
    </g>
    <g id="xtick_5">
     <g id="line2d_9">
      <path d="M 325.773693 290.25375 
L 325.773693 24.14175 
" clip-path="url(#p4aec6f25f5)" style="fill: none; stroke: #ffffff; stroke-width: 0.8; stroke-linecap: square"/>
     </g>
     <g id="line2d_10">
      <g>
       <use xlink:href="#m565cea7040" x="325.773693" y="290.25375" style="fill: #555555; stroke: #555555; stroke-width: 0.8"/>
      </g>
     </g>
     <g id="text_5">
      <!-- 2015 -->
      <g style="fill: #555555" transform="translate(313.048693 304.852187) scale(0.1 -0.1)">
       <use xlink:href="#DejaVuSans-32"/>
       <use xlink:href="#DejaVuSans-30" x="63.623047"/>
       <use xlink:href="#DejaVuSans-31" x="127.246094"/>
       <use xlink:href="#DejaVuSans-35" x="190.869141"/>
      </g>
     </g>
    </g>
    <g id="xtick_6">
     <g id="line2d_11">
      <path d="M 382.13733 290.25375 
L 382.13733 24.14175 
" clip-path="url(#p4aec6f25f5)" style="fill: none; stroke: #ffffff; stroke-width: 0.8; stroke-linecap: square"/>
     </g>
     <g id="line2d_12">
      <g>
       <use xlink:href="#m565cea7040" x="382.13733" y="290.25375" style="fill: #555555; stroke: #555555; stroke-width: 0.8"/>
      </g>
     </g>
     <g id="text_6">
      <!-- 2020 -->
      <g style="fill: #555555" transform="translate(369.41233 304.852187) scale(0.1 -0.1)">
       <use xlink:href="#DejaVuSans-32"/>
       <use xlink:href="#DejaVuSans-30" x="63.623047"/>
       <use xlink:href="#DejaVuSans-32" x="127.246094"/>
       <use xlink:href="#DejaVuSans-30" x="190.869141"/>
      </g>
     </g>
    </g>
    <g id="text_7">
     <!-- Year -->
     <g style="fill: #555555" transform="translate(222.886875 320.05) scale(0.12 -0.12)">
      <defs>
       <path id="DejaVuSans-59" d="M -13 4666 
L 666 4666 
L 1959 2747 
L 3244 4666 
L 3922 4666 
L 2272 2222 
L 2272 0 
L 1638 0 
L 1638 2222 
L -13 4666 
z
" transform="scale(0.015625)"/>
       <path id="DejaVuSans-65" d="M 3597 1894 
L 3597 1613 
L 953 1613 
Q 991 1019 1311 708 
Q 1631 397 2203 397 
Q 2534 397 2845 478 
Q 3156 559 3463 722 
L 3463 178 
Q 3153 47 2828 -22 
Q 2503 -91 2169 -91 
Q 1331 -91 842 396 
Q 353 884 353 1716 
Q 353 2575 817 3079 
Q 1281 3584 2069 3584 
Q 2775 3584 3186 3129 
Q 3597 2675 3597 1894 
z
M 3022 2063 
Q 3016 2534 2758 2815 
Q 2500 3097 2075 3097 
Q 1594 3097 1305 2825 
Q 1016 2553 972 2059 
L 3022 2063 
z
" transform="scale(0.015625)"/>
       <path id="DejaVuSans-61" d="M 2194 1759 
Q 1497 1759 1228 1600 
Q 959 1441 959 1056 
Q 959 750 1161 570 
Q 1363 391 1709 391 
Q 2188 391 2477 730 
Q 2766 1069 2766 1631 
L 2766 1759 
L 2194 1759 
z
M 3341 1997 
L 3341 0 
L 2766 0 
L 2766 531 
Q 2569 213 2275 61 
Q 1981 -91 1556 -91 
Q 1019 -91 701 211 
Q 384 513 384 1019 
Q 384 1609 779 1909 
Q 1175 2209 1959 2209 
L 2766 2209 
L 2766 2266 
Q 2766 2663 2505 2880 
Q 2244 3097 1772 3097 
Q 1472 3097 1187 3025 
Q 903 2953 641 2809 
L 641 3341 
Q 956 3463 1253 3523 
Q 1550 3584 1831 3584 
Q 2591 3584 2966 3190 
Q 3341 2797 3341 1997 
z
" transform="scale(0.015625)"/>
       <path id="DejaVuSans-72" d="M 2631 2963 
Q 2534 3019 2420 3045 
Q 2306 3072 2169 3072 
Q 1681 3072 1420 2755 
Q 1159 2438 1159 1844 
L 1159 0 
L 581 0 
L 581 3500 
L 1159 3500 
L 1159 2956 
Q 1341 3275 1631 3429 
Q 1922 3584 2338 3584 
Q 2397 3584 2469 3576 
Q 2541 3569 2628 3553 
L 2631 2963 
z
" transform="scale(0.015625)"/>
      </defs>
      <use xlink:href="#DejaVuSans-59"/>
      <use xlink:href="#DejaVuSans-65" x="47.833984"/>
      <use xlink:href="#DejaVuSans-61" x="109.357422"/>
      <use xlink:href="#DejaVuSans-72" x="170.636719"/>
     </g>
    </g>
   </g>
   <g id="matplotlib.axis_2">
    <g id="ytick_1">
     <g id="line2d_13">
      <path d="M 57.031875 290.25375 
L 414.151875 290.25375 
" clip-path="url(#p4aec6f25f5)" style="fill: none; stroke: #ffffff; stroke-width: 0.8; stroke-linecap: square"/>
     </g>
     <g id="line2d_14">
      <defs>
       <path id="mfd4bb335b6" d="M 0 0 
L -3.5 0 
" style="stroke: #555555; stroke-width: 0.8"/>
      </defs>
      <g>
       <use xlink:href="#mfd4bb335b6" x="57.031875" y="290.25375" style="fill: #555555; stroke: #555555; stroke-width: 0.8"/>
      </g>
     </g>
     <g id="text_8">
      <!-- 0 -->
      <g style="fill: #555555" transform="translate(43.669375 294.052969) scale(0.1 -0.1)">
       <use xlink:href="#DejaVuSans-30"/>
      </g>
     </g>
    </g>
    <g id="ytick_2">
     <g id="line2d_15">
      <path d="M 57.031875 244.047734 
L 414.151875 244.047734 
" clip-path="url(#p4aec6f25f5)" style="fill: none; stroke: #ffffff; stroke-width: 0.8; stroke-linecap: square"/>
     </g>
     <g id="line2d_16">
      <g>
       <use xlink:href="#mfd4bb335b6" x="57.031875" y="244.047734" style="fill: #555555; stroke: #555555; stroke-width: 0.8"/>
      </g>
     </g>
     <g id="text_9">
      <!-- 20 -->
      <g style="fill: #555555" transform="translate(37.306875 247.846952) scale(0.1 -0.1)">
       <use xlink:href="#DejaVuSans-32"/>
       <use xlink:href="#DejaVuSans-30" x="63.623047"/>
      </g>
     </g>
    </g>
    <g id="ytick_3">
     <g id="line2d_17">
      <path d="M 57.031875 197.841717 
L 414.151875 197.841717 
" clip-path="url(#p4aec6f25f5)" style="fill: none; stroke: #ffffff; stroke-width: 0.8; stroke-linecap: square"/>
     </g>
     <g id="line2d_18">
      <g>
       <use xlink:href="#mfd4bb335b6" x="57.031875" y="197.841717" style="fill: #555555; stroke: #555555; stroke-width: 0.8"/>
      </g>
     </g>
     <g id="text_10">
      <!-- 40 -->
      <g style="fill: #555555" transform="translate(37.306875 201.640936) scale(0.1 -0.1)">
       <defs>
        <path id="DejaVuSans-34" d="M 2419 4116 
L 825 1625 
L 2419 1625 
L 2419 4116 
z
M 2253 4666 
L 3047 4666 
L 3047 1625 
L 3713 1625 
L 3713 1100 
L 3047 1100 
L 3047 0 
L 2419 0 
L 2419 1100 
L 313 1100 
L 313 1709 
L 2253 4666 
z
" transform="scale(0.015625)"/>
       </defs>
       <use xlink:href="#DejaVuSans-34"/>
       <use xlink:href="#DejaVuSans-30" x="63.623047"/>
      </g>
     </g>
    </g>
    <g id="ytick_4">
     <g id="line2d_19">
      <path d="M 57.031875 151.635701 
L 414.151875 151.635701 
" clip-path="url(#p4aec6f25f5)" style="fill: none; stroke: #ffffff; stroke-width: 0.8; stroke-linecap: square"/>
     </g>
     <g id="line2d_20">
      <g>
       <use xlink:href="#mfd4bb335b6" x="57.031875" y="151.635701" style="fill: #555555; stroke: #555555; stroke-width: 0.8"/>
      </g>
     </g>
     <g id="text_11">
      <!-- 60 -->
      <g style="fill: #555555" transform="translate(37.306875 155.43492) scale(0.1 -0.1)">
       <defs>
        <path id="DejaVuSans-36" d="M 2113 2584 
Q 1688 2584 1439 2293 
Q 1191 2003 1191 1497 
Q 1191 994 1439 701 
Q 1688 409 2113 409 
Q 2538 409 2786 701 
Q 3034 994 3034 1497 
Q 3034 2003 2786 2293 
Q 2538 2584 2113 2584 
z
M 3366 4563 
L 3366 3988 
Q 3128 4100 2886 4159 
Q 2644 4219 2406 4219 
Q 1781 4219 1451 3797 
Q 1122 3375 1075 2522 
Q 1259 2794 1537 2939 
Q 1816 3084 2150 3084 
Q 2853 3084 3261 2657 
Q 3669 2231 3669 1497 
Q 3669 778 3244 343 
Q 2819 -91 2113 -91 
Q 1303 -91 875 529 
Q 447 1150 447 2328 
Q 447 3434 972 4092 
Q 1497 4750 2381 4750 
Q 2619 4750 2861 4703 
Q 3103 4656 3366 4563 
z
" transform="scale(0.015625)"/>
       </defs>
       <use xlink:href="#DejaVuSans-36"/>
       <use xlink:href="#DejaVuSans-30" x="63.623047"/>
      </g>
     </g>
    </g>
    <g id="ytick_5">
     <g id="line2d_21">
      <path d="M 57.031875 105.429684 
L 414.151875 105.429684 
" clip-path="url(#p4aec6f25f5)" style="fill: none; stroke: #ffffff; stroke-width: 0.8; stroke-linecap: square"/>
     </g>
     <g id="line2d_22">
      <g>
       <use xlink:href="#mfd4bb335b6" x="57.031875" y="105.429684" style="fill: #555555; stroke: #555555; stroke-width: 0.8"/>
      </g>
     </g>
     <g id="text_12">
      <!-- 80 -->
      <g style="fill: #555555" transform="translate(37.306875 109.228903) scale(0.1 -0.1)">
       <defs>
        <path id="DejaVuSans-38" d="M 2034 2216 
Q 1584 2216 1326 1975 
Q 1069 1734 1069 1313 
Q 1069 891 1326 650 
Q 1584 409 2034 409 
Q 2484 409 2743 651 
Q 3003 894 3003 1313 
Q 3003 1734 2745 1975 
Q 2488 2216 2034 2216 
z
M 1403 2484 
Q 997 2584 770 2862 
Q 544 3141 544 3541 
Q 544 4100 942 4425 
Q 1341 4750 2034 4750 
Q 2731 4750 3128 4425 
Q 3525 4100 3525 3541 
Q 3525 3141 3298 2862 
Q 3072 2584 2669 2484 
Q 3125 2378 3379 2068 
Q 3634 1759 3634 1313 
Q 3634 634 3220 271 
Q 2806 -91 2034 -91 
Q 1263 -91 848 271 
Q 434 634 434 1313 
Q 434 1759 690 2068 
Q 947 2378 1403 2484 
z
M 1172 3481 
Q 1172 3119 1398 2916 
Q 1625 2713 2034 2713 
Q 2441 2713 2670 2916 
Q 2900 3119 2900 3481 
Q 2900 3844 2670 4047 
Q 2441 4250 2034 4250 
Q 1625 4250 1398 4047 
Q 1172 3844 1172 3481 
z
" transform="scale(0.015625)"/>
       </defs>
       <use xlink:href="#DejaVuSans-38"/>
       <use xlink:href="#DejaVuSans-30" x="63.623047"/>
      </g>
     </g>
    </g>
    <g id="ytick_6">
     <g id="line2d_23">
      <path d="M 57.031875 59.223668 
L 414.151875 59.223668 
" clip-path="url(#p4aec6f25f5)" style="fill: none; stroke: #ffffff; stroke-width: 0.8; stroke-linecap: square"/>
     </g>
     <g id="line2d_24">
      <g>
       <use xlink:href="#mfd4bb335b6" x="57.031875" y="59.223668" style="fill: #555555; stroke: #555555; stroke-width: 0.8"/>
      </g>
     </g>
     <g id="text_13">
      <!-- 100 -->
      <g style="fill: #555555" transform="translate(30.944375 63.022887) scale(0.1 -0.1)">
       <use xlink:href="#DejaVuSans-31"/>
       <use xlink:href="#DejaVuSans-30" x="63.623047"/>
       <use xlink:href="#DejaVuSans-30" x="127.246094"/>
      </g>
     </g>
    </g>
    <g id="text_14">
     <!-- Rate -->
     <g style="fill: #555555" transform="translate(24.44875 170.95275) rotate(-90) scale(0.12 -0.12)">
      <defs>
       <path id="DejaVuSans-52" d="M 2841 2188 
Q 3044 2119 3236 1894 
Q 3428 1669 3622 1275 
L 4263 0 
L 3584 0 
L 2988 1197 
Q 2756 1666 2539 1819 
Q 2322 1972 1947 1972 
L 1259 1972 
L 1259 0 
L 628 0 
L 628 4666 
L 2053 4666 
Q 2853 4666 3247 4331 
Q 3641 3997 3641 3322 
Q 3641 2881 3436 2590 
Q 3231 2300 2841 2188 
z
M 1259 4147 
L 1259 2491 
L 2053 2491 
Q 2509 2491 2742 2702 
Q 2975 2913 2975 3322 
Q 2975 3731 2742 3939 
Q 2509 4147 2053 4147 
L 1259 4147 
z
" transform="scale(0.015625)"/>
       <path id="DejaVuSans-74" d="M 1172 4494 
L 1172 3500 
L 2356 3500 
L 2356 3053 
L 1172 3053 
L 1172 1153 
Q 1172 725 1289 603 
Q 1406 481 1766 481 
L 2356 481 
L 2356 0 
L 1766 0 
Q 1100 0 847 248 
Q 594 497 594 1153 
L 594 3053 
L 172 3053 
L 172 3500 
L 594 3500 
L 594 4494 
L 1172 4494 
z
" transform="scale(0.015625)"/>
      </defs>
      <use xlink:href="#DejaVuSans-52"/>
      <use xlink:href="#DejaVuSans-61" x="67.232422"/>
      <use xlink:href="#DejaVuSans-74" x="128.511719"/>
      <use xlink:href="#DejaVuSans-65" x="167.720703"/>
     </g>
    </g>
   </g>
   <g id="patch_3">
    <path d="M 73.264602 290.25375 
L 82.282784 290.25375 
L 82.282784 192.759055 
L 73.264602 192.759055 
z
" clip-path="url(#p4aec6f25f5)" style="fill: #e24a33"/>
   </g>
   <g id="patch_4">
    <path d="M 84.53733 290.25375 
L 93.555511 290.25375 
L 93.555511 191.372875 
L 84.53733 191.372875 
z
" clip-path="url(#p4aec6f25f5)" style="fill: #e24a33"/>
   </g>
   <g id="patch_5">
    <path d="M 95.810057 290.25375 
L 104.828239 290.25375 
L 104.828239 189.986694 
L 95.810057 189.986694 
z
" clip-path="url(#p4aec6f25f5)" style="fill: #e24a33"/>
   </g>
   <g id="patch_6">
    <path d="M 107.082784 290.25375 
L 116.100966 290.25375 
L 116.100966 198.072747 
L 107.082784 198.072747 
z
" clip-path="url(#p4aec6f25f5)" style="fill: #e24a33"/>
   </g>
   <g id="patch_7">
    <path d="M 118.355511 290.25375 
L 127.373693 290.25375 
L 127.373693 201.076138 
L 118.355511 201.076138 
z
" clip-path="url(#p4aec6f25f5)" style="fill: #e24a33"/>
   </g>
   <g id="patch_8">
    <path d="M 129.628239 290.25375 
L 138.64642 290.25375 
L 138.64642 208.007041 
L 129.628239 208.007041 
z
" clip-path="url(#p4aec6f25f5)" style="fill: #e24a33"/>
   </g>
   <g id="patch_9">
    <path d="M 140.900966 290.25375 
L 149.919148 290.25375 
L 149.919148 210.548372 
L 140.900966 210.548372 
z
" clip-path="url(#p4aec6f25f5)" style="fill: #e24a33"/>
   </g>
   <g id="patch_10">
    <path d="M 152.173693 290.25375 
L 161.191875 290.25375 
L 161.191875 217.941334 
L 152.173693 217.941334 
z
" clip-path="url(#p4aec6f25f5)" style="fill: #e24a33"/>
   </g>
   <g id="patch_11">
    <path d="M 163.44642 290.25375 
L 172.464602 290.25375 
L 172.464602 218.865455 
L 163.44642 218.865455 
z
" clip-path="url(#p4aec6f25f5)" style="fill: #e24a33"/>
   </g>
   <g id="patch_12">
    <path d="M 174.719148 290.25375 
L 183.73733 290.25375 
L 183.73733 225.103267 
L 174.719148 225.103267 
z
" clip-path="url(#p4aec6f25f5)" style="fill: #e24a33"/>
   </g>
   <g id="patch_13">
    <path d="M 185.991875 290.25375 
L 195.010057 290.25375 
L 195.010057 222.561936 
L 185.991875 222.561936 
z
" clip-path="url(#p4aec6f25f5)" style="fill: #e24a33"/>
   </g>
   <g id="patch_14">
    <path d="M 197.264602 290.25375 
L 206.282784 290.25375 
L 206.282784 227.182538 
L 197.264602 227.182538 
z
" clip-path="url(#p4aec6f25f5)" style="fill: #e24a33"/>
   </g>
   <g id="patch_15">
    <path d="M 208.53733 290.25375 
L 217.555511 290.25375 
L 217.555511 231.803139 
L 208.53733 231.803139 
z
" clip-path="url(#p4aec6f25f5)" style="fill: #e24a33"/>
   </g>
   <g id="patch_16">
    <path d="M 219.810057 290.25375 
L 228.828239 290.25375 
L 228.828239 232.265199 
L 219.810057 232.265199 
z
" clip-path="url(#p4aec6f25f5)" style="fill: #e24a33"/>
   </g>
   <g id="patch_17">
    <path d="M 231.082784 290.25375 
L 240.100966 290.25375 
L 240.100966 231.341079 
L 231.082784 231.341079 
z
" clip-path="url(#p4aec6f25f5)" style="fill: #e24a33"/>
   </g>
   <g id="patch_18">
    <path d="M 242.355511 290.25375 
L 251.373693 290.25375 
L 251.373693 233.65138 
L 242.355511 233.65138 
z
" clip-path="url(#p4aec6f25f5)" style="fill: #e24a33"/>
   </g>
   <g id="patch_19">
    <path d="M 253.628239 290.25375 
L 262.64642 290.25375 
L 262.64642 238.734042 
L 253.628239 238.734042 
z
" clip-path="url(#p4aec6f25f5)" style="fill: #e24a33"/>
   </g>
   <g id="patch_20">
    <path d="M 264.900966 290.25375 
L 273.919148 290.25375 
L 273.919148 240.813312 
L 264.900966 240.813312 
z
" clip-path="url(#p4aec6f25f5)" style="fill: #e24a33"/>
   </g>
   <g id="patch_21">
    <path d="M 276.173693 290.25375 
L 285.191875 290.25375 
L 285.191875 242.430523 
L 276.173693 242.430523 
z
" clip-path="url(#p4aec6f25f5)" style="fill: #e24a33"/>
   </g>
   <g id="patch_22">
    <path d="M 287.44642 290.25375 
L 296.464602 290.25375 
L 296.464602 245.664944 
L 287.44642 245.664944 
z
" clip-path="url(#p4aec6f25f5)" style="fill: #e24a33"/>
   </g>
   <g id="patch_23">
    <path d="M 298.719148 290.25375 
L 307.73733 290.25375 
L 307.73733 246.127004 
L 298.719148 246.127004 
z
" clip-path="url(#p4aec6f25f5)" style="fill: #e24a33"/>
   </g>
   <g id="patch_24">
    <path d="M 309.991875 290.25375 
L 319.010057 290.25375 
L 319.010057 247.744215 
L 309.991875 247.744215 
z
" clip-path="url(#p4aec6f25f5)" style="fill: #e24a33"/>
   </g>
   <g id="patch_25">
    <path d="M 321.264602 290.25375 
L 330.282784 290.25375 
L 330.282784 246.358034 
L 321.264602 246.358034 
z
" clip-path="url(#p4aec6f25f5)" style="fill: #e24a33"/>
   </g>
   <g id="patch_26">
    <path d="M 332.53733 290.25375 
L 341.555511 290.25375 
L 341.555511 248.668335 
L 332.53733 248.668335 
z
" clip-path="url(#p4aec6f25f5)" style="fill: #e24a33"/>
   </g>
   <g id="patch_27">
    <path d="M 343.810057 290.25375 
L 352.828239 290.25375 
L 352.828239 249.130395 
L 343.810057 249.130395 
z
" clip-path="url(#p4aec6f25f5)" style="fill: #e24a33"/>
   </g>
   <g id="patch_28">
    <path d="M 355.082784 290.25375 
L 364.100966 290.25375 
L 364.100966 250.516576 
L 355.082784 250.516576 
z
" clip-path="url(#p4aec6f25f5)" style="fill: #e24a33"/>
   </g>
   <g id="patch_29">
    <path d="M 366.355511 290.25375 
L 375.373693 290.25375 
L 375.373693 251.902756 
L 366.355511 251.902756 
z
" clip-path="url(#p4aec6f25f5)" style="fill: #e24a33"/>
   </g>
   <g id="patch_30">
    <path d="M 377.628239 290.25375 
L 386.64642 290.25375 
L 386.64642 259.757779 
L 377.628239 259.757779 
z
" clip-path="url(#p4aec6f25f5)" style="fill: #e24a33"/>
   </g>
   <g id="patch_31">
    <path d="M 388.900966 290.25375 
L 397.919148 290.25375 
L 397.919148 256.985418 
L 388.900966 256.985418 
z
" clip-path="url(#p4aec6f25f5)" style="fill: #e24a33"/>
   </g>
   <g id="patch_32">
    <path d="M 73.264602 192.759055 
L 82.282784 192.759055 
L 82.282784 125.529302 
L 73.264602 125.529302 
z
" clip-path="url(#p4aec6f25f5)" style="fill: #348abd"/>
   </g>
   <g id="patch_33">
    <path d="M 84.53733 191.372875 
L 93.555511 191.372875 
L 93.555511 129.225783 
L 84.53733 129.225783 
z
" clip-path="url(#p4aec6f25f5)" style="fill: #348abd"/>
   </g>
   <g id="patch_34">
    <path d="M 95.810057 189.986694 
L 104.828239 189.986694 
L 104.828239 134.770505 
L 95.810057 134.770505 
z
" clip-path="url(#p4aec6f25f5)" style="fill: #348abd"/>
   </g>
   <g id="patch_35">
    <path d="M 107.082784 198.072747 
L 116.100966 198.072747 
L 116.100966 146.784069 
L 107.082784 146.784069 
z
" clip-path="url(#p4aec6f25f5)" style="fill: #348abd"/>
   </g>
   <g id="patch_36">
    <path d="M 118.355511 201.076138 
L 127.373693 201.076138 
L 127.373693 153.946002 
L 118.355511 153.946002 
z
" clip-path="url(#p4aec6f25f5)" style="fill: #348abd"/>
   </g>
   <g id="patch_37">
    <path d="M 129.628239 208.007041 
L 138.64642 208.007041 
L 138.64642 166.883686 
L 129.628239 166.883686 
z
" clip-path="url(#p4aec6f25f5)" style="fill: #348abd"/>
   </g>
   <g id="patch_38">
    <path d="M 140.900966 210.548372 
L 149.919148 210.548372 
L 149.919148 171.735318 
L 140.900966 171.735318 
z
" clip-path="url(#p4aec6f25f5)" style="fill: #348abd"/>
   </g>
   <g id="patch_39">
    <path d="M 152.173693 217.941334 
L 161.191875 217.941334 
L 161.191875 183.286822 
L 152.173693 183.286822 
z
" clip-path="url(#p4aec6f25f5)" style="fill: #348abd"/>
   </g>
   <g id="patch_40">
    <path d="M 163.44642 218.865455 
L 172.464602 218.865455 
L 172.464602 187.214333 
L 163.44642 187.214333 
z
" clip-path="url(#p4aec6f25f5)" style="fill: #348abd"/>
   </g>
   <g id="patch_41">
    <path d="M 174.719148 225.103267 
L 183.73733 225.103267 
L 183.73733 195.762446 
L 174.719148 195.762446 
z
" clip-path="url(#p4aec6f25f5)" style="fill: #348abd"/>
   </g>
   <g id="patch_42">
    <path d="M 185.991875 222.561936 
L 195.010057 222.561936 
L 195.010057 195.531416 
L 185.991875 195.531416 
z
" clip-path="url(#p4aec6f25f5)" style="fill: #348abd"/>
   </g>
   <g id="patch_43">
    <path d="M 197.264602 227.182538 
L 206.282784 227.182538 
L 206.282784 200.845108 
L 197.264602 200.845108 
z
" clip-path="url(#p4aec6f25f5)" style="fill: #348abd"/>
   </g>
   <g id="patch_44">
    <path d="M 208.53733 231.803139 
L 217.555511 231.803139 
L 217.555511 206.62086 
L 208.53733 206.62086 
z
" clip-path="url(#p4aec6f25f5)" style="fill: #348abd"/>
   </g>
   <g id="patch_45">
    <path d="M 219.810057 232.265199 
L 228.828239 232.265199 
L 228.828239 208.700131 
L 219.810057 208.700131 
z
" clip-path="url(#p4aec6f25f5)" style="fill: #348abd"/>
   </g>
   <g id="patch_46">
    <path d="M 231.082784 231.341079 
L 240.100966 231.341079 
L 240.100966 209.624251 
L 231.082784 209.624251 
z
" clip-path="url(#p4aec6f25f5)" style="fill: #348abd"/>
   </g>
   <g id="patch_47">
    <path d="M 242.355511 233.65138 
L 251.373693 233.65138 
L 251.373693 213.320733 
L 242.355511 213.320733 
z
" clip-path="url(#p4aec6f25f5)" style="fill: #348abd"/>
   </g>
   <g id="patch_48">
    <path d="M 253.628239 238.734042 
L 262.64642 238.734042 
L 262.64642 221.175755 
L 253.628239 221.175755 
z
" clip-path="url(#p4aec6f25f5)" style="fill: #348abd"/>
   </g>
   <g id="patch_49">
    <path d="M 264.900966 240.813312 
L 273.919148 240.813312 
L 273.919148 224.641207 
L 264.900966 224.641207 
z
" clip-path="url(#p4aec6f25f5)" style="fill: #348abd"/>
   </g>
   <g id="patch_50">
    <path d="M 276.173693 242.430523 
L 285.191875 242.430523 
L 285.191875 228.106658 
L 276.173693 228.106658 
z
" clip-path="url(#p4aec6f25f5)" style="fill: #348abd"/>
   </g>
   <g id="patch_51">
    <path d="M 287.44642 245.664944 
L 296.464602 245.664944 
L 296.464602 232.265199 
L 287.44642 232.265199 
z
" clip-path="url(#p4aec6f25f5)" style="fill: #348abd"/>
   </g>
   <g id="patch_52">
    <path d="M 298.719148 246.127004 
L 307.73733 246.127004 
L 307.73733 233.88241 
L 298.719148 233.88241 
z
" clip-path="url(#p4aec6f25f5)" style="fill: #348abd"/>
   </g>
   <g id="patch_53">
    <path d="M 309.991875 247.744215 
L 319.010057 247.744215 
L 319.010057 235.961681 
L 309.991875 235.961681 
z
" clip-path="url(#p4aec6f25f5)" style="fill: #348abd"/>
   </g>
   <g id="patch_54">
    <path d="M 321.264602 246.358034 
L 330.282784 246.358034 
L 330.282784 234.80653 
L 321.264602 234.80653 
z
" clip-path="url(#p4aec6f25f5)" style="fill: #348abd"/>
   </g>
   <g id="patch_55">
    <path d="M 332.53733 248.668335 
L 341.555511 248.668335 
L 341.555511 237.347861 
L 332.53733 237.347861 
z
" clip-path="url(#p4aec6f25f5)" style="fill: #348abd"/>
   </g>
   <g id="patch_56">
    <path d="M 343.810057 249.130395 
L 352.828239 249.130395 
L 352.828239 238.271982 
L 343.810057 238.271982 
z
" clip-path="url(#p4aec6f25f5)" style="fill: #348abd"/>
   </g>
   <g id="patch_57">
    <path d="M 355.082784 250.516576 
L 364.100966 250.516576 
L 364.100966 240.351252 
L 355.082784 240.351252 
z
" clip-path="url(#p4aec6f25f5)" style="fill: #348abd"/>
   </g>
   <g id="patch_58">
    <path d="M 366.355511 251.902756 
L 375.373693 251.902756 
L 375.373693 241.968463 
L 366.355511 241.968463 
z
" clip-path="url(#p4aec6f25f5)" style="fill: #348abd"/>
   </g>
   <g id="patch_59">
    <path d="M 377.628239 259.757779 
L 386.64642 259.757779 
L 386.64642 251.902756 
L 377.628239 251.902756 
z
" clip-path="url(#p4aec6f25f5)" style="fill: #348abd"/>
   </g>
   <g id="patch_60">
    <path d="M 388.900966 256.985418 
L 397.919148 256.985418 
L 397.919148 249.130395 
L 388.900966 249.130395 
z
" clip-path="url(#p4aec6f25f5)" style="fill: #348abd"/>
   </g>
   <g id="patch_61">
    <path d="M 73.264602 125.529302 
L 82.282784 125.529302 
L 82.282784 78.399165 
L 73.264602 78.399165 
z
" clip-path="url(#p4aec6f25f5)" style="fill: #988ed5"/>
   </g>
   <g id="patch_62">
    <path d="M 84.53733 129.225783 
L 93.555511 129.225783 
L 93.555511 84.868007 
L 84.53733 84.868007 
z
" clip-path="url(#p4aec6f25f5)" style="fill: #988ed5"/>
   </g>
   <g id="patch_63">
    <path d="M 95.810057 134.770505 
L 104.828239 134.770505 
L 104.828239 93.64715 
L 95.810057 93.64715 
z
" clip-path="url(#p4aec6f25f5)" style="fill: #988ed5"/>
   </g>
   <g id="patch_64">
    <path d="M 107.082784 146.784069 
L 116.100966 146.784069 
L 116.100966 109.819256 
L 107.082784 109.819256 
z
" clip-path="url(#p4aec6f25f5)" style="fill: #988ed5"/>
   </g>
   <g id="patch_65">
    <path d="M 118.355511 153.946002 
L 127.373693 153.946002 
L 127.373693 120.44664 
L 118.355511 120.44664 
z
" clip-path="url(#p4aec6f25f5)" style="fill: #988ed5"/>
   </g>
   <g id="patch_66">
    <path d="M 129.628239 166.883686 
L 138.64642 166.883686 
L 138.64642 135.694625 
L 129.628239 135.694625 
z
" clip-path="url(#p4aec6f25f5)" style="fill: #988ed5"/>
   </g>
   <g id="patch_67">
    <path d="M 140.900966 171.735318 
L 149.919148 171.735318 
L 149.919148 143.318618 
L 140.900966 143.318618 
z
" clip-path="url(#p4aec6f25f5)" style="fill: #988ed5"/>
   </g>
   <g id="patch_68">
    <path d="M 152.173693 183.286822 
L 161.191875 183.286822 
L 161.191875 158.566603 
L 152.173693 158.566603 
z
" clip-path="url(#p4aec6f25f5)" style="fill: #988ed5"/>
   </g>
   <g id="patch_69">
    <path d="M 163.44642 187.214333 
L 172.464602 187.214333 
L 172.464602 162.263085 
L 163.44642 162.263085 
z
" clip-path="url(#p4aec6f25f5)" style="fill: #988ed5"/>
   </g>
   <g id="patch_70">
    <path d="M 174.719148 195.762446 
L 183.73733 195.762446 
L 183.73733 171.966348 
L 174.719148 171.966348 
z
" clip-path="url(#p4aec6f25f5)" style="fill: #988ed5"/>
   </g>
   <g id="patch_71">
    <path d="M 185.991875 195.531416 
L 195.010057 195.531416 
L 195.010057 171.966348 
L 185.991875 171.966348 
z
" clip-path="url(#p4aec6f25f5)" style="fill: #988ed5"/>
   </g>
   <g id="patch_72">
    <path d="M 197.264602 200.845108 
L 206.282784 200.845108 
L 206.282784 177.51107 
L 197.264602 177.51107 
z
" clip-path="url(#p4aec6f25f5)" style="fill: #988ed5"/>
   </g>
   <g id="patch_73">
    <path d="M 208.53733 206.62086 
L 217.555511 206.62086 
L 217.555511 184.904033 
L 208.53733 184.904033 
z
" clip-path="url(#p4aec6f25f5)" style="fill: #988ed5"/>
   </g>
   <g id="patch_74">
    <path d="M 219.810057 208.700131 
L 228.828239 208.700131 
L 228.828239 187.676394 
L 219.810057 187.676394 
z
" clip-path="url(#p4aec6f25f5)" style="fill: #988ed5"/>
   </g>
   <g id="patch_75">
    <path d="M 231.082784 209.624251 
L 240.100966 209.624251 
L 240.100966 190.217724 
L 231.082784 190.217724 
z
" clip-path="url(#p4aec6f25f5)" style="fill: #988ed5"/>
   </g>
   <g id="patch_76">
    <path d="M 242.355511 213.320733 
L 251.373693 213.320733 
L 251.373693 194.838326 
L 242.355511 194.838326 
z
" clip-path="url(#p4aec6f25f5)" style="fill: #988ed5"/>
   </g>
   <g id="patch_77">
    <path d="M 253.628239 221.175755 
L 262.64642 221.175755 
L 262.64642 205.46571 
L 253.628239 205.46571 
z
" clip-path="url(#p4aec6f25f5)" style="fill: #988ed5"/>
   </g>
   <g id="patch_78">
    <path d="M 264.900966 224.641207 
L 273.919148 224.641207 
L 273.919148 210.086312 
L 264.900966 210.086312 
z
" clip-path="url(#p4aec6f25f5)" style="fill: #988ed5"/>
   </g>
   <g id="patch_79">
    <path d="M 276.173693 228.106658 
L 285.191875 228.106658 
L 285.191875 214.706913 
L 276.173693 214.706913 
z
" clip-path="url(#p4aec6f25f5)" style="fill: #988ed5"/>
   </g>
   <g id="patch_80">
    <path d="M 287.44642 232.265199 
L 296.464602 232.265199 
L 296.464602 220.020605 
L 287.44642 220.020605 
z
" clip-path="url(#p4aec6f25f5)" style="fill: #988ed5"/>
   </g>
   <g id="patch_81">
    <path d="M 298.719148 233.88241 
L 307.73733 233.88241 
L 307.73733 222.330906 
L 298.719148 222.330906 
z
" clip-path="url(#p4aec6f25f5)" style="fill: #988ed5"/>
   </g>
   <g id="patch_82">
    <path d="M 309.991875 235.961681 
L 319.010057 235.961681 
L 319.010057 224.410177 
L 309.991875 224.410177 
z
" clip-path="url(#p4aec6f25f5)" style="fill: #988ed5"/>
   </g>
   <g id="patch_83">
    <path d="M 321.264602 234.80653 
L 330.282784 234.80653 
L 330.282784 223.717086 
L 321.264602 223.717086 
z
" clip-path="url(#p4aec6f25f5)" style="fill: #988ed5"/>
   </g>
   <g id="patch_84">
    <path d="M 332.53733 237.347861 
L 341.555511 237.347861 
L 341.555511 226.951508 
L 332.53733 226.951508 
z
" clip-path="url(#p4aec6f25f5)" style="fill: #988ed5"/>
   </g>
   <g id="patch_85">
    <path d="M 343.810057 238.271982 
L 352.828239 238.271982 
L 352.828239 228.106658 
L 343.810057 228.106658 
z
" clip-path="url(#p4aec6f25f5)" style="fill: #988ed5"/>
   </g>
   <g id="patch_86">
    <path d="M 355.082784 240.351252 
L 364.100966 240.351252 
L 364.100966 230.185929 
L 355.082784 230.185929 
z
" clip-path="url(#p4aec6f25f5)" style="fill: #988ed5"/>
   </g>
   <g id="patch_87">
    <path d="M 366.355511 241.968463 
L 375.373693 241.968463 
L 375.373693 231.572109 
L 366.355511 231.572109 
z
" clip-path="url(#p4aec6f25f5)" style="fill: #988ed5"/>
   </g>
   <g id="patch_88">
    <path d="M 377.628239 251.902756 
L 386.64642 251.902756 
L 386.64642 244.047734 
L 377.628239 244.047734 
z
" clip-path="url(#p4aec6f25f5)" style="fill: #988ed5"/>
   </g>
   <g id="patch_89">
    <path d="M 388.900966 249.130395 
L 397.919148 249.130395 
L 397.919148 240.351252 
L 388.900966 240.351252 
z
" clip-path="url(#p4aec6f25f5)" style="fill: #988ed5"/>
   </g>
   <g id="patch_90">
    <path d="M 73.264602 78.399165 
L 82.282784 78.399165 
L 82.282784 45.130833 
L 73.264602 45.130833 
z
" clip-path="url(#p4aec6f25f5)" style="fill: #777777"/>
   </g>
   <g id="patch_91">
    <path d="M 84.53733 84.868007 
L 93.555511 84.868007 
L 93.555511 45.361863 
L 84.53733 45.361863 
z
" clip-path="url(#p4aec6f25f5)" style="fill: #777777"/>
   </g>
   <g id="patch_92">
    <path d="M 95.810057 93.64715 
L 104.828239 93.64715 
L 104.828239 55.527187 
L 95.810057 55.527187 
z
" clip-path="url(#p4aec6f25f5)" style="fill: #777777"/>
   </g>
   <g id="patch_93">
    <path d="M 107.082784 109.819256 
L 116.100966 109.819256 
L 116.100966 75.857834 
L 107.082784 75.857834 
z
" clip-path="url(#p4aec6f25f5)" style="fill: #777777"/>
   </g>
   <g id="patch_94">
    <path d="M 118.355511 120.44664 
L 127.373693 120.44664 
L 127.373693 89.719639 
L 118.355511 89.719639 
z
" clip-path="url(#p4aec6f25f5)" style="fill: #777777"/>
   </g>
   <g id="patch_95">
    <path d="M 129.628239 135.694625 
L 138.64642 135.694625 
L 138.64642 106.353805 
L 129.628239 106.353805 
z
" clip-path="url(#p4aec6f25f5)" style="fill: #777777"/>
   </g>
   <g id="patch_96">
    <path d="M 140.900966 143.318618 
L 149.919148 143.318618 
L 149.919148 115.826038 
L 140.900966 115.826038 
z
" clip-path="url(#p4aec6f25f5)" style="fill: #777777"/>
   </g>
   <g id="patch_97">
    <path d="M 152.173693 158.566603 
L 161.191875 158.566603 
L 161.191875 133.153294 
L 152.173693 133.153294 
z
" clip-path="url(#p4aec6f25f5)" style="fill: #777777"/>
   </g>
   <g id="patch_98">
    <path d="M 163.44642 162.263085 
L 172.464602 162.263085 
L 172.464602 137.542866 
L 163.44642 137.542866 
z
" clip-path="url(#p4aec6f25f5)" style="fill: #777777"/>
   </g>
   <g id="patch_99">
    <path d="M 174.719148 171.966348 
L 183.73733 171.966348 
L 183.73733 151.866731 
L 174.719148 151.866731 
z
" clip-path="url(#p4aec6f25f5)" style="fill: #777777"/>
   </g>
   <g id="patch_100">
    <path d="M 185.991875 171.966348 
L 195.010057 171.966348 
L 195.010057 152.790851 
L 185.991875 152.790851 
z
" clip-path="url(#p4aec6f25f5)" style="fill: #777777"/>
   </g>
   <g id="patch_101">
    <path d="M 197.264602 177.51107 
L 206.282784 177.51107 
L 206.282784 160.876904 
L 197.264602 160.876904 
z
" clip-path="url(#p4aec6f25f5)" style="fill: #777777"/>
   </g>
   <g id="patch_102">
    <path d="M 208.53733 184.904033 
L 217.555511 184.904033 
L 217.555511 168.731927 
L 208.53733 168.731927 
z
" clip-path="url(#p4aec6f25f5)" style="fill: #777777"/>
   </g>
   <g id="patch_103">
    <path d="M 219.810057 187.676394 
L 228.828239 187.676394 
L 228.828239 170.349137 
L 219.810057 170.349137 
z
" clip-path="url(#p4aec6f25f5)" style="fill: #777777"/>
   </g>
   <g id="patch_104">
    <path d="M 231.082784 190.217724 
L 240.100966 190.217724 
L 240.100966 176.58695 
L 231.082784 176.58695 
z
" clip-path="url(#p4aec6f25f5)" style="fill: #777777"/>
   </g>
   <g id="patch_105">
    <path d="M 242.355511 194.838326 
L 251.373693 194.838326 
L 251.373693 180.745491 
L 242.355511 180.745491 
z
" clip-path="url(#p4aec6f25f5)" style="fill: #777777"/>
   </g>
   <g id="patch_106">
    <path d="M 253.628239 205.46571 
L 262.64642 205.46571 
L 262.64642 195.069356 
L 253.628239 195.069356 
z
" clip-path="url(#p4aec6f25f5)" style="fill: #777777"/>
   </g>
   <g id="patch_107">
    <path d="M 264.900966 210.086312 
L 273.919148 210.086312 
L 273.919148 194.376266 
L 264.900966 194.376266 
z
" clip-path="url(#p4aec6f25f5)" style="fill: #777777"/>
   </g>
   <g id="patch_108">
    <path d="M 276.173693 214.706913 
L 285.191875 214.706913 
L 285.191875 201.307168 
L 276.173693 201.307168 
z
" clip-path="url(#p4aec6f25f5)" style="fill: #777777"/>
   </g>
   <g id="patch_109">
    <path d="M 287.44642 220.020605 
L 296.464602 220.020605 
L 296.464602 206.62086 
L 287.44642 206.62086 
z
" clip-path="url(#p4aec6f25f5)" style="fill: #777777"/>
   </g>
   <g id="patch_110">
    <path d="M 298.719148 222.330906 
L 307.73733 222.330906 
L 307.73733 210.086312 
L 298.719148 210.086312 
z
" clip-path="url(#p4aec6f25f5)" style="fill: #777777"/>
   </g>
   <g id="patch_111">
    <path d="M 309.991875 224.410177 
L 319.010057 224.410177 
L 319.010057 212.858673 
L 309.991875 212.858673 
z
" clip-path="url(#p4aec6f25f5)" style="fill: #777777"/>
   </g>
   <g id="patch_112">
    <path d="M 321.264602 223.717086 
L 330.282784 223.717086 
L 330.282784 209.624251 
L 321.264602 209.624251 
z
" clip-path="url(#p4aec6f25f5)" style="fill: #777777"/>
   </g>
   <g id="patch_113">
    <path d="M 332.53733 226.951508 
L 341.555511 226.951508 
L 341.555511 216.324124 
L 332.53733 216.324124 
z
" clip-path="url(#p4aec6f25f5)" style="fill: #777777"/>
   </g>
   <g id="patch_114">
    <path d="M 343.810057 228.106658 
L 352.828239 228.106658 
L 352.828239 219.096485 
L 343.810057 219.096485 
z
" clip-path="url(#p4aec6f25f5)" style="fill: #777777"/>
   </g>
   <g id="patch_115">
    <path d="M 355.082784 230.185929 
L 364.100966 230.185929 
L 364.100966 220.251635 
L 355.082784 220.251635 
z
" clip-path="url(#p4aec6f25f5)" style="fill: #777777"/>
   </g>
   <g id="patch_116">
    <path d="M 366.355511 231.572109 
L 375.373693 231.572109 
L 375.373693 223.948116 
L 366.355511 223.948116 
z
" clip-path="url(#p4aec6f25f5)" style="fill: #777777"/>
   </g>
   <g id="patch_117">
    <path d="M 377.628239 244.047734 
L 386.64642 244.047734 
L 386.64642 236.885801 
L 377.628239 236.885801 
z
" clip-path="url(#p4aec6f25f5)" style="fill: #777777"/>
   </g>
   <g id="patch_118">
    <path d="M 388.900966 240.351252 
L 397.919148 240.351252 
L 397.919148 232.265199 
L 388.900966 232.265199 
z
" clip-path="url(#p4aec6f25f5)" style="fill: #777777"/>
   </g>
   <g id="patch_119">
    <path d="M 73.264602 45.130833 
L 82.282784 45.130833 
L 82.282784 36.81375 
L 73.264602 36.81375 
z
" clip-path="url(#p4aec6f25f5)" style="fill: #fbc15e"/>
   </g>
   <g id="patch_120">
    <path d="M 84.53733 45.361863 
L 93.555511 45.361863 
L 93.555511 37.50684 
L 84.53733 37.50684 
z
" clip-path="url(#p4aec6f25f5)" style="fill: #fbc15e"/>
   </g>
   <g id="patch_121">
    <path d="M 95.810057 55.527187 
L 104.828239 55.527187 
L 104.828239 48.365254 
L 95.810057 48.365254 
z
" clip-path="url(#p4aec6f25f5)" style="fill: #fbc15e"/>
   </g>
   <g id="patch_122">
    <path d="M 107.082784 75.857834 
L 116.100966 75.857834 
L 116.100966 69.388992 
L 107.082784 69.388992 
z
" clip-path="url(#p4aec6f25f5)" style="fill: #fbc15e"/>
   </g>
   <g id="patch_123">
    <path d="M 118.355511 89.719639 
L 127.373693 89.719639 
L 127.373693 83.943887 
L 118.355511 83.943887 
z
" clip-path="url(#p4aec6f25f5)" style="fill: #fbc15e"/>
   </g>
   <g id="patch_124">
    <path d="M 129.628239 106.353805 
L 138.64642 106.353805 
L 138.64642 101.040113 
L 129.628239 101.040113 
z
" clip-path="url(#p4aec6f25f5)" style="fill: #fbc15e"/>
   </g>
   <g id="patch_125">
    <path d="M 140.900966 115.826038 
L 149.919148 115.826038 
L 149.919148 110.743376 
L 140.900966 110.743376 
z
" clip-path="url(#p4aec6f25f5)" style="fill: #fbc15e"/>
   </g>
   <g id="patch_126">
    <path d="M 152.173693 133.153294 
L 161.191875 133.153294 
L 161.191875 128.763723 
L 152.173693 128.763723 
z
" clip-path="url(#p4aec6f25f5)" style="fill: #fbc15e"/>
   </g>
   <g id="patch_127">
    <path d="M 163.44642 137.542866 
L 172.464602 137.542866 
L 172.464602 133.615354 
L 163.44642 133.615354 
z
" clip-path="url(#p4aec6f25f5)" style="fill: #fbc15e"/>
   </g>
   <g id="patch_128">
    <path d="M 174.719148 151.866731 
L 183.73733 151.866731 
L 183.73733 148.17025 
L 174.719148 148.17025 
z
" clip-path="url(#p4aec6f25f5)" style="fill: #fbc15e"/>
   </g>
   <g id="patch_129">
    <path d="M 185.991875 152.790851 
L 195.010057 152.790851 
L 195.010057 149.55643 
L 185.991875 149.55643 
z
" clip-path="url(#p4aec6f25f5)" style="fill: #fbc15e"/>
   </g>
   <g id="patch_130">
    <path d="M 197.264602 160.876904 
L 206.282784 160.876904 
L 206.282784 157.873513 
L 197.264602 157.873513 
z
" clip-path="url(#p4aec6f25f5)" style="fill: #fbc15e"/>
   </g>
   <g id="patch_131">
    <path d="M 208.53733 168.731927 
L 217.555511 168.731927 
L 217.555511 165.728536 
L 208.53733 165.728536 
z
" clip-path="url(#p4aec6f25f5)" style="fill: #fbc15e"/>
   </g>
   <g id="patch_132">
    <path d="M 219.810057 170.349137 
L 228.828239 170.349137 
L 228.828239 167.576776 
L 219.810057 167.576776 
z
" clip-path="url(#p4aec6f25f5)" style="fill: #fbc15e"/>
   </g>
   <g id="patch_133">
    <path d="M 231.082784 176.58695 
L 240.100966 176.58695 
L 240.100966 174.045619 
L 231.082784 174.045619 
z
" clip-path="url(#p4aec6f25f5)" style="fill: #fbc15e"/>
   </g>
   <g id="patch_134">
    <path d="M 242.355511 180.745491 
L 251.373693 180.745491 
L 251.373693 178.20416 
L 242.355511 178.20416 
z
" clip-path="url(#p4aec6f25f5)" style="fill: #fbc15e"/>
   </g>
   <g id="patch_135">
    <path d="M 253.628239 195.069356 
L 262.64642 195.069356 
L 262.64642 192.990085 
L 253.628239 192.990085 
z
" clip-path="url(#p4aec6f25f5)" style="fill: #fbc15e"/>
   </g>
   <g id="patch_136">
    <path d="M 264.900966 194.376266 
L 273.919148 194.376266 
L 273.919148 192.296995 
L 264.900966 192.296995 
z
" clip-path="url(#p4aec6f25f5)" style="fill: #fbc15e"/>
   </g>
   <g id="patch_137">
    <path d="M 276.173693 201.307168 
L 285.191875 201.307168 
L 285.191875 199.458928 
L 276.173693 199.458928 
z
" clip-path="url(#p4aec6f25f5)" style="fill: #fbc15e"/>
   </g>
   <g id="patch_138">
    <path d="M 287.44642 206.62086 
L 296.464602 206.62086 
L 296.464602 204.77262 
L 287.44642 204.77262 
z
" clip-path="url(#p4aec6f25f5)" style="fill: #fbc15e"/>
   </g>
   <g id="patch_139">
    <path d="M 298.719148 210.086312 
L 307.73733 210.086312 
L 307.73733 208.469101 
L 298.719148 208.469101 
z
" clip-path="url(#p4aec6f25f5)" style="fill: #fbc15e"/>
   </g>
   <g id="patch_140">
    <path d="M 309.991875 212.858673 
L 319.010057 212.858673 
L 319.010057 211.472492 
L 309.991875 211.472492 
z
" clip-path="url(#p4aec6f25f5)" style="fill: #fbc15e"/>
   </g>
   <g id="patch_141">
    <path d="M 321.264602 209.624251 
L 330.282784 209.624251 
L 330.282784 208.238071 
L 321.264602 208.238071 
z
" clip-path="url(#p4aec6f25f5)" style="fill: #fbc15e"/>
   </g>
   <g id="patch_142">
    <path d="M 332.53733 216.324124 
L 341.555511 216.324124 
L 341.555511 214.937943 
L 332.53733 214.937943 
z
" clip-path="url(#p4aec6f25f5)" style="fill: #fbc15e"/>
   </g>
   <g id="patch_143">
    <path d="M 343.810057 219.096485 
L 352.828239 219.096485 
L 352.828239 217.941334 
L 343.810057 217.941334 
z
" clip-path="url(#p4aec6f25f5)" style="fill: #fbc15e"/>
   </g>
   <g id="patch_144">
    <path d="M 355.082784 220.251635 
L 364.100966 220.251635 
L 364.100966 219.096485 
L 355.082784 219.096485 
z
" clip-path="url(#p4aec6f25f5)" style="fill: #fbc15e"/>
   </g>
   <g id="patch_145">
    <path d="M 366.355511 223.948116 
L 375.373693 223.948116 
L 375.373693 222.792966 
L 366.355511 222.792966 
z
" clip-path="url(#p4aec6f25f5)" style="fill: #fbc15e"/>
   </g>
   <g id="patch_146">
    <path d="M 377.628239 236.885801 
L 386.64642 236.885801 
L 386.64642 235.961681 
L 377.628239 235.961681 
z
" clip-path="url(#p4aec6f25f5)" style="fill: #fbc15e"/>
   </g>
   <g id="patch_147">
    <path d="M 388.900966 232.265199 
L 397.919148 232.265199 
L 397.919148 231.341079 
L 388.900966 231.341079 
z
" clip-path="url(#p4aec6f25f5)" style="fill: #fbc15e"/>
   </g>
   <g id="patch_148">
    <path d="M 57.031875 290.25375 
L 57.031875 24.14175 
" style="fill: none; stroke: #ffffff; stroke-linejoin: miter; stroke-linecap: square"/>
   </g>
   <g id="patch_149">
    <path d="M 414.151875 290.25375 
L 414.151875 24.14175 
" style="fill: none; stroke: #ffffff; stroke-linejoin: miter; stroke-linecap: square"/>
   </g>
   <g id="patch_150">
    <path d="M 57.031875 290.25375 
L 414.151875 290.25375 
" style="fill: none; stroke: #ffffff; stroke-linejoin: miter; stroke-linecap: square"/>
   </g>
   <g id="patch_151">
    <path d="M 57.031875 24.14175 
L 414.151875 24.14175 
" style="fill: none; stroke: #ffffff; stroke-linejoin: miter; stroke-linecap: square"/>
   </g>
   <g id="text_15">
    <!-- TB Incidence Rates by Race and Ethnicity in the US, 1993-2021 -->
    <g transform="translate(7.2 18.14175) scale(0.144 -0.144)">
     <defs>
      <path id="DejaVuSans-54" d="M -19 4666 
L 3928 4666 
L 3928 4134 
L 2272 4134 
L 2272 0 
L 1638 0 
L 1638 4134 
L -19 4134 
L -19 4666 
z
" transform="scale(0.015625)"/>
      <path id="DejaVuSans-42" d="M 1259 2228 
L 1259 519 
L 2272 519 
Q 2781 519 3026 730 
Q 3272 941 3272 1375 
Q 3272 1813 3026 2020 
Q 2781 2228 2272 2228 
L 1259 2228 
z
M 1259 4147 
L 1259 2741 
L 2194 2741 
Q 2656 2741 2882 2914 
Q 3109 3088 3109 3444 
Q 3109 3797 2882 3972 
Q 2656 4147 2194 4147 
L 1259 4147 
z
M 628 4666 
L 2241 4666 
Q 2963 4666 3353 4366 
Q 3744 4066 3744 3513 
Q 3744 3084 3544 2831 
Q 3344 2578 2956 2516 
Q 3422 2416 3680 2098 
Q 3938 1781 3938 1306 
Q 3938 681 3513 340 
Q 3088 0 2303 0 
L 628 0 
L 628 4666 
z
" transform="scale(0.015625)"/>
      <path id="DejaVuSans-20" transform="scale(0.015625)"/>
      <path id="DejaVuSans-49" d="M 628 4666 
L 1259 4666 
L 1259 0 
L 628 0 
L 628 4666 
z
" transform="scale(0.015625)"/>
      <path id="DejaVuSans-6e" d="M 3513 2113 
L 3513 0 
L 2938 0 
L 2938 2094 
Q 2938 2591 2744 2837 
Q 2550 3084 2163 3084 
Q 1697 3084 1428 2787 
Q 1159 2491 1159 1978 
L 1159 0 
L 581 0 
L 581 3500 
L 1159 3500 
L 1159 2956 
Q 1366 3272 1645 3428 
Q 1925 3584 2291 3584 
Q 2894 3584 3203 3211 
Q 3513 2838 3513 2113 
z
" transform="scale(0.015625)"/>
      <path id="DejaVuSans-63" d="M 3122 3366 
L 3122 2828 
Q 2878 2963 2633 3030 
Q 2388 3097 2138 3097 
Q 1578 3097 1268 2742 
Q 959 2388 959 1747 
Q 959 1106 1268 751 
Q 1578 397 2138 397 
Q 2388 397 2633 464 
Q 2878 531 3122 666 
L 3122 134 
Q 2881 22 2623 -34 
Q 2366 -91 2075 -91 
Q 1284 -91 818 406 
Q 353 903 353 1747 
Q 353 2603 823 3093 
Q 1294 3584 2113 3584 
Q 2378 3584 2631 3529 
Q 2884 3475 3122 3366 
z
" transform="scale(0.015625)"/>
      <path id="DejaVuSans-69" d="M 603 3500 
L 1178 3500 
L 1178 0 
L 603 0 
L 603 3500 
z
M 603 4863 
L 1178 4863 
L 1178 4134 
L 603 4134 
L 603 4863 
z
" transform="scale(0.015625)"/>
      <path id="DejaVuSans-64" d="M 2906 2969 
L 2906 4863 
L 3481 4863 
L 3481 0 
L 2906 0 
L 2906 525 
Q 2725 213 2448 61 
Q 2172 -91 1784 -91 
Q 1150 -91 751 415 
Q 353 922 353 1747 
Q 353 2572 751 3078 
Q 1150 3584 1784 3584 
Q 2172 3584 2448 3432 
Q 2725 3281 2906 2969 
z
M 947 1747 
Q 947 1113 1208 752 
Q 1469 391 1925 391 
Q 2381 391 2643 752 
Q 2906 1113 2906 1747 
Q 2906 2381 2643 2742 
Q 2381 3103 1925 3103 
Q 1469 3103 1208 2742 
Q 947 2381 947 1747 
z
" transform="scale(0.015625)"/>
      <path id="DejaVuSans-73" d="M 2834 3397 
L 2834 2853 
Q 2591 2978 2328 3040 
Q 2066 3103 1784 3103 
Q 1356 3103 1142 2972 
Q 928 2841 928 2578 
Q 928 2378 1081 2264 
Q 1234 2150 1697 2047 
L 1894 2003 
Q 2506 1872 2764 1633 
Q 3022 1394 3022 966 
Q 3022 478 2636 193 
Q 2250 -91 1575 -91 
Q 1294 -91 989 -36 
Q 684 19 347 128 
L 347 722 
Q 666 556 975 473 
Q 1284 391 1588 391 
Q 1994 391 2212 530 
Q 2431 669 2431 922 
Q 2431 1156 2273 1281 
Q 2116 1406 1581 1522 
L 1381 1569 
Q 847 1681 609 1914 
Q 372 2147 372 2553 
Q 372 3047 722 3315 
Q 1072 3584 1716 3584 
Q 2034 3584 2315 3537 
Q 2597 3491 2834 3397 
z
" transform="scale(0.015625)"/>
      <path id="DejaVuSans-62" d="M 3116 1747 
Q 3116 2381 2855 2742 
Q 2594 3103 2138 3103 
Q 1681 3103 1420 2742 
Q 1159 2381 1159 1747 
Q 1159 1113 1420 752 
Q 1681 391 2138 391 
Q 2594 391 2855 752 
Q 3116 1113 3116 1747 
z
M 1159 2969 
Q 1341 3281 1617 3432 
Q 1894 3584 2278 3584 
Q 2916 3584 3314 3078 
Q 3713 2572 3713 1747 
Q 3713 922 3314 415 
Q 2916 -91 2278 -91 
Q 1894 -91 1617 61 
Q 1341 213 1159 525 
L 1159 0 
L 581 0 
L 581 4863 
L 1159 4863 
L 1159 2969 
z
" transform="scale(0.015625)"/>
      <path id="DejaVuSans-79" d="M 2059 -325 
Q 1816 -950 1584 -1140 
Q 1353 -1331 966 -1331 
L 506 -1331 
L 506 -850 
L 844 -850 
Q 1081 -850 1212 -737 
Q 1344 -625 1503 -206 
L 1606 56 
L 191 3500 
L 800 3500 
L 1894 763 
L 2988 3500 
L 3597 3500 
L 2059 -325 
z
" transform="scale(0.015625)"/>
      <path id="DejaVuSans-45" d="M 628 4666 
L 3578 4666 
L 3578 4134 
L 1259 4134 
L 1259 2753 
L 3481 2753 
L 3481 2222 
L 1259 2222 
L 1259 531 
L 3634 531 
L 3634 0 
L 628 0 
L 628 4666 
z
" transform="scale(0.015625)"/>
      <path id="DejaVuSans-68" d="M 3513 2113 
L 3513 0 
L 2938 0 
L 2938 2094 
Q 2938 2591 2744 2837 
Q 2550 3084 2163 3084 
Q 1697 3084 1428 2787 
Q 1159 2491 1159 1978 
L 1159 0 
L 581 0 
L 581 4863 
L 1159 4863 
L 1159 2956 
Q 1366 3272 1645 3428 
Q 1925 3584 2291 3584 
Q 2894 3584 3203 3211 
Q 3513 2838 3513 2113 
z
" transform="scale(0.015625)"/>
      <path id="DejaVuSans-55" d="M 556 4666 
L 1191 4666 
L 1191 1831 
Q 1191 1081 1462 751 
Q 1734 422 2344 422 
Q 2950 422 3222 751 
Q 3494 1081 3494 1831 
L 3494 4666 
L 4128 4666 
L 4128 1753 
Q 4128 841 3676 375 
Q 3225 -91 2344 -91 
Q 1459 -91 1007 375 
Q 556 841 556 1753 
L 556 4666 
z
" transform="scale(0.015625)"/>
      <path id="DejaVuSans-53" d="M 3425 4513 
L 3425 3897 
Q 3066 4069 2747 4153 
Q 2428 4238 2131 4238 
Q 1616 4238 1336 4038 
Q 1056 3838 1056 3469 
Q 1056 3159 1242 3001 
Q 1428 2844 1947 2747 
L 2328 2669 
Q 3034 2534 3370 2195 
Q 3706 1856 3706 1288 
Q 3706 609 3251 259 
Q 2797 -91 1919 -91 
Q 1588 -91 1214 -16 
Q 841 59 441 206 
L 441 856 
Q 825 641 1194 531 
Q 1563 422 1919 422 
Q 2459 422 2753 634 
Q 3047 847 3047 1241 
Q 3047 1584 2836 1778 
Q 2625 1972 2144 2069 
L 1759 2144 
Q 1053 2284 737 2584 
Q 422 2884 422 3419 
Q 422 4038 858 4394 
Q 1294 4750 2059 4750 
Q 2388 4750 2728 4690 
Q 3069 4631 3425 4513 
z
" transform="scale(0.015625)"/>
      <path id="DejaVuSans-2c" d="M 750 794 
L 1409 794 
L 1409 256 
L 897 -744 
L 494 -744 
L 750 256 
L 750 794 
z
" transform="scale(0.015625)"/>
      <path id="DejaVuSans-33" d="M 2597 2516 
Q 3050 2419 3304 2112 
Q 3559 1806 3559 1356 
Q 3559 666 3084 287 
Q 2609 -91 1734 -91 
Q 1441 -91 1130 -33 
Q 819 25 488 141 
L 488 750 
Q 750 597 1062 519 
Q 1375 441 1716 441 
Q 2309 441 2620 675 
Q 2931 909 2931 1356 
Q 2931 1769 2642 2001 
Q 2353 2234 1838 2234 
L 1294 2234 
L 1294 2753 
L 1863 2753 
Q 2328 2753 2575 2939 
Q 2822 3125 2822 3475 
Q 2822 3834 2567 4026 
Q 2313 4219 1838 4219 
Q 1578 4219 1281 4162 
Q 984 4106 628 3988 
L 628 4550 
Q 988 4650 1302 4700 
Q 1616 4750 1894 4750 
Q 2613 4750 3031 4423 
Q 3450 4097 3450 3541 
Q 3450 3153 3228 2886 
Q 3006 2619 2597 2516 
z
" transform="scale(0.015625)"/>
      <path id="DejaVuSans-2d" d="M 313 2009 
L 1997 2009 
L 1997 1497 
L 313 1497 
L 313 2009 
z
" transform="scale(0.015625)"/>
     </defs>
     <use xlink:href="#DejaVuSans-54"/>
     <use xlink:href="#DejaVuSans-42" x="61.083984"/>
     <use xlink:href="#DejaVuSans-20" x="129.6875"/>
     <use xlink:href="#DejaVuSans-49" x="161.474609"/>
     <use xlink:href="#DejaVuSans-6e" x="190.966797"/>
     <use xlink:href="#DejaVuSans-63" x="254.345703"/>
     <use xlink:href="#DejaVuSans-69" x="309.326172"/>
     <use xlink:href="#DejaVuSans-64" x="337.109375"/>
     <use xlink:href="#DejaVuSans-65" x="400.585938"/>
     <use xlink:href="#DejaVuSans-6e" x="462.109375"/>
     <use xlink:href="#DejaVuSans-63" x="525.488281"/>
     <use xlink:href="#DejaVuSans-65" x="580.46875"/>
     <use xlink:href="#DejaVuSans-20" x="641.992188"/>
     <use xlink:href="#DejaVuSans-52" x="673.779297"/>
     <use xlink:href="#DejaVuSans-61" x="741.011719"/>
     <use xlink:href="#DejaVuSans-74" x="802.291016"/>
     <use xlink:href="#DejaVuSans-65" x="841.5"/>
     <use xlink:href="#DejaVuSans-73" x="903.023438"/>
     <use xlink:href="#DejaVuSans-20" x="955.123047"/>
     <use xlink:href="#DejaVuSans-62" x="986.910156"/>
     <use xlink:href="#DejaVuSans-79" x="1050.386719"/>
     <use xlink:href="#DejaVuSans-20" x="1109.566406"/>
     <use xlink:href="#DejaVuSans-52" x="1141.353516"/>
     <use xlink:href="#DejaVuSans-61" x="1208.585938"/>
     <use xlink:href="#DejaVuSans-63" x="1269.865234"/>
     <use xlink:href="#DejaVuSans-65" x="1324.845703"/>
     <use xlink:href="#DejaVuSans-20" x="1386.369141"/>
     <use xlink:href="#DejaVuSans-61" x="1418.15625"/>
     <use xlink:href="#DejaVuSans-6e" x="1479.435547"/>
     <use xlink:href="#DejaVuSans-64" x="1542.814453"/>
     <use xlink:href="#DejaVuSans-20" x="1606.291016"/>
     <use xlink:href="#DejaVuSans-45" x="1638.078125"/>
     <use xlink:href="#DejaVuSans-74" x="1701.261719"/>
     <use xlink:href="#DejaVuSans-68" x="1740.470703"/>
     <use xlink:href="#DejaVuSans-6e" x="1803.849609"/>
     <use xlink:href="#DejaVuSans-69" x="1867.228516"/>
     <use xlink:href="#DejaVuSans-63" x="1895.011719"/>
     <use xlink:href="#DejaVuSans-69" x="1949.992188"/>
     <use xlink:href="#DejaVuSans-74" x="1977.775391"/>
     <use xlink:href="#DejaVuSans-79" x="2016.984375"/>
     <use xlink:href="#DejaVuSans-20" x="2076.164062"/>
     <use xlink:href="#DejaVuSans-69" x="2107.951172"/>
     <use xlink:href="#DejaVuSans-6e" x="2135.734375"/>
     <use xlink:href="#DejaVuSans-20" x="2199.113281"/>
     <use xlink:href="#DejaVuSans-74" x="2230.900391"/>
     <use xlink:href="#DejaVuSans-68" x="2270.109375"/>
     <use xlink:href="#DejaVuSans-65" x="2333.488281"/>
     <use xlink:href="#DejaVuSans-20" x="2395.011719"/>
     <use xlink:href="#DejaVuSans-55" x="2426.798828"/>
     <use xlink:href="#DejaVuSans-53" x="2499.992188"/>
     <use xlink:href="#DejaVuSans-2c" x="2563.46875"/>
     <use xlink:href="#DejaVuSans-20" x="2595.255859"/>
     <use xlink:href="#DejaVuSans-31" x="2627.042969"/>
     <use xlink:href="#DejaVuSans-39" x="2690.666016"/>
     <use xlink:href="#DejaVuSans-39" x="2754.289062"/>
     <use xlink:href="#DejaVuSans-33" x="2817.912109"/>
     <use xlink:href="#DejaVuSans-2d" x="2881.535156"/>
     <use xlink:href="#DejaVuSans-32" x="2917.619141"/>
     <use xlink:href="#DejaVuSans-30" x="2981.242188"/>
     <use xlink:href="#DejaVuSans-32" x="3044.865234"/>
     <use xlink:href="#DejaVuSans-31" x="3108.488281"/>
    </g>
   </g>
   <g id="legend_1">
    <g id="patch_152">
     <path d="M 320.233125 105.532375 
L 407.151875 105.532375 
Q 409.151875 105.532375 409.151875 103.532375 
L 409.151875 31.14175 
Q 409.151875 29.14175 407.151875 29.14175 
L 320.233125 29.14175 
Q 318.233125 29.14175 318.233125 31.14175 
L 318.233125 103.532375 
Q 318.233125 105.532375 320.233125 105.532375 
z
" style="fill: #e5e5e5; opacity: 0.8; stroke: #cccccc; stroke-width: 0.5; stroke-linejoin: miter"/>
    </g>
    <g id="patch_153">
     <path d="M 322.233125 40.740187 
L 342.233125 40.740187 
L 342.233125 33.740187 
L 322.233125 33.740187 
z
" style="fill: #e24a33"/>
    </g>
    <g id="text_16">
     <!-- Asian -->
     <g transform="translate(350.233125 40.740187) scale(0.1 -0.1)">
      <defs>
       <path id="DejaVuSans-41" d="M 2188 4044 
L 1331 1722 
L 3047 1722 
L 2188 4044 
z
M 1831 4666 
L 2547 4666 
L 4325 0 
L 3669 0 
L 3244 1197 
L 1141 1197 
L 716 0 
L 50 0 
L 1831 4666 
z
" transform="scale(0.015625)"/>
      </defs>
      <use xlink:href="#DejaVuSans-41"/>
      <use xlink:href="#DejaVuSans-73" x="68.408203"/>
      <use xlink:href="#DejaVuSans-69" x="120.507812"/>
      <use xlink:href="#DejaVuSans-61" x="148.291016"/>
      <use xlink:href="#DejaVuSans-6e" x="209.570312"/>
     </g>
    </g>
    <g id="patch_154">
     <path d="M 322.233125 55.418312 
L 342.233125 55.418312 
L 342.233125 48.418312 
L 322.233125 48.418312 
z
" style="fill: #348abd"/>
    </g>
    <g id="text_17">
     <!-- Black -->
     <g transform="translate(350.233125 55.418312) scale(0.1 -0.1)">
      <defs>
       <path id="DejaVuSans-6c" d="M 603 4863 
L 1178 4863 
L 1178 0 
L 603 0 
L 603 4863 
z
" transform="scale(0.015625)"/>
       <path id="DejaVuSans-6b" d="M 581 4863 
L 1159 4863 
L 1159 1991 
L 2875 3500 
L 3609 3500 
L 1753 1863 
L 3688 0 
L 2938 0 
L 1159 1709 
L 1159 0 
L 581 0 
L 581 4863 
z
" transform="scale(0.015625)"/>
      </defs>
      <use xlink:href="#DejaVuSans-42"/>
      <use xlink:href="#DejaVuSans-6c" x="68.603516"/>
      <use xlink:href="#DejaVuSans-61" x="96.386719"/>
      <use xlink:href="#DejaVuSans-63" x="157.666016"/>
      <use xlink:href="#DejaVuSans-6b" x="212.646484"/>
     </g>
    </g>
    <g id="patch_155">
     <path d="M 322.233125 70.096437 
L 342.233125 70.096437 
L 342.233125 63.096437 
L 322.233125 63.096437 
z
" style="fill: #988ed5"/>
    </g>
    <g id="text_18">
     <!-- Hispanic -->
     <g transform="translate(350.233125 70.096437) scale(0.1 -0.1)">
      <defs>
       <path id="DejaVuSans-48" d="M 628 4666 
L 1259 4666 
L 1259 2753 
L 3553 2753 
L 3553 4666 
L 4184 4666 
L 4184 0 
L 3553 0 
L 3553 2222 
L 1259 2222 
L 1259 0 
L 628 0 
L 628 4666 
z
" transform="scale(0.015625)"/>
       <path id="DejaVuSans-70" d="M 1159 525 
L 1159 -1331 
L 581 -1331 
L 581 3500 
L 1159 3500 
L 1159 2969 
Q 1341 3281 1617 3432 
Q 1894 3584 2278 3584 
Q 2916 3584 3314 3078 
Q 3713 2572 3713 1747 
Q 3713 922 3314 415 
Q 2916 -91 2278 -91 
Q 1894 -91 1617 61 
Q 1341 213 1159 525 
z
M 3116 1747 
Q 3116 2381 2855 2742 
Q 2594 3103 2138 3103 
Q 1681 3103 1420 2742 
Q 1159 2381 1159 1747 
Q 1159 1113 1420 752 
Q 1681 391 2138 391 
Q 2594 391 2855 752 
Q 3116 1113 3116 1747 
z
" transform="scale(0.015625)"/>
      </defs>
      <use xlink:href="#DejaVuSans-48"/>
      <use xlink:href="#DejaVuSans-69" x="75.195312"/>
      <use xlink:href="#DejaVuSans-73" x="102.978516"/>
      <use xlink:href="#DejaVuSans-70" x="155.078125"/>
      <use xlink:href="#DejaVuSans-61" x="218.554688"/>
      <use xlink:href="#DejaVuSans-6e" x="279.833984"/>
      <use xlink:href="#DejaVuSans-69" x="343.212891"/>
      <use xlink:href="#DejaVuSans-63" x="370.996094"/>
     </g>
    </g>
    <g id="patch_156">
     <path d="M 322.233125 84.774562 
L 342.233125 84.774562 
L 342.233125 77.774562 
L 322.233125 77.774562 
z
" style="fill: #777777"/>
    </g>
    <g id="text_19">
     <!-- Indigenous -->
     <g transform="translate(350.233125 84.774562) scale(0.1 -0.1)">
      <defs>
       <path id="DejaVuSans-67" d="M 2906 1791 
Q 2906 2416 2648 2759 
Q 2391 3103 1925 3103 
Q 1463 3103 1205 2759 
Q 947 2416 947 1791 
Q 947 1169 1205 825 
Q 1463 481 1925 481 
Q 2391 481 2648 825 
Q 2906 1169 2906 1791 
z
M 3481 434 
Q 3481 -459 3084 -895 
Q 2688 -1331 1869 -1331 
Q 1566 -1331 1297 -1286 
Q 1028 -1241 775 -1147 
L 775 -588 
Q 1028 -725 1275 -790 
Q 1522 -856 1778 -856 
Q 2344 -856 2625 -561 
Q 2906 -266 2906 331 
L 2906 616 
Q 2728 306 2450 153 
Q 2172 0 1784 0 
Q 1141 0 747 490 
Q 353 981 353 1791 
Q 353 2603 747 3093 
Q 1141 3584 1784 3584 
Q 2172 3584 2450 3431 
Q 2728 3278 2906 2969 
L 2906 3500 
L 3481 3500 
L 3481 434 
z
" transform="scale(0.015625)"/>
       <path id="DejaVuSans-6f" d="M 1959 3097 
Q 1497 3097 1228 2736 
Q 959 2375 959 1747 
Q 959 1119 1226 758 
Q 1494 397 1959 397 
Q 2419 397 2687 759 
Q 2956 1122 2956 1747 
Q 2956 2369 2687 2733 
Q 2419 3097 1959 3097 
z
M 1959 3584 
Q 2709 3584 3137 3096 
Q 3566 2609 3566 1747 
Q 3566 888 3137 398 
Q 2709 -91 1959 -91 
Q 1206 -91 779 398 
Q 353 888 353 1747 
Q 353 2609 779 3096 
Q 1206 3584 1959 3584 
z
" transform="scale(0.015625)"/>
       <path id="DejaVuSans-75" d="M 544 1381 
L 544 3500 
L 1119 3500 
L 1119 1403 
Q 1119 906 1312 657 
Q 1506 409 1894 409 
Q 2359 409 2629 706 
Q 2900 1003 2900 1516 
L 2900 3500 
L 3475 3500 
L 3475 0 
L 2900 0 
L 2900 538 
Q 2691 219 2414 64 
Q 2138 -91 1772 -91 
Q 1169 -91 856 284 
Q 544 659 544 1381 
z
M 1991 3584 
L 1991 3584 
z
" transform="scale(0.015625)"/>
      </defs>
      <use xlink:href="#DejaVuSans-49"/>
      <use xlink:href="#DejaVuSans-6e" x="29.492188"/>
      <use xlink:href="#DejaVuSans-64" x="92.871094"/>
      <use xlink:href="#DejaVuSans-69" x="156.347656"/>
      <use xlink:href="#DejaVuSans-67" x="184.130859"/>
      <use xlink:href="#DejaVuSans-65" x="247.607422"/>
      <use xlink:href="#DejaVuSans-6e" x="309.130859"/>
      <use xlink:href="#DejaVuSans-6f" x="372.509766"/>
      <use xlink:href="#DejaVuSans-75" x="433.691406"/>
      <use xlink:href="#DejaVuSans-73" x="497.070312"/>
     </g>
    </g>
    <g id="patch_157">
     <path d="M 322.233125 99.452687 
L 342.233125 99.452687 
L 342.233125 92.452687 
L 322.233125 92.452687 
z
" style="fill: #fbc15e"/>
    </g>
    <g id="text_20">
     <!-- White -->
     <g transform="translate(350.233125 99.452687) scale(0.1 -0.1)">
      <defs>
       <path id="DejaVuSans-57" d="M 213 4666 
L 850 4666 
L 1831 722 
L 2809 4666 
L 3519 4666 
L 4500 722 
L 5478 4666 
L 6119 4666 
L 4947 0 
L 4153 0 
L 3169 4050 
L 2175 0 
L 1381 0 
L 213 4666 
z
" transform="scale(0.015625)"/>
      </defs>
      <use xlink:href="#DejaVuSans-57"/>
      <use xlink:href="#DejaVuSans-68" x="98.876953"/>
      <use xlink:href="#DejaVuSans-69" x="162.255859"/>
      <use xlink:href="#DejaVuSans-74" x="190.039062"/>
      <use xlink:href="#DejaVuSans-65" x="229.248047"/>
     </g>
    </g>
   </g>
  </g>
 </g>
 <defs>
  <clipPath id="p4aec6f25f5">
   <rect x="57.031875" y="24.14175" width="357.12" height="266.112"/>
  </clipPath>
 </defs>
</svg>
