<?xml version="1.0" encoding="utf-8" standalone="no"?>
<!DOCTYPE svg PUBLIC "-//W3C//DTD SVG 1.1//EN"
  "http://www.w3.org/Graphics/SVG/1.1/DTD/svg11.dtd">
<svg xmlns:xlink="http://www.w3.org/1999/xlink" width="552.274375pt" height="390.509687pt" viewBox="0 0 552.274375 390.509687" xmlns="http://www.w3.org/2000/svg" version="1.1">
 <metadata>
  <rdf:RDF xmlns:dc="http://purl.org/dc/elements/1.1/" xmlns:cc="http://creativecommons.org/ns#" xmlns:rdf="http://www.w3.org/1999/02/22-rdf-syntax-ns#">
   <cc:Work>
    <dc:type rdf:resource="http://purl.org/dc/dcmitype/StillImage"/>
    <dc:date>2023-11-10T12:47:01.113590</dc:date>
    <dc:format>image/svg+xml</dc:format>
    <dc:creator>
     <cc:Agent>
      <dc:title>Matplotlib v3.7.3, https://matplotlib.org/</dc:title>
     </cc:Agent>
    </dc:creator>
   </cc:Work>
  </rdf:RDF>
 </metadata>
 <defs>
  <style type="text/css">*{stroke-linejoin: round; stroke-linecap: butt}</style>
 </defs>
 <g id="figure_1">
  <g id="patch_1">
   <path d="M 0 390.509687 
L 552.274375 390.509687 
L 552.274375 0 
L 0 0 
z
" style="fill: #ffffff"/>
  </g>
  <g id="axes_1">
   <g id="patch_2">
    <path d="M 43.954375 348.531875 
L 545.074375 348.531875 
L 545.074375 27.771875 
L 43.954375 27.771875 
z
" style="fill: #eaeaf2"/>
   </g>
   <g id="matplotlib.axis_1">
    <g id="xtick_1">
     <g id="line2d_1">
      <path d="M 104.696193 348.531875 
L 104.696193 27.771875 
" clip-path="url(#p692f91353a)" style="fill: none; stroke: #ffffff; stroke-linecap: round"/>
     </g>
     <g id="line2d_2"/>
     <g id="text_1">
      <!-- 1995 -->
      <g style="fill: #262626" transform="translate(93.574318 362.689687) scale(0.1 -0.1)">
       <defs>
        <path id="ArialMT-31" d="M 2384 0 
L 1822 0 
L 1822 3584 
Q 1619 3391 1289 3197 
Q 959 3003 697 2906 
L 697 3450 
Q 1169 3672 1522 3987 
Q 1875 4303 2022 4600 
L 2384 4600 
L 2384 0 
z
" transform="scale(0.015625)"/>
        <path id="ArialMT-39" d="M 350 1059 
L 891 1109 
Q 959 728 1153 556 
Q 1347 384 1650 384 
Q 1909 384 2104 503 
Q 2300 622 2425 820 
Q 2550 1019 2634 1356 
Q 2719 1694 2719 2044 
Q 2719 2081 2716 2156 
Q 2547 1888 2255 1720 
Q 1963 1553 1622 1553 
Q 1053 1553 659 1965 
Q 266 2378 266 3053 
Q 266 3750 677 4175 
Q 1088 4600 1706 4600 
Q 2153 4600 2523 4359 
Q 2894 4119 3086 3673 
Q 3278 3228 3278 2384 
Q 3278 1506 3087 986 
Q 2897 466 2520 194 
Q 2144 -78 1638 -78 
Q 1100 -78 759 220 
Q 419 519 350 1059 
z
M 2653 3081 
Q 2653 3566 2395 3850 
Q 2138 4134 1775 4134 
Q 1400 4134 1122 3828 
Q 844 3522 844 3034 
Q 844 2597 1108 2323 
Q 1372 2050 1759 2050 
Q 2150 2050 2401 2323 
Q 2653 2597 2653 3081 
z
" transform="scale(0.015625)"/>
        <path id="ArialMT-35" d="M 266 1200 
L 856 1250 
Q 922 819 1161 601 
Q 1400 384 1738 384 
Q 2144 384 2425 690 
Q 2706 997 2706 1503 
Q 2706 1984 2436 2262 
Q 2166 2541 1728 2541 
Q 1456 2541 1237 2417 
Q 1019 2294 894 2097 
L 366 2166 
L 809 4519 
L 3088 4519 
L 3088 3981 
L 1259 3981 
L 1013 2750 
Q 1425 3038 1878 3038 
Q 2478 3038 2890 2622 
Q 3303 2206 3303 1553 
Q 3303 931 2941 478 
Q 2500 -78 1738 -78 
Q 1113 -78 717 272 
Q 322 622 266 1200 
z
" transform="scale(0.015625)"/>
       </defs>
       <use xlink:href="#ArialMT-31"/>
       <use xlink:href="#ArialMT-39" x="55.615234"/>
       <use xlink:href="#ArialMT-39" x="111.230469"/>
       <use xlink:href="#ArialMT-35" x="166.845703"/>
      </g>
     </g>
    </g>
    <g id="xtick_2">
     <g id="line2d_3">
      <path d="M 183.787102 348.531875 
L 183.787102 27.771875 
" clip-path="url(#p692f91353a)" style="fill: none; stroke: #ffffff; stroke-linecap: round"/>
     </g>
     <g id="line2d_4"/>
     <g id="text_2">
      <!-- 2000 -->
      <g style="fill: #262626" transform="translate(172.665227 362.689687) scale(0.1 -0.1)">
       <defs>
        <path id="ArialMT-32" d="M 3222 541 
L 3222 0 
L 194 0 
Q 188 203 259 391 
Q 375 700 629 1000 
Q 884 1300 1366 1694 
Q 2113 2306 2375 2664 
Q 2638 3022 2638 3341 
Q 2638 3675 2398 3904 
Q 2159 4134 1775 4134 
Q 1369 4134 1125 3890 
Q 881 3647 878 3216 
L 300 3275 
Q 359 3922 746 4261 
Q 1134 4600 1788 4600 
Q 2447 4600 2831 4234 
Q 3216 3869 3216 3328 
Q 3216 3053 3103 2787 
Q 2991 2522 2730 2228 
Q 2469 1934 1863 1422 
Q 1356 997 1212 845 
Q 1069 694 975 541 
L 3222 541 
z
" transform="scale(0.015625)"/>
        <path id="ArialMT-30" d="M 266 2259 
Q 266 3072 433 3567 
Q 600 4063 929 4331 
Q 1259 4600 1759 4600 
Q 2128 4600 2406 4451 
Q 2684 4303 2865 4023 
Q 3047 3744 3150 3342 
Q 3253 2941 3253 2259 
Q 3253 1453 3087 958 
Q 2922 463 2592 192 
Q 2263 -78 1759 -78 
Q 1097 -78 719 397 
Q 266 969 266 2259 
z
M 844 2259 
Q 844 1131 1108 757 
Q 1372 384 1759 384 
Q 2147 384 2411 759 
Q 2675 1134 2675 2259 
Q 2675 3391 2411 3762 
Q 2147 4134 1753 4134 
Q 1366 4134 1134 3806 
Q 844 3388 844 2259 
z
" transform="scale(0.015625)"/>
       </defs>
       <use xlink:href="#ArialMT-32"/>
       <use xlink:href="#ArialMT-30" x="55.615234"/>
       <use xlink:href="#ArialMT-30" x="111.230469"/>
       <use xlink:href="#ArialMT-30" x="166.845703"/>
      </g>
     </g>
    </g>
    <g id="xtick_3">
     <g id="line2d_5">
      <path d="M 262.878011 348.531875 
L 262.878011 27.771875 
" clip-path="url(#p692f91353a)" style="fill: none; stroke: #ffffff; stroke-linecap: round"/>
     </g>
     <g id="line2d_6"/>
     <g id="text_3">
      <!-- 2005 -->
      <g style="fill: #262626" transform="translate(251.756136 362.689687) scale(0.1 -0.1)">
       <use xlink:href="#ArialMT-32"/>
       <use xlink:href="#ArialMT-30" x="55.615234"/>
       <use xlink:href="#ArialMT-30" x="111.230469"/>
       <use xlink:href="#ArialMT-35" x="166.845703"/>
      </g>
     </g>
    </g>
    <g id="xtick_4">
     <g id="line2d_7">
      <path d="M 341.96892 348.531875 
L 341.96892 27.771875 
" clip-path="url(#p692f91353a)" style="fill: none; stroke: #ffffff; stroke-linecap: round"/>
     </g>
     <g id="line2d_8"/>
     <g id="text_4">
      <!-- 2010 -->
      <g style="fill: #262626" transform="translate(330.847045 362.689687) scale(0.1 -0.1)">
       <use xlink:href="#ArialMT-32"/>
       <use xlink:href="#ArialMT-30" x="55.615234"/>
       <use xlink:href="#ArialMT-31" x="111.230469"/>
       <use xlink:href="#ArialMT-30" x="166.845703"/>
      </g>
     </g>
    </g>
    <g id="xtick_5">
     <g id="line2d_9">
      <path d="M 421.05983 348.531875 
L 421.05983 27.771875 
" clip-path="url(#p692f91353a)" style="fill: none; stroke: #ffffff; stroke-linecap: round"/>
     </g>
     <g id="line2d_10"/>
     <g id="text_5">
      <!-- 2015 -->
      <g style="fill: #262626" transform="translate(409.937955 362.689687) scale(0.1 -0.1)">
       <use xlink:href="#ArialMT-32"/>
       <use xlink:href="#ArialMT-30" x="55.615234"/>
       <use xlink:href="#ArialMT-31" x="111.230469"/>
       <use xlink:href="#ArialMT-35" x="166.845703"/>
      </g>
     </g>
    </g>
    <g id="xtick_6">
     <g id="line2d_11">
      <path d="M 500.150739 348.531875 
L 500.150739 27.771875 
" clip-path="url(#p692f91353a)" style="fill: none; stroke: #ffffff; stroke-linecap: round"/>
     </g>
     <g id="line2d_12"/>
     <g id="text_6">
      <!-- 2020 -->
      <g style="fill: #262626" transform="translate(489.028864 362.689687) scale(0.1 -0.1)">
       <use xlink:href="#ArialMT-32"/>
       <use xlink:href="#ArialMT-30" x="55.615234"/>
       <use xlink:href="#ArialMT-32" x="111.230469"/>
       <use xlink:href="#ArialMT-30" x="166.845703"/>
      </g>
     </g>
    </g>
    <g id="text_7">
     <!-- Year -->
     <g style="fill: #262626" transform="translate(278.346875 380.129687) scale(0.16 -0.16)">
      <defs>
       <path id="ArialMT-59" d="M 1784 0 
L 1784 1941 
L 19 4581 
L 756 4581 
L 1659 3200 
Q 1909 2813 2125 2425 
Q 2331 2784 2625 3234 
L 3513 4581 
L 4219 4581 
L 2391 1941 
L 2391 0 
L 1784 0 
z
" transform="scale(0.015625)"/>
       <path id="ArialMT-65" d="M 2694 1069 
L 3275 997 
Q 3138 488 2766 206 
Q 2394 -75 1816 -75 
Q 1088 -75 661 373 
Q 234 822 234 1631 
Q 234 2469 665 2931 
Q 1097 3394 1784 3394 
Q 2450 3394 2872 2941 
Q 3294 2488 3294 1666 
Q 3294 1616 3291 1516 
L 816 1516 
Q 847 969 1125 678 
Q 1403 388 1819 388 
Q 2128 388 2347 550 
Q 2566 713 2694 1069 
z
M 847 1978 
L 2700 1978 
Q 2663 2397 2488 2606 
Q 2219 2931 1791 2931 
Q 1403 2931 1139 2672 
Q 875 2413 847 1978 
z
" transform="scale(0.015625)"/>
       <path id="ArialMT-61" d="M 2588 409 
Q 2275 144 1986 34 
Q 1697 -75 1366 -75 
Q 819 -75 525 192 
Q 231 459 231 875 
Q 231 1119 342 1320 
Q 453 1522 633 1644 
Q 813 1766 1038 1828 
Q 1203 1872 1538 1913 
Q 2219 1994 2541 2106 
Q 2544 2222 2544 2253 
Q 2544 2597 2384 2738 
Q 2169 2928 1744 2928 
Q 1347 2928 1158 2789 
Q 969 2650 878 2297 
L 328 2372 
Q 403 2725 575 2942 
Q 747 3159 1072 3276 
Q 1397 3394 1825 3394 
Q 2250 3394 2515 3294 
Q 2781 3194 2906 3042 
Q 3031 2891 3081 2659 
Q 3109 2516 3109 2141 
L 3109 1391 
Q 3109 606 3145 398 
Q 3181 191 3288 0 
L 2700 0 
Q 2613 175 2588 409 
z
M 2541 1666 
Q 2234 1541 1622 1453 
Q 1275 1403 1131 1340 
Q 988 1278 909 1158 
Q 831 1038 831 891 
Q 831 666 1001 516 
Q 1172 366 1500 366 
Q 1825 366 2078 508 
Q 2331 650 2450 897 
Q 2541 1088 2541 1459 
L 2541 1666 
z
" transform="scale(0.015625)"/>
       <path id="ArialMT-72" d="M 416 0 
L 416 3319 
L 922 3319 
L 922 2816 
Q 1116 3169 1280 3281 
Q 1444 3394 1641 3394 
Q 1925 3394 2219 3213 
L 2025 2691 
Q 1819 2813 1613 2813 
Q 1428 2813 1281 2702 
Q 1134 2591 1072 2394 
Q 978 2094 978 1738 
L 978 0 
L 416 0 
z
" transform="scale(0.015625)"/>
      </defs>
      <use xlink:href="#ArialMT-59"/>
      <use xlink:href="#ArialMT-65" x="57.574219"/>
      <use xlink:href="#ArialMT-61" x="113.189453"/>
      <use xlink:href="#ArialMT-72" x="168.804688"/>
     </g>
    </g>
   </g>
   <g id="matplotlib.axis_2">
    <g id="ytick_1">
     <g id="line2d_13">
      <path d="M 43.954375 348.531875 
L 545.074375 348.531875 
" clip-path="url(#p692f91353a)" style="fill: none; stroke: #ffffff; stroke-linecap: round"/>
     </g>
     <g id="line2d_14"/>
     <g id="text_8">
      <!-- 0 -->
      <g style="fill: #262626" transform="translate(31.393438 352.110781) scale(0.1 -0.1)">
       <use xlink:href="#ArialMT-30"/>
      </g>
     </g>
    </g>
    <g id="ytick_2">
     <g id="line2d_15">
      <path d="M 43.954375 279.41746 
L 545.074375 279.41746 
" clip-path="url(#p692f91353a)" style="fill: none; stroke: #ffffff; stroke-linecap: round"/>
     </g>
     <g id="line2d_16"/>
     <g id="text_9">
      <!-- 10 -->
      <g style="fill: #262626" transform="translate(25.8325 282.996366) scale(0.1 -0.1)">
       <use xlink:href="#ArialMT-31"/>
       <use xlink:href="#ArialMT-30" x="55.615234"/>
      </g>
     </g>
    </g>
    <g id="ytick_3">
     <g id="line2d_17">
      <path d="M 43.954375 210.303045 
L 545.074375 210.303045 
" clip-path="url(#p692f91353a)" style="fill: none; stroke: #ffffff; stroke-linecap: round"/>
     </g>
     <g id="line2d_18"/>
     <g id="text_10">
      <!-- 20 -->
      <g style="fill: #262626" transform="translate(25.8325 213.881951) scale(0.1 -0.1)">
       <use xlink:href="#ArialMT-32"/>
       <use xlink:href="#ArialMT-30" x="55.615234"/>
      </g>
     </g>
    </g>
    <g id="ytick_4">
     <g id="line2d_19">
      <path d="M 43.954375 141.18863 
L 545.074375 141.18863 
" clip-path="url(#p692f91353a)" style="fill: none; stroke: #ffffff; stroke-linecap: round"/>
     </g>
     <g id="line2d_20"/>
     <g id="text_11">
      <!-- 30 -->
      <g style="fill: #262626" transform="translate(25.8325 144.767536) scale(0.1 -0.1)">
       <defs>
        <path id="ArialMT-33" d="M 269 1209 
L 831 1284 
Q 928 806 1161 595 
Q 1394 384 1728 384 
Q 2125 384 2398 659 
Q 2672 934 2672 1341 
Q 2672 1728 2419 1979 
Q 2166 2231 1775 2231 
Q 1616 2231 1378 2169 
L 1441 2663 
Q 1497 2656 1531 2656 
Q 1891 2656 2178 2843 
Q 2466 3031 2466 3422 
Q 2466 3731 2256 3934 
Q 2047 4138 1716 4138 
Q 1388 4138 1169 3931 
Q 950 3725 888 3313 
L 325 3413 
Q 428 3978 793 4289 
Q 1159 4600 1703 4600 
Q 2078 4600 2393 4439 
Q 2709 4278 2876 4000 
Q 3044 3722 3044 3409 
Q 3044 3113 2884 2869 
Q 2725 2625 2413 2481 
Q 2819 2388 3044 2092 
Q 3269 1797 3269 1353 
Q 3269 753 2831 336 
Q 2394 -81 1725 -81 
Q 1122 -81 723 278 
Q 325 638 269 1209 
z
" transform="scale(0.015625)"/>
       </defs>
       <use xlink:href="#ArialMT-33"/>
       <use xlink:href="#ArialMT-30" x="55.615234"/>
      </g>
     </g>
    </g>
    <g id="ytick_5">
     <g id="line2d_21">
      <path d="M 43.954375 72.074215 
L 545.074375 72.074215 
" clip-path="url(#p692f91353a)" style="fill: none; stroke: #ffffff; stroke-linecap: round"/>
     </g>
     <g id="line2d_22"/>
     <g id="text_12">
      <!-- 40 -->
      <g style="fill: #262626" transform="translate(25.8325 75.653121) scale(0.1 -0.1)">
       <defs>
        <path id="ArialMT-34" d="M 2069 0 
L 2069 1097 
L 81 1097 
L 81 1613 
L 2172 4581 
L 2631 4581 
L 2631 1613 
L 3250 1613 
L 3250 1097 
L 2631 1097 
L 2631 0 
L 2069 0 
z
M 2069 1613 
L 2069 3678 
L 634 1613 
L 2069 1613 
z
" transform="scale(0.015625)"/>
       </defs>
       <use xlink:href="#ArialMT-34"/>
       <use xlink:href="#ArialMT-30" x="55.615234"/>
      </g>
     </g>
    </g>
    <g id="text_13">
     <!-- Incidence Rate -->
     <g style="fill: #262626" transform="translate(18.6525 241.515625) rotate(-90) scale(0.16 -0.16)">
      <defs>
       <path id="ArialMT-49" d="M 597 0 
L 597 4581 
L 1203 4581 
L 1203 0 
L 597 0 
z
" transform="scale(0.015625)"/>
       <path id="ArialMT-6e" d="M 422 0 
L 422 3319 
L 928 3319 
L 928 2847 
Q 1294 3394 1984 3394 
Q 2284 3394 2536 3286 
Q 2788 3178 2913 3003 
Q 3038 2828 3088 2588 
Q 3119 2431 3119 2041 
L 3119 0 
L 2556 0 
L 2556 2019 
Q 2556 2363 2490 2533 
Q 2425 2703 2258 2804 
Q 2091 2906 1866 2906 
Q 1506 2906 1245 2678 
Q 984 2450 984 1813 
L 984 0 
L 422 0 
z
" transform="scale(0.015625)"/>
       <path id="ArialMT-63" d="M 2588 1216 
L 3141 1144 
Q 3050 572 2676 248 
Q 2303 -75 1759 -75 
Q 1078 -75 664 370 
Q 250 816 250 1647 
Q 250 2184 428 2587 
Q 606 2991 970 3192 
Q 1334 3394 1763 3394 
Q 2303 3394 2647 3120 
Q 2991 2847 3088 2344 
L 2541 2259 
Q 2463 2594 2264 2762 
Q 2066 2931 1784 2931 
Q 1359 2931 1093 2626 
Q 828 2322 828 1663 
Q 828 994 1084 691 
Q 1341 388 1753 388 
Q 2084 388 2306 591 
Q 2528 794 2588 1216 
z
" transform="scale(0.015625)"/>
       <path id="ArialMT-69" d="M 425 3934 
L 425 4581 
L 988 4581 
L 988 3934 
L 425 3934 
z
M 425 0 
L 425 3319 
L 988 3319 
L 988 0 
L 425 0 
z
" transform="scale(0.015625)"/>
       <path id="ArialMT-64" d="M 2575 0 
L 2575 419 
Q 2259 -75 1647 -75 
Q 1250 -75 917 144 
Q 584 363 401 755 
Q 219 1147 219 1656 
Q 219 2153 384 2558 
Q 550 2963 881 3178 
Q 1213 3394 1622 3394 
Q 1922 3394 2156 3267 
Q 2391 3141 2538 2938 
L 2538 4581 
L 3097 4581 
L 3097 0 
L 2575 0 
z
M 797 1656 
Q 797 1019 1065 703 
Q 1334 388 1700 388 
Q 2069 388 2326 689 
Q 2584 991 2584 1609 
Q 2584 2291 2321 2609 
Q 2059 2928 1675 2928 
Q 1300 2928 1048 2622 
Q 797 2316 797 1656 
z
" transform="scale(0.015625)"/>
       <path id="ArialMT-20" transform="scale(0.015625)"/>
       <path id="ArialMT-52" d="M 503 0 
L 503 4581 
L 2534 4581 
Q 3147 4581 3465 4457 
Q 3784 4334 3975 4021 
Q 4166 3709 4166 3331 
Q 4166 2844 3850 2509 
Q 3534 2175 2875 2084 
Q 3116 1969 3241 1856 
Q 3506 1613 3744 1247 
L 4541 0 
L 3778 0 
L 3172 953 
Q 2906 1366 2734 1584 
Q 2563 1803 2427 1890 
Q 2291 1978 2150 2013 
Q 2047 2034 1813 2034 
L 1109 2034 
L 1109 0 
L 503 0 
z
M 1109 2559 
L 2413 2559 
Q 2828 2559 3062 2645 
Q 3297 2731 3419 2920 
Q 3541 3109 3541 3331 
Q 3541 3656 3305 3865 
Q 3069 4075 2559 4075 
L 1109 4075 
L 1109 2559 
z
" transform="scale(0.015625)"/>
       <path id="ArialMT-74" d="M 1650 503 
L 1731 6 
Q 1494 -44 1306 -44 
Q 1000 -44 831 53 
Q 663 150 594 308 
Q 525 466 525 972 
L 525 2881 
L 113 2881 
L 113 3319 
L 525 3319 
L 525 4141 
L 1084 4478 
L 1084 3319 
L 1650 3319 
L 1650 2881 
L 1084 2881 
L 1084 941 
Q 1084 700 1114 631 
Q 1144 563 1211 522 
Q 1278 481 1403 481 
Q 1497 481 1650 503 
z
" transform="scale(0.015625)"/>
      </defs>
      <use xlink:href="#ArialMT-49"/>
      <use xlink:href="#ArialMT-6e" x="27.783203"/>
      <use xlink:href="#ArialMT-63" x="83.398438"/>
      <use xlink:href="#ArialMT-69" x="133.398438"/>
      <use xlink:href="#ArialMT-64" x="155.615234"/>
      <use xlink:href="#ArialMT-65" x="211.230469"/>
      <use xlink:href="#ArialMT-6e" x="266.845703"/>
      <use xlink:href="#ArialMT-63" x="322.460938"/>
      <use xlink:href="#ArialMT-65" x="372.460938"/>
      <use xlink:href="#ArialMT-20" x="428.076172"/>
      <use xlink:href="#ArialMT-52" x="455.859375"/>
      <use xlink:href="#ArialMT-61" x="528.076172"/>
      <use xlink:href="#ArialMT-74" x="583.691406"/>
      <use xlink:href="#ArialMT-65" x="611.474609"/>
     </g>
    </g>
   </g>
   <g id="patch_3">
    <path d="M 66.732557 348.531875 
L 79.387102 348.531875 
L 79.387102 297.387208 
L 66.732557 297.387208 
z
" clip-path="url(#p692f91353a)" style="fill: #1f77b4"/>
   </g>
   <g id="patch_4">
    <path d="M 82.550739 348.531875 
L 95.205284 348.531875 
L 95.205284 301.534073 
L 82.550739 301.534073 
z
" clip-path="url(#p692f91353a)" style="fill: #1f77b4"/>
   </g>
   <g id="patch_5">
    <path d="M 98.36892 348.531875 
L 111.023466 348.531875 
L 111.023466 306.372082 
L 98.36892 306.372082 
z
" clip-path="url(#p692f91353a)" style="fill: #1f77b4"/>
   </g>
   <g id="patch_6">
    <path d="M 114.187102 348.531875 
L 126.841648 348.531875 
L 126.841648 309.827803 
L 114.187102 309.827803 
z
" clip-path="url(#p692f91353a)" style="fill: #1f77b4"/>
   </g>
   <g id="patch_7">
    <path d="M 130.005284 348.531875 
L 142.65983 348.531875 
L 142.65983 314.665812 
L 130.005284 314.665812 
z
" clip-path="url(#p692f91353a)" style="fill: #1f77b4"/>
   </g>
   <g id="patch_8">
    <path d="M 145.823466 348.531875 
L 158.478011 348.531875 
L 158.478011 318.121532 
L 145.823466 318.121532 
z
" clip-path="url(#p692f91353a)" style="fill: #1f77b4"/>
   </g>
   <g id="patch_9">
    <path d="M 161.641648 348.531875 
L 174.296193 348.531875 
L 174.296193 320.886109 
L 161.641648 320.886109 
z
" clip-path="url(#p692f91353a)" style="fill: #1f77b4"/>
   </g>
   <g id="patch_10">
    <path d="M 177.45983 348.531875 
L 190.114375 348.531875 
L 190.114375 324.34183 
L 177.45983 324.34183 
z
" clip-path="url(#p692f91353a)" style="fill: #1f77b4"/>
   </g>
   <g id="patch_11">
    <path d="M 193.278011 348.531875 
L 205.932557 348.531875 
L 205.932557 326.415262 
L 193.278011 326.415262 
z
" clip-path="url(#p692f91353a)" style="fill: #1f77b4"/>
   </g>
   <g id="patch_12">
    <path d="M 209.096193 348.531875 
L 221.750739 348.531875 
L 221.750739 328.488695 
L 209.096193 328.488695 
z
" clip-path="url(#p692f91353a)" style="fill: #1f77b4"/>
   </g>
   <g id="patch_13">
    <path d="M 224.914375 348.531875 
L 237.56892 348.531875 
L 237.56892 329.870983 
L 224.914375 329.870983 
z
" clip-path="url(#p692f91353a)" style="fill: #1f77b4"/>
   </g>
   <g id="patch_14">
    <path d="M 240.732557 348.531875 
L 253.387102 348.531875 
L 253.387102 330.562127 
L 240.732557 330.562127 
z
" clip-path="url(#p692f91353a)" style="fill: #1f77b4"/>
   </g>
   <g id="patch_15">
    <path d="M 256.550739 348.531875 
L 269.205284 348.531875 
L 269.205284 331.253271 
L 256.550739 331.253271 
z
" clip-path="url(#p692f91353a)" style="fill: #1f77b4"/>
   </g>
   <g id="patch_16">
    <path d="M 272.36892 348.531875 
L 285.023466 348.531875 
L 285.023466 332.63556 
L 272.36892 332.63556 
z
" clip-path="url(#p692f91353a)" style="fill: #1f77b4"/>
   </g>
   <g id="patch_17">
    <path d="M 288.187102 348.531875 
L 300.841648 348.531875 
L 300.841648 334.017848 
L 288.187102 334.017848 
z
" clip-path="url(#p692f91353a)" style="fill: #1f77b4"/>
   </g>
   <g id="patch_18">
    <path d="M 304.005284 348.531875 
L 316.65983 348.531875 
L 316.65983 334.708992 
L 304.005284 334.708992 
z
" clip-path="url(#p692f91353a)" style="fill: #1f77b4"/>
   </g>
   <g id="patch_19">
    <path d="M 319.823466 348.531875 
L 332.478011 348.531875 
L 332.478011 336.782424 
L 319.823466 336.782424 
z
" clip-path="url(#p692f91353a)" style="fill: #1f77b4"/>
   </g>
   <g id="patch_20">
    <path d="M 335.641648 348.531875 
L 348.296193 348.531875 
L 348.296193 337.473569 
L 335.641648 337.473569 
z
" clip-path="url(#p692f91353a)" style="fill: #1f77b4"/>
   </g>
   <g id="patch_21">
    <path d="M 351.45983 348.531875 
L 364.114375 348.531875 
L 364.114375 338.164713 
L 351.45983 338.164713 
z
" clip-path="url(#p692f91353a)" style="fill: #1f77b4"/>
   </g>
   <g id="patch_22">
    <path d="M 367.278011 348.531875 
L 379.932557 348.531875 
L 379.932557 339.547001 
L 367.278011 339.547001 
z
" clip-path="url(#p692f91353a)" style="fill: #1f77b4"/>
   </g>
   <g id="patch_23">
    <path d="M 383.096193 348.531875 
L 395.750739 348.531875 
L 395.750739 340.238145 
L 383.096193 340.238145 
z
" clip-path="url(#p692f91353a)" style="fill: #1f77b4"/>
   </g>
   <g id="patch_24">
    <path d="M 398.914375 348.531875 
L 411.56892 348.531875 
L 411.56892 340.929289 
L 398.914375 340.929289 
z
" clip-path="url(#p692f91353a)" style="fill: #1f77b4"/>
   </g>
   <g id="patch_25">
    <path d="M 414.732557 348.531875 
L 427.387102 348.531875 
L 427.387102 340.929289 
L 414.732557 340.929289 
z
" clip-path="url(#p692f91353a)" style="fill: #1f77b4"/>
   </g>
   <g id="patch_26">
    <path d="M 430.550739 348.531875 
L 443.205284 348.531875 
L 443.205284 341.620434 
L 430.550739 341.620434 
z
" clip-path="url(#p692f91353a)" style="fill: #1f77b4"/>
   </g>
   <g id="patch_27">
    <path d="M 446.36892 348.531875 
L 459.023466 348.531875 
L 459.023466 341.620434 
L 446.36892 341.620434 
z
" clip-path="url(#p692f91353a)" style="fill: #1f77b4"/>
   </g>
   <g id="patch_28">
    <path d="M 462.187102 348.531875 
L 474.841648 348.531875 
L 474.841648 342.311578 
L 462.187102 342.311578 
z
" clip-path="url(#p692f91353a)" style="fill: #1f77b4"/>
   </g>
   <g id="patch_29">
    <path d="M 478.005284 348.531875 
L 490.65983 348.531875 
L 490.65983 342.311578 
L 478.005284 342.311578 
z
" clip-path="url(#p692f91353a)" style="fill: #1f77b4"/>
   </g>
   <g id="patch_30">
    <path d="M 493.823466 348.531875 
L 506.478011 348.531875 
L 506.478011 343.693866 
L 493.823466 343.693866 
z
" clip-path="url(#p692f91353a)" style="fill: #1f77b4"/>
   </g>
   <g id="patch_31">
    <path d="M 509.641648 348.531875 
L 522.296193 348.531875 
L 522.296193 343.002722 
L 509.641648 343.002722 
z
" clip-path="url(#p692f91353a)" style="fill: #1f77b4"/>
   </g>
   <g id="patch_32">
    <path d="M 66.732557 297.387208 
L 79.387102 297.387208 
L 79.387102 61.707053 
L 66.732557 61.707053 
z
" clip-path="url(#p692f91353a)" style="fill: #ff7f0e"/>
   </g>
   <g id="patch_33">
    <path d="M 82.550739 301.534073 
L 95.205284 301.534073 
L 95.205284 52.031035 
L 82.550739 52.031035 
z
" clip-path="url(#p692f91353a)" style="fill: #ff7f0e"/>
   </g>
   <g id="patch_34">
    <path d="M 98.36892 306.372082 
L 111.023466 306.372082 
L 111.023466 43.046161 
L 98.36892 43.046161 
z
" clip-path="url(#p692f91353a)" style="fill: #ff7f0e"/>
   </g>
   <g id="patch_35">
    <path d="M 114.187102 309.827803 
L 126.841648 309.827803 
L 126.841648 87.97053 
L 114.187102 87.97053 
z
" clip-path="url(#p692f91353a)" style="fill: #ff7f0e"/>
   </g>
   <g id="patch_36">
    <path d="M 130.005284 314.665812 
L 142.65983 314.665812 
L 142.65983 101.102269 
L 130.005284 101.102269 
z
" clip-path="url(#p692f91353a)" style="fill: #ff7f0e"/>
   </g>
   <g id="patch_37">
    <path d="M 145.823466 318.121532 
L 158.478011 318.121532 
L 158.478011 118.380873 
L 145.823466 118.380873 
z
" clip-path="url(#p692f91353a)" style="fill: #ff7f0e"/>
   </g>
   <g id="patch_38">
    <path d="M 161.641648 320.886109 
L 174.296193 320.886109 
L 174.296193 126.674603 
L 161.641648 126.674603 
z
" clip-path="url(#p692f91353a)" style="fill: #ff7f0e"/>
   </g>
   <g id="patch_39">
    <path d="M 177.45983 324.34183 
L 190.114375 324.34183 
L 190.114375 141.18863 
L 177.45983 141.18863 
z
" clip-path="url(#p692f91353a)" style="fill: #ff7f0e"/>
   </g>
   <g id="patch_40">
    <path d="M 193.278011 326.415262 
L 205.932557 326.415262 
L 205.932557 134.968333 
L 193.278011 134.968333 
z
" clip-path="url(#p692f91353a)" style="fill: #ff7f0e"/>
   </g>
   <g id="patch_41">
    <path d="M 209.096193 328.488695 
L 221.750739 328.488695 
L 221.750739 152.246936 
L 209.096193 152.246936 
z
" clip-path="url(#p692f91353a)" style="fill: #ff7f0e"/>
   </g>
   <g id="patch_42">
    <path d="M 224.914375 329.870983 
L 237.56892 329.870983 
L 237.56892 164.687531 
L 224.914375 164.687531 
z
" clip-path="url(#p692f91353a)" style="fill: #ff7f0e"/>
   </g>
   <g id="patch_43">
    <path d="M 240.732557 330.562127 
L 253.387102 330.562127 
L 253.387102 170.216684 
L 240.732557 170.216684 
z
" clip-path="url(#p692f91353a)" style="fill: #ff7f0e"/>
   </g>
   <g id="patch_44">
    <path d="M 256.550739 331.253271 
L 269.205284 331.253271 
L 269.205284 177.128126 
L 256.550739 177.128126 
z
" clip-path="url(#p692f91353a)" style="fill: #ff7f0e"/>
   </g>
   <g id="patch_45">
    <path d="M 272.36892 332.63556 
L 285.023466 332.63556 
L 285.023466 183.348423 
L 272.36892 183.348423 
z
" clip-path="url(#p692f91353a)" style="fill: #ff7f0e"/>
   </g>
   <g id="patch_46">
    <path d="M 288.187102 334.017848 
L 300.841648 334.017848 
L 300.841648 189.568721 
L 288.187102 189.568721 
z
" clip-path="url(#p692f91353a)" style="fill: #ff7f0e"/>
   </g>
   <g id="patch_47">
    <path d="M 304.005284 334.708992 
L 316.65983 334.708992 
L 316.65983 194.40673 
L 304.005284 194.40673 
z
" clip-path="url(#p692f91353a)" style="fill: #ff7f0e"/>
   </g>
   <g id="patch_48">
    <path d="M 319.823466 336.782424 
L 332.478011 336.782424 
L 332.478011 206.847324 
L 319.823466 206.847324 
z
" clip-path="url(#p692f91353a)" style="fill: #ff7f0e"/>
   </g>
   <g id="patch_49">
    <path d="M 335.641648 337.473569 
L 348.296193 337.473569 
L 348.296193 215.832198 
L 335.641648 215.832198 
z
" clip-path="url(#p692f91353a)" style="fill: #ff7f0e"/>
   </g>
   <g id="patch_50">
    <path d="M 351.45983 338.164713 
L 364.114375 338.164713 
L 364.114375 220.670207 
L 351.45983 220.670207 
z
" clip-path="url(#p692f91353a)" style="fill: #ff7f0e"/>
   </g>
   <g id="patch_51">
    <path d="M 367.278011 339.547001 
L 379.932557 339.547001 
L 379.932557 228.963937 
L 367.278011 228.963937 
z
" clip-path="url(#p692f91353a)" style="fill: #ff7f0e"/>
   </g>
   <g id="patch_52">
    <path d="M 383.096193 340.238145 
L 395.750739 340.238145 
L 395.750739 231.728514 
L 383.096193 231.728514 
z
" clip-path="url(#p692f91353a)" style="fill: #ff7f0e"/>
   </g>
   <g id="patch_53">
    <path d="M 398.914375 340.929289 
L 411.56892 340.929289 
L 411.56892 233.801946 
L 398.914375 233.801946 
z
" clip-path="url(#p692f91353a)" style="fill: #ff7f0e"/>
   </g>
   <g id="patch_54">
    <path d="M 414.732557 340.929289 
L 427.387102 340.929289 
L 427.387102 235.184234 
L 414.732557 235.184234 
z
" clip-path="url(#p692f91353a)" style="fill: #ff7f0e"/>
   </g>
   <g id="patch_55">
    <path d="M 430.550739 341.620434 
L 443.205284 341.620434 
L 443.205284 240.022243 
L 430.550739 240.022243 
z
" clip-path="url(#p692f91353a)" style="fill: #ff7f0e"/>
   </g>
   <g id="patch_56">
    <path d="M 446.36892 341.620434 
L 459.023466 341.620434 
L 459.023466 240.022243 
L 446.36892 240.022243 
z
" clip-path="url(#p692f91353a)" style="fill: #ff7f0e"/>
   </g>
   <g id="patch_57">
    <path d="M 462.187102 342.311578 
L 474.841648 342.311578 
L 474.841648 243.477964 
L 462.187102 243.477964 
z
" clip-path="url(#p692f91353a)" style="fill: #ff7f0e"/>
   </g>
   <g id="patch_58">
    <path d="M 478.005284 342.311578 
L 490.65983 342.311578 
L 490.65983 244.169108 
L 478.005284 244.169108 
z
" clip-path="url(#p692f91353a)" style="fill: #ff7f0e"/>
   </g>
   <g id="patch_59">
    <path d="M 493.823466 343.693866 
L 506.478011 343.693866 
L 506.478011 262.83 
L 493.823466 262.83 
z
" clip-path="url(#p692f91353a)" style="fill: #ff7f0e"/>
   </g>
   <g id="patch_60">
    <path d="M 509.641648 343.002722 
L 522.296193 343.002722 
L 522.296193 256.609703 
L 509.641648 256.609703 
z
" clip-path="url(#p692f91353a)" style="fill: #ff7f0e"/>
   </g>
   <g id="patch_61">
    <path d="M 43.954375 348.531875 
L 43.954375 27.771875 
" style="fill: none"/>
   </g>
   <g id="patch_62">
    <path d="M 545.074375 348.531875 
L 545.074375 27.771875 
" style="fill: none"/>
   </g>
   <g id="patch_63">
    <path d="M 43.954375 348.531875 
L 545.074375 348.531875 
" style="fill: none"/>
   </g>
   <g id="patch_64">
    <path d="M 43.954375 27.771875 
L 545.074375 27.771875 
" style="fill: none"/>
   </g>
   <g id="text_14">
    <!-- 7 -->
    <g style="fill: #ffffff" transform="translate(70.279361 326.538448) scale(0.1 -0.1)">
     <defs>
      <path id="Arial-BoldMT-37" d="M 272 3703 
L 272 4519 
L 3275 4519 
L 3275 3881 
Q 2903 3516 2518 2831 
Q 2134 2147 1932 1376 
Q 1731 606 1734 0 
L 888 0 
Q 909 950 1279 1937 
Q 1650 2925 2269 3703 
L 272 3703 
z
" transform="scale(0.015625)"/>
     </defs>
     <use xlink:href="#Arial-BoldMT-37"/>
    </g>
   </g>
   <g id="text_15">
    <!-- 7 -->
    <g style="fill: #ffffff" transform="translate(86.097543 328.61188) scale(0.1 -0.1)">
     <use xlink:href="#Arial-BoldMT-37"/>
    </g>
   </g>
   <g id="text_16">
    <!-- 6 -->
    <g style="fill: #ffffff" transform="translate(101.915724 331.030885) scale(0.1 -0.1)">
     <defs>
      <path id="Arial-BoldMT-36" d="M 3247 3459 
L 2397 3366 
Q 2366 3628 2234 3753 
Q 2103 3878 1894 3878 
Q 1616 3878 1423 3628 
Q 1231 3378 1181 2588 
Q 1509 2975 1997 2975 
Q 2547 2975 2939 2556 
Q 3331 2138 3331 1475 
Q 3331 772 2918 347 
Q 2506 -78 1859 -78 
Q 1166 -78 719 461 
Q 272 1000 272 2228 
Q 272 3488 737 4044 
Q 1203 4600 1947 4600 
Q 2469 4600 2811 4308 
Q 3153 4016 3247 3459 
z
M 1256 1544 
Q 1256 1116 1453 883 
Q 1650 650 1903 650 
Q 2147 650 2309 840 
Q 2472 1031 2472 1466 
Q 2472 1913 2297 2120 
Q 2122 2328 1859 2328 
Q 1606 2328 1431 2129 
Q 1256 1931 1256 1544 
z
" transform="scale(0.015625)"/>
     </defs>
     <use xlink:href="#Arial-BoldMT-36"/>
    </g>
   </g>
   <g id="text_17">
    <!-- 6 -->
    <g style="fill: #ffffff" transform="translate(117.733906 332.758745) scale(0.1 -0.1)">
     <use xlink:href="#Arial-BoldMT-36"/>
    </g>
   </g>
   <g id="text_18">
    <!-- 5 -->
    <g style="fill: #ffffff" transform="translate(133.552088 335.17775) scale(0.1 -0.1)">
     <defs>
      <path id="Arial-BoldMT-35" d="M 284 1178 
L 1159 1269 
Q 1197 972 1381 798 
Q 1566 625 1806 625 
Q 2081 625 2272 848 
Q 2463 1072 2463 1522 
Q 2463 1944 2273 2155 
Q 2084 2366 1781 2366 
Q 1403 2366 1103 2031 
L 391 2134 
L 841 4519 
L 3163 4519 
L 3163 3697 
L 1506 3697 
L 1369 2919 
Q 1663 3066 1969 3066 
Q 2553 3066 2959 2641 
Q 3366 2216 3366 1538 
Q 3366 972 3038 528 
Q 2591 -78 1797 -78 
Q 1163 -78 763 262 
Q 363 603 284 1178 
z
" transform="scale(0.015625)"/>
     </defs>
     <use xlink:href="#Arial-BoldMT-35"/>
    </g>
   </g>
   <g id="text_19">
    <!-- 4 -->
    <g style="fill: #ffffff" transform="translate(149.37027 336.90561) scale(0.1 -0.1)">
     <defs>
      <path id="Arial-BoldMT-34" d="M 1994 0 
L 1994 922 
L 119 922 
L 119 1691 
L 2106 4600 
L 2844 4600 
L 2844 1694 
L 3413 1694 
L 3413 922 
L 2844 922 
L 2844 0 
L 1994 0 
z
M 1994 1694 
L 1994 3259 
L 941 1694 
L 1994 1694 
z
" transform="scale(0.015625)"/>
     </defs>
     <use xlink:href="#Arial-BoldMT-34"/>
    </g>
   </g>
   <g id="text_20">
    <!-- 4 -->
    <g style="fill: #ffffff" transform="translate(165.188452 338.287898) scale(0.1 -0.1)">
     <use xlink:href="#Arial-BoldMT-34"/>
    </g>
   </g>
   <g id="text_21">
    <!-- 4 -->
    <g style="fill: #ffffff" transform="translate(181.006634 340.015759) scale(0.1 -0.1)">
     <use xlink:href="#Arial-BoldMT-34"/>
    </g>
   </g>
   <g id="text_22">
    <!-- 3 -->
    <g style="fill: #ffffff" transform="translate(196.824815 341.052475) scale(0.1 -0.1)">
     <defs>
      <path id="Arial-BoldMT-33" d="M 241 1216 
L 1091 1319 
Q 1131 994 1309 822 
Q 1488 650 1741 650 
Q 2013 650 2198 856 
Q 2384 1063 2384 1413 
Q 2384 1744 2206 1937 
Q 2028 2131 1772 2131 
Q 1603 2131 1369 2066 
L 1466 2781 
Q 1822 2772 2009 2936 
Q 2197 3100 2197 3372 
Q 2197 3603 2059 3740 
Q 1922 3878 1694 3878 
Q 1469 3878 1309 3722 
Q 1150 3566 1116 3266 
L 306 3403 
Q 391 3819 561 4067 
Q 731 4316 1036 4458 
Q 1341 4600 1719 4600 
Q 2366 4600 2756 4188 
Q 3078 3850 3078 3425 
Q 3078 2822 2419 2463 
Q 2813 2378 3048 2084 
Q 3284 1791 3284 1375 
Q 3284 772 2843 347 
Q 2403 -78 1747 -78 
Q 1125 -78 715 280 
Q 306 638 241 1216 
z
" transform="scale(0.015625)"/>
     </defs>
     <use xlink:href="#Arial-BoldMT-33"/>
    </g>
   </g>
   <g id="text_23">
    <!-- 34 -->
    <g style="fill: #ffffff" transform="translate(67.498892 179.54713) scale(0.1 -0.1)">
     <use xlink:href="#Arial-BoldMT-33"/>
     <use xlink:href="#Arial-BoldMT-34" x="55.615234"/>
    </g>
   </g>
   <g id="text_24">
    <!-- 36 -->
    <g style="fill: #ffffff" transform="translate(83.317074 176.782554) scale(0.1 -0.1)">
     <use xlink:href="#Arial-BoldMT-33"/>
     <use xlink:href="#Arial-BoldMT-36" x="55.615234"/>
    </g>
   </g>
   <g id="text_25">
    <!-- 38 -->
    <g style="fill: #ffffff" transform="translate(99.135256 174.709121) scale(0.1 -0.1)">
     <defs>
      <path id="Arial-BoldMT-38" d="M 1025 2472 
Q 684 2616 529 2867 
Q 375 3119 375 3419 
Q 375 3931 733 4265 
Q 1091 4600 1750 4600 
Q 2403 4600 2764 4265 
Q 3125 3931 3125 3419 
Q 3125 3100 2959 2851 
Q 2794 2603 2494 2472 
Q 2875 2319 3073 2025 
Q 3272 1731 3272 1347 
Q 3272 713 2867 316 
Q 2463 -81 1791 -81 
Q 1166 -81 750 247 
Q 259 634 259 1309 
Q 259 1681 443 1992 
Q 628 2303 1025 2472 
z
M 1206 3356 
Q 1206 3094 1354 2947 
Q 1503 2800 1750 2800 
Q 2000 2800 2150 2948 
Q 2300 3097 2300 3359 
Q 2300 3606 2151 3754 
Q 2003 3903 1759 3903 
Q 1506 3903 1356 3753 
Q 1206 3603 1206 3356 
z
M 1125 1394 
Q 1125 1031 1311 828 
Q 1497 625 1775 625 
Q 2047 625 2225 820 
Q 2403 1016 2403 1384 
Q 2403 1706 2222 1901 
Q 2041 2097 1763 2097 
Q 1441 2097 1283 1875 
Q 1125 1653 1125 1394 
z
" transform="scale(0.015625)"/>
     </defs>
     <use xlink:href="#Arial-BoldMT-33"/>
     <use xlink:href="#Arial-BoldMT-38" x="55.615234"/>
    </g>
   </g>
   <g id="text_26">
    <!-- 32 -->
    <g style="fill: #ffffff" transform="translate(114.953438 198.899167) scale(0.1 -0.1)">
     <defs>
      <path id="Arial-BoldMT-32" d="M 3238 816 
L 3238 0 
L 159 0 
Q 209 463 459 877 
Q 709 1291 1447 1975 
Q 2041 2528 2175 2725 
Q 2356 2997 2356 3263 
Q 2356 3556 2198 3714 
Q 2041 3872 1763 3872 
Q 1488 3872 1325 3706 
Q 1163 3541 1138 3156 
L 263 3244 
Q 341 3969 753 4284 
Q 1166 4600 1784 4600 
Q 2463 4600 2850 4234 
Q 3238 3869 3238 3325 
Q 3238 3016 3127 2736 
Q 3016 2456 2775 2150 
Q 2616 1947 2200 1565 
Q 1784 1184 1673 1059 
Q 1563 934 1494 816 
L 3238 816 
z
" transform="scale(0.015625)"/>
     </defs>
     <use xlink:href="#Arial-BoldMT-33"/>
     <use xlink:href="#Arial-BoldMT-32" x="55.615234"/>
    </g>
   </g>
   <g id="text_27">
    <!-- 31 -->
    <g style="fill: #ffffff" transform="translate(130.771619 207.88404) scale(0.1 -0.1)">
     <defs>
      <path id="Arial-BoldMT-31" d="M 2519 0 
L 1641 0 
L 1641 3309 
Q 1159 2859 506 2644 
L 506 3441 
Q 850 3553 1253 3867 
Q 1656 4181 1806 4600 
L 2519 4600 
L 2519 0 
z
" transform="scale(0.015625)"/>
     </defs>
     <use xlink:href="#Arial-BoldMT-33"/>
     <use xlink:href="#Arial-BoldMT-31" x="55.615234"/>
    </g>
   </g>
   <g id="text_28">
    <!-- 29 -->
    <g style="fill: #ffffff" transform="translate(146.589801 218.251203) scale(0.1 -0.1)">
     <defs>
      <path id="Arial-BoldMT-39" d="M 291 1059 
L 1141 1153 
Q 1172 894 1303 769 
Q 1434 644 1650 644 
Q 1922 644 2112 894 
Q 2303 1144 2356 1931 
Q 2025 1547 1528 1547 
Q 988 1547 595 1964 
Q 203 2381 203 3050 
Q 203 3747 617 4173 
Q 1031 4600 1672 4600 
Q 2369 4600 2816 4061 
Q 3263 3522 3263 2288 
Q 3263 1031 2797 475 
Q 2331 -81 1584 -81 
Q 1047 -81 715 205 
Q 384 491 291 1059 
z
M 2278 2978 
Q 2278 3403 2083 3637 
Q 1888 3872 1631 3872 
Q 1388 3872 1227 3680 
Q 1066 3488 1066 3050 
Q 1066 2606 1241 2398 
Q 1416 2191 1678 2191 
Q 1931 2191 2104 2391 
Q 2278 2591 2278 2978 
z
" transform="scale(0.015625)"/>
     </defs>
     <use xlink:href="#Arial-BoldMT-32"/>
     <use xlink:href="#Arial-BoldMT-39" x="55.615234"/>
    </g>
   </g>
   <g id="text_29">
    <!-- 28 -->
    <g style="fill: #ffffff" transform="translate(162.407983 223.780356) scale(0.1 -0.1)">
     <use xlink:href="#Arial-BoldMT-32"/>
     <use xlink:href="#Arial-BoldMT-38" x="55.615234"/>
    </g>
   </g>
   <g id="text_30">
    <!-- 26 -->
    <g style="fill: #ffffff" transform="translate(178.226165 232.76523) scale(0.1 -0.1)">
     <use xlink:href="#Arial-BoldMT-32"/>
     <use xlink:href="#Arial-BoldMT-36" x="55.615234"/>
    </g>
   </g>
   <g id="text_31">
    <!-- 28 -->
    <g style="fill: #ffffff" transform="translate(194.044347 230.691797) scale(0.1 -0.1)">
     <use xlink:href="#Arial-BoldMT-32"/>
     <use xlink:href="#Arial-BoldMT-38" x="55.615234"/>
    </g>
   </g>
   <g id="text_32">
    <!-- 26 -->
    <g style="fill: #ffffff" transform="translate(209.862528 240.367816) scale(0.1 -0.1)">
     <use xlink:href="#Arial-BoldMT-32"/>
     <use xlink:href="#Arial-BoldMT-36" x="55.615234"/>
    </g>
   </g>
   <g id="text_33">
    <!-- 24 -->
    <g style="fill: #ffffff" transform="translate(225.68071 247.279257) scale(0.1 -0.1)">
     <use xlink:href="#Arial-BoldMT-32"/>
     <use xlink:href="#Arial-BoldMT-34" x="55.615234"/>
    </g>
   </g>
   <g id="text_34">
    <!-- 23 -->
    <g style="fill: #ffffff" transform="translate(241.498892 250.389406) scale(0.1 -0.1)">
     <use xlink:href="#Arial-BoldMT-32"/>
     <use xlink:href="#Arial-BoldMT-33" x="55.615234"/>
    </g>
   </g>
   <g id="text_35">
    <!-- 22 -->
    <g style="fill: #ffffff" transform="translate(257.317074 254.190699) scale(0.1 -0.1)">
     <use xlink:href="#Arial-BoldMT-32"/>
     <use xlink:href="#Arial-BoldMT-32" x="55.615234"/>
    </g>
   </g>
   <g id="text_36">
    <!-- 22 -->
    <g style="fill: #ffffff" transform="translate(273.135256 257.991991) scale(0.1 -0.1)">
     <use xlink:href="#Arial-BoldMT-32"/>
     <use xlink:href="#Arial-BoldMT-32" x="55.615234"/>
    </g>
   </g>
   <g id="text_37">
    <!-- 21 -->
    <g style="fill: #ffffff" transform="translate(288.953438 261.793284) scale(0.1 -0.1)">
     <use xlink:href="#Arial-BoldMT-32"/>
     <use xlink:href="#Arial-BoldMT-31" x="55.615234"/>
    </g>
   </g>
   <g id="text_38">
    <!-- 20 -->
    <g style="fill: #ffffff" transform="translate(304.771619 264.557861) scale(0.1 -0.1)">
     <defs>
      <path id="Arial-BoldMT-30" d="M 1756 4600 
Q 2422 4600 2797 4125 
Q 3244 3563 3244 2259 
Q 3244 959 2794 391 
Q 2422 -78 1756 -78 
Q 1088 -78 678 436 
Q 269 950 269 2269 
Q 269 3563 719 4131 
Q 1091 4600 1756 4600 
z
M 1756 3872 
Q 1597 3872 1472 3770 
Q 1347 3669 1278 3406 
Q 1188 3066 1188 2259 
Q 1188 1453 1269 1151 
Q 1350 850 1473 750 
Q 1597 650 1756 650 
Q 1916 650 2041 751 
Q 2166 853 2234 1116 
Q 2325 1453 2325 2259 
Q 2325 3066 2244 3367 
Q 2163 3669 2039 3770 
Q 1916 3872 1756 3872 
z
" transform="scale(0.015625)"/>
     </defs>
     <use xlink:href="#Arial-BoldMT-32"/>
     <use xlink:href="#Arial-BoldMT-30" x="55.615234"/>
    </g>
   </g>
   <g id="text_39">
    <!-- 19 -->
    <g style="fill: #ffffff" transform="translate(320.589801 271.814874) scale(0.1 -0.1)">
     <use xlink:href="#Arial-BoldMT-31"/>
     <use xlink:href="#Arial-BoldMT-39" x="55.615234"/>
    </g>
   </g>
   <g id="text_40">
    <!-- 18 -->
    <g style="fill: #ffffff" transform="translate(336.407983 276.652883) scale(0.1 -0.1)">
     <use xlink:href="#Arial-BoldMT-31"/>
     <use xlink:href="#Arial-BoldMT-38" x="55.615234"/>
    </g>
   </g>
   <g id="text_41">
    <!-- 17 -->
    <g style="fill: #ffffff" transform="translate(352.226165 279.41746) scale(0.1 -0.1)">
     <use xlink:href="#Arial-BoldMT-31"/>
     <use xlink:href="#Arial-BoldMT-37" x="55.615234"/>
    </g>
   </g>
   <g id="text_42">
    <!-- 16 -->
    <g style="fill: #ffffff" transform="translate(368.044347 284.255469) scale(0.1 -0.1)">
     <use xlink:href="#Arial-BoldMT-31"/>
     <use xlink:href="#Arial-BoldMT-36" x="55.615234"/>
    </g>
   </g>
   <g id="text_43">
    <!-- 16 -->
    <g style="fill: #ffffff" transform="translate(383.862528 285.983329) scale(0.1 -0.1)">
     <use xlink:href="#Arial-BoldMT-31"/>
     <use xlink:href="#Arial-BoldMT-36" x="55.615234"/>
    </g>
   </g>
   <g id="text_44">
    <!-- 15 -->
    <g style="fill: #ffffff" transform="translate(399.68071 287.365618) scale(0.1 -0.1)">
     <use xlink:href="#Arial-BoldMT-31"/>
     <use xlink:href="#Arial-BoldMT-35" x="55.615234"/>
    </g>
   </g>
   <g id="text_45">
    <!-- 15 -->
    <g style="fill: #ffffff" transform="translate(415.498892 288.056762) scale(0.1 -0.1)">
     <use xlink:href="#Arial-BoldMT-31"/>
     <use xlink:href="#Arial-BoldMT-35" x="55.615234"/>
    </g>
   </g>
   <g id="text_46">
    <!-- 15 -->
    <g style="fill: #ffffff" transform="translate(431.317074 290.821338) scale(0.1 -0.1)">
     <use xlink:href="#Arial-BoldMT-31"/>
     <use xlink:href="#Arial-BoldMT-35" x="55.615234"/>
    </g>
   </g>
   <g id="text_47">
    <!-- 15 -->
    <g style="fill: #ffffff" transform="translate(447.135256 290.821338) scale(0.1 -0.1)">
     <use xlink:href="#Arial-BoldMT-31"/>
     <use xlink:href="#Arial-BoldMT-35" x="55.615234"/>
    </g>
   </g>
   <g id="text_48">
    <!-- 14 -->
    <g style="fill: #ffffff" transform="translate(462.953438 292.894771) scale(0.1 -0.1)">
     <use xlink:href="#Arial-BoldMT-31"/>
     <use xlink:href="#Arial-BoldMT-34" x="55.615234"/>
    </g>
   </g>
   <g id="text_49">
    <!-- 14 -->
    <g style="fill: #ffffff" transform="translate(478.771619 293.240343) scale(0.1 -0.1)">
     <use xlink:href="#Arial-BoldMT-31"/>
     <use xlink:href="#Arial-BoldMT-34" x="55.615234"/>
    </g>
   </g>
   <g id="text_50">
    <!-- 12 -->
    <g style="fill: #ffffff" transform="translate(494.589801 303.261933) scale(0.1 -0.1)">
     <use xlink:href="#Arial-BoldMT-31"/>
     <use xlink:href="#Arial-BoldMT-32" x="55.615234"/>
    </g>
   </g>
   <g id="text_51">
    <!-- 12 -->
    <g style="fill: #ffffff" transform="translate(510.407983 299.806212) scale(0.1 -0.1)">
     <use xlink:href="#Arial-BoldMT-31"/>
     <use xlink:href="#Arial-BoldMT-32" x="55.615234"/>
    </g>
   </g>
   <g id="text_52">
    <!-- US TB Incidence Rates by Origin of Birth, 1993-2021 -->
    <g style="fill: #262626" transform="translate(60.137812 21.771875) scale(0.2 -0.2)">
     <defs>
      <path id="ArialMT-55" d="M 3500 4581 
L 4106 4581 
L 4106 1934 
Q 4106 1244 3950 837 
Q 3794 431 3386 176 
Q 2978 -78 2316 -78 
Q 1672 -78 1262 144 
Q 853 366 678 786 
Q 503 1206 503 1934 
L 503 4581 
L 1109 4581 
L 1109 1938 
Q 1109 1341 1220 1058 
Q 1331 775 1601 622 
Q 1872 469 2263 469 
Q 2931 469 3215 772 
Q 3500 1075 3500 1938 
L 3500 4581 
z
" transform="scale(0.015625)"/>
      <path id="ArialMT-53" d="M 288 1472 
L 859 1522 
Q 900 1178 1048 958 
Q 1197 738 1509 602 
Q 1822 466 2213 466 
Q 2559 466 2825 569 
Q 3091 672 3220 851 
Q 3350 1031 3350 1244 
Q 3350 1459 3225 1620 
Q 3100 1781 2813 1891 
Q 2628 1963 1997 2114 
Q 1366 2266 1113 2400 
Q 784 2572 623 2826 
Q 463 3081 463 3397 
Q 463 3744 659 4045 
Q 856 4347 1234 4503 
Q 1613 4659 2075 4659 
Q 2584 4659 2973 4495 
Q 3363 4331 3572 4012 
Q 3781 3694 3797 3291 
L 3216 3247 
Q 3169 3681 2898 3903 
Q 2628 4125 2100 4125 
Q 1550 4125 1298 3923 
Q 1047 3722 1047 3438 
Q 1047 3191 1225 3031 
Q 1400 2872 2139 2705 
Q 2878 2538 3153 2413 
Q 3553 2228 3743 1945 
Q 3934 1663 3934 1294 
Q 3934 928 3725 604 
Q 3516 281 3123 101 
Q 2731 -78 2241 -78 
Q 1619 -78 1198 103 
Q 778 284 539 648 
Q 300 1013 288 1472 
z
" transform="scale(0.015625)"/>
      <path id="ArialMT-54" d="M 1659 0 
L 1659 4041 
L 150 4041 
L 150 4581 
L 3781 4581 
L 3781 4041 
L 2266 4041 
L 2266 0 
L 1659 0 
z
" transform="scale(0.015625)"/>
      <path id="ArialMT-42" d="M 469 0 
L 469 4581 
L 2188 4581 
Q 2713 4581 3030 4442 
Q 3347 4303 3526 4014 
Q 3706 3725 3706 3409 
Q 3706 3116 3547 2856 
Q 3388 2597 3066 2438 
Q 3481 2316 3704 2022 
Q 3928 1728 3928 1328 
Q 3928 1006 3792 729 
Q 3656 453 3456 303 
Q 3256 153 2954 76 
Q 2653 0 2216 0 
L 469 0 
z
M 1075 2656 
L 2066 2656 
Q 2469 2656 2644 2709 
Q 2875 2778 2992 2937 
Q 3109 3097 3109 3338 
Q 3109 3566 3000 3739 
Q 2891 3913 2687 3977 
Q 2484 4041 1991 4041 
L 1075 4041 
L 1075 2656 
z
M 1075 541 
L 2216 541 
Q 2509 541 2628 563 
Q 2838 600 2978 687 
Q 3119 775 3209 942 
Q 3300 1109 3300 1328 
Q 3300 1584 3169 1773 
Q 3038 1963 2805 2039 
Q 2572 2116 2134 2116 
L 1075 2116 
L 1075 541 
z
" transform="scale(0.015625)"/>
      <path id="ArialMT-73" d="M 197 991 
L 753 1078 
Q 800 744 1014 566 
Q 1228 388 1613 388 
Q 2000 388 2187 545 
Q 2375 703 2375 916 
Q 2375 1106 2209 1216 
Q 2094 1291 1634 1406 
Q 1016 1563 777 1677 
Q 538 1791 414 1992 
Q 291 2194 291 2438 
Q 291 2659 392 2848 
Q 494 3038 669 3163 
Q 800 3259 1026 3326 
Q 1253 3394 1513 3394 
Q 1903 3394 2198 3281 
Q 2494 3169 2634 2976 
Q 2775 2784 2828 2463 
L 2278 2388 
Q 2241 2644 2061 2787 
Q 1881 2931 1553 2931 
Q 1166 2931 1000 2803 
Q 834 2675 834 2503 
Q 834 2394 903 2306 
Q 972 2216 1119 2156 
Q 1203 2125 1616 2013 
Q 2213 1853 2448 1751 
Q 2684 1650 2818 1456 
Q 2953 1263 2953 975 
Q 2953 694 2789 445 
Q 2625 197 2315 61 
Q 2006 -75 1616 -75 
Q 969 -75 630 194 
Q 291 463 197 991 
z
" transform="scale(0.015625)"/>
      <path id="ArialMT-62" d="M 941 0 
L 419 0 
L 419 4581 
L 981 4581 
L 981 2947 
Q 1338 3394 1891 3394 
Q 2197 3394 2470 3270 
Q 2744 3147 2920 2923 
Q 3097 2700 3197 2384 
Q 3297 2069 3297 1709 
Q 3297 856 2875 390 
Q 2453 -75 1863 -75 
Q 1275 -75 941 416 
L 941 0 
z
M 934 1684 
Q 934 1088 1097 822 
Q 1363 388 1816 388 
Q 2184 388 2453 708 
Q 2722 1028 2722 1663 
Q 2722 2313 2464 2622 
Q 2206 2931 1841 2931 
Q 1472 2931 1203 2611 
Q 934 2291 934 1684 
z
" transform="scale(0.015625)"/>
      <path id="ArialMT-79" d="M 397 -1278 
L 334 -750 
Q 519 -800 656 -800 
Q 844 -800 956 -737 
Q 1069 -675 1141 -563 
Q 1194 -478 1313 -144 
Q 1328 -97 1363 -6 
L 103 3319 
L 709 3319 
L 1400 1397 
Q 1534 1031 1641 628 
Q 1738 1016 1872 1384 
L 2581 3319 
L 3144 3319 
L 1881 -56 
Q 1678 -603 1566 -809 
Q 1416 -1088 1222 -1217 
Q 1028 -1347 759 -1347 
Q 597 -1347 397 -1278 
z
" transform="scale(0.015625)"/>
      <path id="ArialMT-4f" d="M 309 2231 
Q 309 3372 921 4017 
Q 1534 4663 2503 4663 
Q 3138 4663 3647 4359 
Q 4156 4056 4423 3514 
Q 4691 2972 4691 2284 
Q 4691 1588 4409 1038 
Q 4128 488 3612 205 
Q 3097 -78 2500 -78 
Q 1853 -78 1343 234 
Q 834 547 571 1087 
Q 309 1628 309 2231 
z
M 934 2222 
Q 934 1394 1379 917 
Q 1825 441 2497 441 
Q 3181 441 3623 922 
Q 4066 1403 4066 2288 
Q 4066 2847 3877 3264 
Q 3688 3681 3323 3911 
Q 2959 4141 2506 4141 
Q 1863 4141 1398 3698 
Q 934 3256 934 2222 
z
" transform="scale(0.015625)"/>
      <path id="ArialMT-67" d="M 319 -275 
L 866 -356 
Q 900 -609 1056 -725 
Q 1266 -881 1628 -881 
Q 2019 -881 2231 -725 
Q 2444 -569 2519 -288 
Q 2563 -116 2559 434 
Q 2191 0 1641 0 
Q 956 0 581 494 
Q 206 988 206 1678 
Q 206 2153 378 2554 
Q 550 2956 876 3175 
Q 1203 3394 1644 3394 
Q 2231 3394 2613 2919 
L 2613 3319 
L 3131 3319 
L 3131 450 
Q 3131 -325 2973 -648 
Q 2816 -972 2473 -1159 
Q 2131 -1347 1631 -1347 
Q 1038 -1347 672 -1080 
Q 306 -813 319 -275 
z
M 784 1719 
Q 784 1066 1043 766 
Q 1303 466 1694 466 
Q 2081 466 2343 764 
Q 2606 1063 2606 1700 
Q 2606 2309 2336 2618 
Q 2066 2928 1684 2928 
Q 1309 2928 1046 2623 
Q 784 2319 784 1719 
z
" transform="scale(0.015625)"/>
      <path id="ArialMT-6f" d="M 213 1659 
Q 213 2581 725 3025 
Q 1153 3394 1769 3394 
Q 2453 3394 2887 2945 
Q 3322 2497 3322 1706 
Q 3322 1066 3130 698 
Q 2938 331 2570 128 
Q 2203 -75 1769 -75 
Q 1072 -75 642 372 
Q 213 819 213 1659 
z
M 791 1659 
Q 791 1022 1069 705 
Q 1347 388 1769 388 
Q 2188 388 2466 706 
Q 2744 1025 2744 1678 
Q 2744 2294 2464 2611 
Q 2184 2928 1769 2928 
Q 1347 2928 1069 2612 
Q 791 2297 791 1659 
z
" transform="scale(0.015625)"/>
      <path id="ArialMT-66" d="M 556 0 
L 556 2881 
L 59 2881 
L 59 3319 
L 556 3319 
L 556 3672 
Q 556 4006 616 4169 
Q 697 4388 901 4523 
Q 1106 4659 1475 4659 
Q 1713 4659 2000 4603 
L 1916 4113 
Q 1741 4144 1584 4144 
Q 1328 4144 1222 4034 
Q 1116 3925 1116 3625 
L 1116 3319 
L 1763 3319 
L 1763 2881 
L 1116 2881 
L 1116 0 
L 556 0 
z
" transform="scale(0.015625)"/>
      <path id="ArialMT-68" d="M 422 0 
L 422 4581 
L 984 4581 
L 984 2938 
Q 1378 3394 1978 3394 
Q 2347 3394 2619 3248 
Q 2891 3103 3008 2847 
Q 3125 2591 3125 2103 
L 3125 0 
L 2563 0 
L 2563 2103 
Q 2563 2525 2380 2717 
Q 2197 2909 1863 2909 
Q 1613 2909 1392 2779 
Q 1172 2650 1078 2428 
Q 984 2206 984 1816 
L 984 0 
L 422 0 
z
" transform="scale(0.015625)"/>
      <path id="ArialMT-2c" d="M 569 0 
L 569 641 
L 1209 641 
L 1209 0 
Q 1209 -353 1084 -570 
Q 959 -788 688 -906 
L 531 -666 
Q 709 -588 793 -436 
Q 878 -284 888 0 
L 569 0 
z
" transform="scale(0.015625)"/>
      <path id="ArialMT-2d" d="M 203 1375 
L 203 1941 
L 1931 1941 
L 1931 1375 
L 203 1375 
z
" transform="scale(0.015625)"/>
     </defs>
     <use xlink:href="#ArialMT-55"/>
     <use xlink:href="#ArialMT-53" x="72.216797"/>
     <use xlink:href="#ArialMT-20" x="138.916016"/>
     <use xlink:href="#ArialMT-54" x="164.949219"/>
     <use xlink:href="#ArialMT-42" x="226.033203"/>
     <use xlink:href="#ArialMT-20" x="292.732422"/>
     <use xlink:href="#ArialMT-49" x="320.515625"/>
     <use xlink:href="#ArialMT-6e" x="348.298828"/>
     <use xlink:href="#ArialMT-63" x="403.914062"/>
     <use xlink:href="#ArialMT-69" x="453.914062"/>
     <use xlink:href="#ArialMT-64" x="476.130859"/>
     <use xlink:href="#ArialMT-65" x="531.746094"/>
     <use xlink:href="#ArialMT-6e" x="587.361328"/>
     <use xlink:href="#ArialMT-63" x="642.976562"/>
     <use xlink:href="#ArialMT-65" x="692.976562"/>
     <use xlink:href="#ArialMT-20" x="748.591797"/>
     <use xlink:href="#ArialMT-52" x="776.375"/>
     <use xlink:href="#ArialMT-61" x="848.591797"/>
     <use xlink:href="#ArialMT-74" x="904.207031"/>
     <use xlink:href="#ArialMT-65" x="931.990234"/>
     <use xlink:href="#ArialMT-73" x="987.605469"/>
     <use xlink:href="#ArialMT-20" x="1037.605469"/>
     <use xlink:href="#ArialMT-62" x="1065.388672"/>
     <use xlink:href="#ArialMT-79" x="1121.003906"/>
     <use xlink:href="#ArialMT-20" x="1171.003906"/>
     <use xlink:href="#ArialMT-4f" x="1198.787109"/>
     <use xlink:href="#ArialMT-72" x="1276.570312"/>
     <use xlink:href="#ArialMT-69" x="1309.871094"/>
     <use xlink:href="#ArialMT-67" x="1332.087891"/>
     <use xlink:href="#ArialMT-69" x="1387.703125"/>
     <use xlink:href="#ArialMT-6e" x="1409.919922"/>
     <use xlink:href="#ArialMT-20" x="1465.535156"/>
     <use xlink:href="#ArialMT-6f" x="1493.318359"/>
     <use xlink:href="#ArialMT-66" x="1548.933594"/>
     <use xlink:href="#ArialMT-20" x="1576.716797"/>
     <use xlink:href="#ArialMT-42" x="1604.5"/>
     <use xlink:href="#ArialMT-69" x="1671.199219"/>
     <use xlink:href="#ArialMT-72" x="1693.416016"/>
     <use xlink:href="#ArialMT-74" x="1726.716797"/>
     <use xlink:href="#ArialMT-68" x="1754.5"/>
     <use xlink:href="#ArialMT-2c" x="1810.115234"/>
     <use xlink:href="#ArialMT-20" x="1837.898438"/>
     <use xlink:href="#ArialMT-31" x="1865.681641"/>
     <use xlink:href="#ArialMT-39" x="1921.296875"/>
     <use xlink:href="#ArialMT-39" x="1976.912109"/>
     <use xlink:href="#ArialMT-33" x="2032.527344"/>
     <use xlink:href="#ArialMT-2d" x="2088.142578"/>
     <use xlink:href="#ArialMT-32" x="2121.443359"/>
     <use xlink:href="#ArialMT-30" x="2177.058594"/>
     <use xlink:href="#ArialMT-32" x="2232.673828"/>
     <use xlink:href="#ArialMT-31" x="2288.289062"/>
    </g>
   </g>
   <g id="legend_1">
    <g id="patch_65">
     <path d="M 448.60875 43.929687 
L 468.60875 43.929687 
L 468.60875 36.929687 
L 448.60875 36.929687 
z
" style="fill: #1f77b4"/>
    </g>
    <g id="text_53">
     <!-- US Born -->
     <g style="fill: #262626" transform="translate(476.60875 43.929687) scale(0.1 -0.1)">
      <use xlink:href="#ArialMT-55"/>
      <use xlink:href="#ArialMT-53" x="72.216797"/>
      <use xlink:href="#ArialMT-20" x="138.916016"/>
      <use xlink:href="#ArialMT-42" x="166.699219"/>
      <use xlink:href="#ArialMT-6f" x="233.398438"/>
      <use xlink:href="#ArialMT-72" x="289.013672"/>
      <use xlink:href="#ArialMT-6e" x="322.314453"/>
     </g>
    </g>
    <g id="patch_66">
     <path d="M 448.60875 58.075 
L 468.60875 58.075 
L 468.60875 51.075 
L 448.60875 51.075 
z
" style="fill: #ff7f0e"/>
    </g>
    <g id="text_54">
     <!-- Non-US Born -->
     <g style="fill: #262626" transform="translate(476.60875 58.075) scale(0.1 -0.1)">
      <defs>
       <path id="ArialMT-4e" d="M 488 0 
L 488 4581 
L 1109 4581 
L 3516 984 
L 3516 4581 
L 4097 4581 
L 4097 0 
L 3475 0 
L 1069 3600 
L 1069 0 
L 488 0 
z
" transform="scale(0.015625)"/>
      </defs>
      <use xlink:href="#ArialMT-4e"/>
      <use xlink:href="#ArialMT-6f" x="72.216797"/>
      <use xlink:href="#ArialMT-6e" x="127.832031"/>
      <use xlink:href="#ArialMT-2d" x="183.447266"/>
      <use xlink:href="#ArialMT-55" x="216.748047"/>
      <use xlink:href="#ArialMT-53" x="288.964844"/>
      <use xlink:href="#ArialMT-20" x="355.664062"/>
      <use xlink:href="#ArialMT-42" x="383.447266"/>
      <use xlink:href="#ArialMT-6f" x="450.146484"/>
      <use xlink:href="#ArialMT-72" x="505.761719"/>
      <use xlink:href="#ArialMT-6e" x="539.0625"/>
     </g>
    </g>
   </g>
  </g>
 </g>
 <defs>
  <clipPath id="p692f91353a">
   <rect x="43.954375" y="27.771875" width="501.12" height="320.76"/>
  </clipPath>
 </defs>
</svg>
