<?xml version="1.0" encoding="utf-8" standalone="no"?>
<!DOCTYPE svg PUBLIC "-//W3C//DTD SVG 1.1//EN"
  "http://www.w3.org/Graphics/SVG/1.1/DTD/svg11.dtd">
<svg xmlns:xlink="http://www.w3.org/1999/xlink" width="563.159687pt" height="390.497187pt" viewBox="0 0 563.159687 390.497187" xmlns="http://www.w3.org/2000/svg" version="1.1">
 <metadata>
  <rdf:RDF xmlns:dc="http://purl.org/dc/elements/1.1/" xmlns:cc="http://creativecommons.org/ns#" xmlns:rdf="http://www.w3.org/1999/02/22-rdf-syntax-ns#">
   <cc:Work>
    <dc:type rdf:resource="http://purl.org/dc/dcmitype/StillImage"/>
    <dc:date>2023-11-10T12:43:12.115395</dc:date>
    <dc:format>image/svg+xml</dc:format>
    <dc:creator>
     <cc:Agent>
      <dc:title>Matplotlib v3.7.3, https://matplotlib.org/</dc:title>
     </cc:Agent>
    </dc:creator>
   </cc:Work>
  </rdf:RDF>
 </metadata>
 <defs>
  <style type="text/css">*{stroke-linejoin: round; stroke-linecap: butt}</style>
 </defs>
 <g id="figure_1">
  <g id="patch_1">
   <path d="M 0 390.497187 
L 563.159687 390.497187 
L 563.159687 0 
L 0 0 
z
" style="fill: #ffffff"/>
  </g>
  <g id="axes_1">
   <g id="patch_2">
    <path d="M 49.515313 348.519375 
L 550.635312 348.519375 
L 550.635312 27.759375 
L 49.515313 27.759375 
z
" style="fill: #eaeaf2"/>
   </g>
   <g id="matplotlib.axis_1">
    <g id="xtick_1">
     <g id="line2d_1">
      <path d="M 110.257131 348.519375 
L 110.257131 27.759375 
" clip-path="url(#p6507f590f8)" style="fill: none; stroke: #ffffff; stroke-linecap: round"/>
     </g>
     <g id="line2d_2"/>
     <g id="text_1">
      <!-- 1995 -->
      <g style="fill: #262626" transform="translate(99.135256 362.677188) scale(0.1 -0.1)">
       <defs>
        <path id="ArialMT-31" d="M 2384 0 
L 1822 0 
L 1822 3584 
Q 1619 3391 1289 3197 
Q 959 3003 697 2906 
L 697 3450 
Q 1169 3672 1522 3987 
Q 1875 4303 2022 4600 
L 2384 4600 
L 2384 0 
z
" transform="scale(0.015625)"/>
        <path id="ArialMT-39" d="M 350 1059 
L 891 1109 
Q 959 728 1153 556 
Q 1347 384 1650 384 
Q 1909 384 2104 503 
Q 2300 622 2425 820 
Q 2550 1019 2634 1356 
Q 2719 1694 2719 2044 
Q 2719 2081 2716 2156 
Q 2547 1888 2255 1720 
Q 1963 1553 1622 1553 
Q 1053 1553 659 1965 
Q 266 2378 266 3053 
Q 266 3750 677 4175 
Q 1088 4600 1706 4600 
Q 2153 4600 2523 4359 
Q 2894 4119 3086 3673 
Q 3278 3228 3278 2384 
Q 3278 1506 3087 986 
Q 2897 466 2520 194 
Q 2144 -78 1638 -78 
Q 1100 -78 759 220 
Q 419 519 350 1059 
z
M 2653 3081 
Q 2653 3566 2395 3850 
Q 2138 4134 1775 4134 
Q 1400 4134 1122 3828 
Q 844 3522 844 3034 
Q 844 2597 1108 2323 
Q 1372 2050 1759 2050 
Q 2150 2050 2401 2323 
Q 2653 2597 2653 3081 
z
" transform="scale(0.015625)"/>
        <path id="ArialMT-35" d="M 266 1200 
L 856 1250 
Q 922 819 1161 601 
Q 1400 384 1738 384 
Q 2144 384 2425 690 
Q 2706 997 2706 1503 
Q 2706 1984 2436 2262 
Q 2166 2541 1728 2541 
Q 1456 2541 1237 2417 
Q 1019 2294 894 2097 
L 366 2166 
L 809 4519 
L 3088 4519 
L 3088 3981 
L 1259 3981 
L 1013 2750 
Q 1425 3038 1878 3038 
Q 2478 3038 2890 2622 
Q 3303 2206 3303 1553 
Q 3303 931 2941 478 
Q 2500 -78 1738 -78 
Q 1113 -78 717 272 
Q 322 622 266 1200 
z
" transform="scale(0.015625)"/>
       </defs>
       <use xlink:href="#ArialMT-31"/>
       <use xlink:href="#ArialMT-39" x="55.615234"/>
       <use xlink:href="#ArialMT-39" x="111.230469"/>
       <use xlink:href="#ArialMT-35" x="166.845703"/>
      </g>
     </g>
    </g>
    <g id="xtick_2">
     <g id="line2d_3">
      <path d="M 189.34804 348.519375 
L 189.34804 27.759375 
" clip-path="url(#p6507f590f8)" style="fill: none; stroke: #ffffff; stroke-linecap: round"/>
     </g>
     <g id="line2d_4"/>
     <g id="text_2">
      <!-- 2000 -->
      <g style="fill: #262626" transform="translate(178.226165 362.677188) scale(0.1 -0.1)">
       <defs>
        <path id="ArialMT-32" d="M 3222 541 
L 3222 0 
L 194 0 
Q 188 203 259 391 
Q 375 700 629 1000 
Q 884 1300 1366 1694 
Q 2113 2306 2375 2664 
Q 2638 3022 2638 3341 
Q 2638 3675 2398 3904 
Q 2159 4134 1775 4134 
Q 1369 4134 1125 3890 
Q 881 3647 878 3216 
L 300 3275 
Q 359 3922 746 4261 
Q 1134 4600 1788 4600 
Q 2447 4600 2831 4234 
Q 3216 3869 3216 3328 
Q 3216 3053 3103 2787 
Q 2991 2522 2730 2228 
Q 2469 1934 1863 1422 
Q 1356 997 1212 845 
Q 1069 694 975 541 
L 3222 541 
z
" transform="scale(0.015625)"/>
        <path id="ArialMT-30" d="M 266 2259 
Q 266 3072 433 3567 
Q 600 4063 929 4331 
Q 1259 4600 1759 4600 
Q 2128 4600 2406 4451 
Q 2684 4303 2865 4023 
Q 3047 3744 3150 3342 
Q 3253 2941 3253 2259 
Q 3253 1453 3087 958 
Q 2922 463 2592 192 
Q 2263 -78 1759 -78 
Q 1097 -78 719 397 
Q 266 969 266 2259 
z
M 844 2259 
Q 844 1131 1108 757 
Q 1372 384 1759 384 
Q 2147 384 2411 759 
Q 2675 1134 2675 2259 
Q 2675 3391 2411 3762 
Q 2147 4134 1753 4134 
Q 1366 4134 1134 3806 
Q 844 3388 844 2259 
z
" transform="scale(0.015625)"/>
       </defs>
       <use xlink:href="#ArialMT-32"/>
       <use xlink:href="#ArialMT-30" x="55.615234"/>
       <use xlink:href="#ArialMT-30" x="111.230469"/>
       <use xlink:href="#ArialMT-30" x="166.845703"/>
      </g>
     </g>
    </g>
    <g id="xtick_3">
     <g id="line2d_5">
      <path d="M 268.438949 348.519375 
L 268.438949 27.759375 
" clip-path="url(#p6507f590f8)" style="fill: none; stroke: #ffffff; stroke-linecap: round"/>
     </g>
     <g id="line2d_6"/>
     <g id="text_3">
      <!-- 2005 -->
      <g style="fill: #262626" transform="translate(257.317074 362.677188) scale(0.1 -0.1)">
       <use xlink:href="#ArialMT-32"/>
       <use xlink:href="#ArialMT-30" x="55.615234"/>
       <use xlink:href="#ArialMT-30" x="111.230469"/>
       <use xlink:href="#ArialMT-35" x="166.845703"/>
      </g>
     </g>
    </g>
    <g id="xtick_4">
     <g id="line2d_7">
      <path d="M 347.529858 348.519375 
L 347.529858 27.759375 
" clip-path="url(#p6507f590f8)" style="fill: none; stroke: #ffffff; stroke-linecap: round"/>
     </g>
     <g id="line2d_8"/>
     <g id="text_4">
      <!-- 2010 -->
      <g style="fill: #262626" transform="translate(336.407983 362.677188) scale(0.1 -0.1)">
       <use xlink:href="#ArialMT-32"/>
       <use xlink:href="#ArialMT-30" x="55.615234"/>
       <use xlink:href="#ArialMT-31" x="111.230469"/>
       <use xlink:href="#ArialMT-30" x="166.845703"/>
      </g>
     </g>
    </g>
    <g id="xtick_5">
     <g id="line2d_9">
      <path d="M 426.620767 348.519375 
L 426.620767 27.759375 
" clip-path="url(#p6507f590f8)" style="fill: none; stroke: #ffffff; stroke-linecap: round"/>
     </g>
     <g id="line2d_10"/>
     <g id="text_5">
      <!-- 2015 -->
      <g style="fill: #262626" transform="translate(415.498892 362.677188) scale(0.1 -0.1)">
       <use xlink:href="#ArialMT-32"/>
       <use xlink:href="#ArialMT-30" x="55.615234"/>
       <use xlink:href="#ArialMT-31" x="111.230469"/>
       <use xlink:href="#ArialMT-35" x="166.845703"/>
      </g>
     </g>
    </g>
    <g id="xtick_6">
     <g id="line2d_11">
      <path d="M 505.711676 348.519375 
L 505.711676 27.759375 
" clip-path="url(#p6507f590f8)" style="fill: none; stroke: #ffffff; stroke-linecap: round"/>
     </g>
     <g id="line2d_12"/>
     <g id="text_6">
      <!-- 2020 -->
      <g style="fill: #262626" transform="translate(494.589801 362.677188) scale(0.1 -0.1)">
       <use xlink:href="#ArialMT-32"/>
       <use xlink:href="#ArialMT-30" x="55.615234"/>
       <use xlink:href="#ArialMT-32" x="111.230469"/>
       <use xlink:href="#ArialMT-30" x="166.845703"/>
      </g>
     </g>
    </g>
    <g id="text_7">
     <!-- Year -->
     <g style="fill: #262626" transform="translate(283.907812 380.117188) scale(0.16 -0.16)">
      <defs>
       <path id="ArialMT-59" d="M 1784 0 
L 1784 1941 
L 19 4581 
L 756 4581 
L 1659 3200 
Q 1909 2813 2125 2425 
Q 2331 2784 2625 3234 
L 3513 4581 
L 4219 4581 
L 2391 1941 
L 2391 0 
L 1784 0 
z
" transform="scale(0.015625)"/>
       <path id="ArialMT-65" d="M 2694 1069 
L 3275 997 
Q 3138 488 2766 206 
Q 2394 -75 1816 -75 
Q 1088 -75 661 373 
Q 234 822 234 1631 
Q 234 2469 665 2931 
Q 1097 3394 1784 3394 
Q 2450 3394 2872 2941 
Q 3294 2488 3294 1666 
Q 3294 1616 3291 1516 
L 816 1516 
Q 847 969 1125 678 
Q 1403 388 1819 388 
Q 2128 388 2347 550 
Q 2566 713 2694 1069 
z
M 847 1978 
L 2700 1978 
Q 2663 2397 2488 2606 
Q 2219 2931 1791 2931 
Q 1403 2931 1139 2672 
Q 875 2413 847 1978 
z
" transform="scale(0.015625)"/>
       <path id="ArialMT-61" d="M 2588 409 
Q 2275 144 1986 34 
Q 1697 -75 1366 -75 
Q 819 -75 525 192 
Q 231 459 231 875 
Q 231 1119 342 1320 
Q 453 1522 633 1644 
Q 813 1766 1038 1828 
Q 1203 1872 1538 1913 
Q 2219 1994 2541 2106 
Q 2544 2222 2544 2253 
Q 2544 2597 2384 2738 
Q 2169 2928 1744 2928 
Q 1347 2928 1158 2789 
Q 969 2650 878 2297 
L 328 2372 
Q 403 2725 575 2942 
Q 747 3159 1072 3276 
Q 1397 3394 1825 3394 
Q 2250 3394 2515 3294 
Q 2781 3194 2906 3042 
Q 3031 2891 3081 2659 
Q 3109 2516 3109 2141 
L 3109 1391 
Q 3109 606 3145 398 
Q 3181 191 3288 0 
L 2700 0 
Q 2613 175 2588 409 
z
M 2541 1666 
Q 2234 1541 1622 1453 
Q 1275 1403 1131 1340 
Q 988 1278 909 1158 
Q 831 1038 831 891 
Q 831 666 1001 516 
Q 1172 366 1500 366 
Q 1825 366 2078 508 
Q 2331 650 2450 897 
Q 2541 1088 2541 1459 
L 2541 1666 
z
" transform="scale(0.015625)"/>
       <path id="ArialMT-72" d="M 416 0 
L 416 3319 
L 922 3319 
L 922 2816 
Q 1116 3169 1280 3281 
Q 1444 3394 1641 3394 
Q 1925 3394 2219 3213 
L 2025 2691 
Q 1819 2813 1613 2813 
Q 1428 2813 1281 2702 
Q 1134 2591 1072 2394 
Q 978 2094 978 1738 
L 978 0 
L 416 0 
z
" transform="scale(0.015625)"/>
      </defs>
      <use xlink:href="#ArialMT-59"/>
      <use xlink:href="#ArialMT-65" x="57.574219"/>
      <use xlink:href="#ArialMT-61" x="113.189453"/>
      <use xlink:href="#ArialMT-72" x="168.804688"/>
     </g>
    </g>
   </g>
   <g id="matplotlib.axis_2">
    <g id="ytick_1">
     <g id="line2d_13">
      <path d="M 49.515313 348.519375 
L 550.635312 348.519375 
" clip-path="url(#p6507f590f8)" style="fill: none; stroke: #ffffff; stroke-linecap: round"/>
     </g>
     <g id="line2d_14"/>
     <g id="text_8">
      <!-- 0 -->
      <g style="fill: #262626" transform="translate(36.954375 352.098281) scale(0.1 -0.1)">
       <use xlink:href="#ArialMT-30"/>
      </g>
     </g>
    </g>
    <g id="ytick_2">
     <g id="line2d_15">
      <path d="M 49.515313 292.824623 
L 550.635312 292.824623 
" clip-path="url(#p6507f590f8)" style="fill: none; stroke: #ffffff; stroke-linecap: round"/>
     </g>
     <g id="line2d_16"/>
     <g id="text_9">
      <!-- 20 -->
      <g style="fill: #262626" transform="translate(31.393438 296.403529) scale(0.1 -0.1)">
       <use xlink:href="#ArialMT-32"/>
       <use xlink:href="#ArialMT-30" x="55.615234"/>
      </g>
     </g>
    </g>
    <g id="ytick_3">
     <g id="line2d_17">
      <path d="M 49.515313 237.129871 
L 550.635312 237.129871 
" clip-path="url(#p6507f590f8)" style="fill: none; stroke: #ffffff; stroke-linecap: round"/>
     </g>
     <g id="line2d_18"/>
     <g id="text_10">
      <!-- 40 -->
      <g style="fill: #262626" transform="translate(31.393438 240.708777) scale(0.1 -0.1)">
       <defs>
        <path id="ArialMT-34" d="M 2069 0 
L 2069 1097 
L 81 1097 
L 81 1613 
L 2172 4581 
L 2631 4581 
L 2631 1613 
L 3250 1613 
L 3250 1097 
L 2631 1097 
L 2631 0 
L 2069 0 
z
M 2069 1613 
L 2069 3678 
L 634 1613 
L 2069 1613 
z
" transform="scale(0.015625)"/>
       </defs>
       <use xlink:href="#ArialMT-34"/>
       <use xlink:href="#ArialMT-30" x="55.615234"/>
      </g>
     </g>
    </g>
    <g id="ytick_4">
     <g id="line2d_19">
      <path d="M 49.515313 181.435119 
L 550.635312 181.435119 
" clip-path="url(#p6507f590f8)" style="fill: none; stroke: #ffffff; stroke-linecap: round"/>
     </g>
     <g id="line2d_20"/>
     <g id="text_11">
      <!-- 60 -->
      <g style="fill: #262626" transform="translate(31.393438 185.014025) scale(0.1 -0.1)">
       <defs>
        <path id="ArialMT-36" d="M 3184 3459 
L 2625 3416 
Q 2550 3747 2413 3897 
Q 2184 4138 1850 4138 
Q 1581 4138 1378 3988 
Q 1113 3794 959 3422 
Q 806 3050 800 2363 
Q 1003 2672 1297 2822 
Q 1591 2972 1913 2972 
Q 2475 2972 2870 2558 
Q 3266 2144 3266 1488 
Q 3266 1056 3080 686 
Q 2894 316 2569 119 
Q 2244 -78 1831 -78 
Q 1128 -78 684 439 
Q 241 956 241 2144 
Q 241 3472 731 4075 
Q 1159 4600 1884 4600 
Q 2425 4600 2770 4297 
Q 3116 3994 3184 3459 
z
M 888 1484 
Q 888 1194 1011 928 
Q 1134 663 1356 523 
Q 1578 384 1822 384 
Q 2178 384 2434 671 
Q 2691 959 2691 1453 
Q 2691 1928 2437 2201 
Q 2184 2475 1800 2475 
Q 1419 2475 1153 2201 
Q 888 1928 888 1484 
z
" transform="scale(0.015625)"/>
       </defs>
       <use xlink:href="#ArialMT-36"/>
       <use xlink:href="#ArialMT-30" x="55.615234"/>
      </g>
     </g>
    </g>
    <g id="ytick_5">
     <g id="line2d_21">
      <path d="M 49.515313 125.740367 
L 550.635312 125.740367 
" clip-path="url(#p6507f590f8)" style="fill: none; stroke: #ffffff; stroke-linecap: round"/>
     </g>
     <g id="line2d_22"/>
     <g id="text_12">
      <!-- 80 -->
      <g style="fill: #262626" transform="translate(31.393438 129.319274) scale(0.1 -0.1)">
       <defs>
        <path id="ArialMT-38" d="M 1131 2484 
Q 781 2613 612 2850 
Q 444 3088 444 3419 
Q 444 3919 803 4259 
Q 1163 4600 1759 4600 
Q 2359 4600 2725 4251 
Q 3091 3903 3091 3403 
Q 3091 3084 2923 2848 
Q 2756 2613 2416 2484 
Q 2838 2347 3058 2040 
Q 3278 1734 3278 1309 
Q 3278 722 2862 322 
Q 2447 -78 1769 -78 
Q 1091 -78 675 323 
Q 259 725 259 1325 
Q 259 1772 486 2073 
Q 713 2375 1131 2484 
z
M 1019 3438 
Q 1019 3113 1228 2906 
Q 1438 2700 1772 2700 
Q 2097 2700 2305 2904 
Q 2513 3109 2513 3406 
Q 2513 3716 2298 3927 
Q 2084 4138 1766 4138 
Q 1444 4138 1231 3931 
Q 1019 3725 1019 3438 
z
M 838 1322 
Q 838 1081 952 856 
Q 1066 631 1291 507 
Q 1516 384 1775 384 
Q 2178 384 2440 643 
Q 2703 903 2703 1303 
Q 2703 1709 2433 1975 
Q 2163 2241 1756 2241 
Q 1359 2241 1098 1978 
Q 838 1716 838 1322 
z
" transform="scale(0.015625)"/>
       </defs>
       <use xlink:href="#ArialMT-38"/>
       <use xlink:href="#ArialMT-30" x="55.615234"/>
      </g>
     </g>
    </g>
    <g id="ytick_6">
     <g id="line2d_23">
      <path d="M 49.515313 70.045615 
L 550.635312 70.045615 
" clip-path="url(#p6507f590f8)" style="fill: none; stroke: #ffffff; stroke-linecap: round"/>
     </g>
     <g id="line2d_24"/>
     <g id="text_13">
      <!-- 100 -->
      <g style="fill: #262626" transform="translate(25.8325 73.624522) scale(0.1 -0.1)">
       <use xlink:href="#ArialMT-31"/>
       <use xlink:href="#ArialMT-30" x="55.615234"/>
       <use xlink:href="#ArialMT-30" x="111.230469"/>
      </g>
     </g>
    </g>
    <g id="text_14">
     <!-- Incidence Rate -->
     <g style="fill: #262626" transform="translate(18.6525 241.503125) rotate(-90) scale(0.16 -0.16)">
      <defs>
       <path id="ArialMT-49" d="M 597 0 
L 597 4581 
L 1203 4581 
L 1203 0 
L 597 0 
z
" transform="scale(0.015625)"/>
       <path id="ArialMT-6e" d="M 422 0 
L 422 3319 
L 928 3319 
L 928 2847 
Q 1294 3394 1984 3394 
Q 2284 3394 2536 3286 
Q 2788 3178 2913 3003 
Q 3038 2828 3088 2588 
Q 3119 2431 3119 2041 
L 3119 0 
L 2556 0 
L 2556 2019 
Q 2556 2363 2490 2533 
Q 2425 2703 2258 2804 
Q 2091 2906 1866 2906 
Q 1506 2906 1245 2678 
Q 984 2450 984 1813 
L 984 0 
L 422 0 
z
" transform="scale(0.015625)"/>
       <path id="ArialMT-63" d="M 2588 1216 
L 3141 1144 
Q 3050 572 2676 248 
Q 2303 -75 1759 -75 
Q 1078 -75 664 370 
Q 250 816 250 1647 
Q 250 2184 428 2587 
Q 606 2991 970 3192 
Q 1334 3394 1763 3394 
Q 2303 3394 2647 3120 
Q 2991 2847 3088 2344 
L 2541 2259 
Q 2463 2594 2264 2762 
Q 2066 2931 1784 2931 
Q 1359 2931 1093 2626 
Q 828 2322 828 1663 
Q 828 994 1084 691 
Q 1341 388 1753 388 
Q 2084 388 2306 591 
Q 2528 794 2588 1216 
z
" transform="scale(0.015625)"/>
       <path id="ArialMT-69" d="M 425 3934 
L 425 4581 
L 988 4581 
L 988 3934 
L 425 3934 
z
M 425 0 
L 425 3319 
L 988 3319 
L 988 0 
L 425 0 
z
" transform="scale(0.015625)"/>
       <path id="ArialMT-64" d="M 2575 0 
L 2575 419 
Q 2259 -75 1647 -75 
Q 1250 -75 917 144 
Q 584 363 401 755 
Q 219 1147 219 1656 
Q 219 2153 384 2558 
Q 550 2963 881 3178 
Q 1213 3394 1622 3394 
Q 1922 3394 2156 3267 
Q 2391 3141 2538 2938 
L 2538 4581 
L 3097 4581 
L 3097 0 
L 2575 0 
z
M 797 1656 
Q 797 1019 1065 703 
Q 1334 388 1700 388 
Q 2069 388 2326 689 
Q 2584 991 2584 1609 
Q 2584 2291 2321 2609 
Q 2059 2928 1675 2928 
Q 1300 2928 1048 2622 
Q 797 2316 797 1656 
z
" transform="scale(0.015625)"/>
       <path id="ArialMT-20" transform="scale(0.015625)"/>
       <path id="ArialMT-52" d="M 503 0 
L 503 4581 
L 2534 4581 
Q 3147 4581 3465 4457 
Q 3784 4334 3975 4021 
Q 4166 3709 4166 3331 
Q 4166 2844 3850 2509 
Q 3534 2175 2875 2084 
Q 3116 1969 3241 1856 
Q 3506 1613 3744 1247 
L 4541 0 
L 3778 0 
L 3172 953 
Q 2906 1366 2734 1584 
Q 2563 1803 2427 1890 
Q 2291 1978 2150 2013 
Q 2047 2034 1813 2034 
L 1109 2034 
L 1109 0 
L 503 0 
z
M 1109 2559 
L 2413 2559 
Q 2828 2559 3062 2645 
Q 3297 2731 3419 2920 
Q 3541 3109 3541 3331 
Q 3541 3656 3305 3865 
Q 3069 4075 2559 4075 
L 1109 4075 
L 1109 2559 
z
" transform="scale(0.015625)"/>
       <path id="ArialMT-74" d="M 1650 503 
L 1731 6 
Q 1494 -44 1306 -44 
Q 1000 -44 831 53 
Q 663 150 594 308 
Q 525 466 525 972 
L 525 2881 
L 113 2881 
L 113 3319 
L 525 3319 
L 525 4141 
L 1084 4478 
L 1084 3319 
L 1650 3319 
L 1650 2881 
L 1084 2881 
L 1084 941 
Q 1084 700 1114 631 
Q 1144 563 1211 522 
Q 1278 481 1403 481 
Q 1497 481 1650 503 
z
" transform="scale(0.015625)"/>
      </defs>
      <use xlink:href="#ArialMT-49"/>
      <use xlink:href="#ArialMT-6e" x="27.783203"/>
      <use xlink:href="#ArialMT-63" x="83.398438"/>
      <use xlink:href="#ArialMT-69" x="133.398438"/>
      <use xlink:href="#ArialMT-64" x="155.615234"/>
      <use xlink:href="#ArialMT-65" x="211.230469"/>
      <use xlink:href="#ArialMT-6e" x="266.845703"/>
      <use xlink:href="#ArialMT-63" x="322.460938"/>
      <use xlink:href="#ArialMT-65" x="372.460938"/>
      <use xlink:href="#ArialMT-20" x="428.076172"/>
      <use xlink:href="#ArialMT-52" x="455.859375"/>
      <use xlink:href="#ArialMT-61" x="528.076172"/>
      <use xlink:href="#ArialMT-74" x="583.691406"/>
      <use xlink:href="#ArialMT-65" x="611.474609"/>
     </g>
    </g>
   </g>
   <g id="patch_3">
    <path d="M 72.293494 348.519375 
L 84.94804 348.519375 
L 84.94804 231.003448 
L 72.293494 231.003448 
z
" clip-path="url(#p6507f590f8)" style="fill: #1f77b4"/>
   </g>
   <g id="patch_4">
    <path d="M 88.111676 348.519375 
L 100.766222 348.519375 
L 100.766222 229.332606 
L 88.111676 229.332606 
z
" clip-path="url(#p6507f590f8)" style="fill: #1f77b4"/>
   </g>
   <g id="patch_5">
    <path d="M 103.929858 348.519375 
L 116.584403 348.519375 
L 116.584403 227.661763 
L 103.929858 227.661763 
z
" clip-path="url(#p6507f590f8)" style="fill: #1f77b4"/>
   </g>
   <g id="patch_6">
    <path d="M 119.74804 348.519375 
L 132.402585 348.519375 
L 132.402585 237.408345 
L 119.74804 237.408345 
z
" clip-path="url(#p6507f590f8)" style="fill: #1f77b4"/>
   </g>
   <g id="patch_7">
    <path d="M 135.566222 348.519375 
L 148.220767 348.519375 
L 148.220767 241.028504 
L 135.566222 241.028504 
z
" clip-path="url(#p6507f590f8)" style="fill: #1f77b4"/>
   </g>
   <g id="patch_8">
    <path d="M 151.384403 348.519375 
L 164.038949 348.519375 
L 164.038949 249.382717 
L 151.384403 249.382717 
z
" clip-path="url(#p6507f590f8)" style="fill: #1f77b4"/>
   </g>
   <g id="patch_9">
    <path d="M 167.202585 348.519375 
L 179.857131 348.519375 
L 179.857131 252.445928 
L 167.202585 252.445928 
z
" clip-path="url(#p6507f590f8)" style="fill: #1f77b4"/>
   </g>
   <g id="patch_10">
    <path d="M 183.020767 348.519375 
L 195.675312 348.519375 
L 195.675312 261.357088 
L 183.020767 261.357088 
z
" clip-path="url(#p6507f590f8)" style="fill: #1f77b4"/>
   </g>
   <g id="patch_11">
    <path d="M 198.838949 348.519375 
L 211.493494 348.519375 
L 211.493494 262.470983 
L 198.838949 262.470983 
z
" clip-path="url(#p6507f590f8)" style="fill: #1f77b4"/>
   </g>
   <g id="patch_12">
    <path d="M 214.657131 348.519375 
L 227.311676 348.519375 
L 227.311676 269.989775 
L 214.657131 269.989775 
z
" clip-path="url(#p6507f590f8)" style="fill: #1f77b4"/>
   </g>
   <g id="patch_13">
    <path d="M 230.475312 348.519375 
L 243.129858 348.519375 
L 243.129858 266.926563 
L 230.475312 266.926563 
z
" clip-path="url(#p6507f590f8)" style="fill: #1f77b4"/>
   </g>
   <g id="patch_14">
    <path d="M 246.293494 348.519375 
L 258.94804 348.519375 
L 258.94804 272.496039 
L 246.293494 272.496039 
z
" clip-path="url(#p6507f590f8)" style="fill: #1f77b4"/>
   </g>
   <g id="patch_15">
    <path d="M 262.111676 348.519375 
L 274.766222 348.519375 
L 274.766222 278.065514 
L 262.111676 278.065514 
z
" clip-path="url(#p6507f590f8)" style="fill: #1f77b4"/>
   </g>
   <g id="patch_16">
    <path d="M 277.929858 348.519375 
L 290.584403 348.519375 
L 290.584403 278.622461 
L 277.929858 278.622461 
z
" clip-path="url(#p6507f590f8)" style="fill: #1f77b4"/>
   </g>
   <g id="patch_17">
    <path d="M 293.74804 348.519375 
L 306.402585 348.519375 
L 306.402585 277.508566 
L 293.74804 277.508566 
z
" clip-path="url(#p6507f590f8)" style="fill: #1f77b4"/>
   </g>
   <g id="patch_18">
    <path d="M 309.566222 348.519375 
L 322.220767 348.519375 
L 322.220767 280.293304 
L 309.566222 280.293304 
z
" clip-path="url(#p6507f590f8)" style="fill: #1f77b4"/>
   </g>
   <g id="patch_19">
    <path d="M 325.384403 348.519375 
L 338.038949 348.519375 
L 338.038949 286.419727 
L 325.384403 286.419727 
z
" clip-path="url(#p6507f590f8)" style="fill: #1f77b4"/>
   </g>
   <g id="patch_20">
    <path d="M 341.202585 348.519375 
L 353.857131 348.519375 
L 353.857131 288.92599 
L 341.202585 288.92599 
z
" clip-path="url(#p6507f590f8)" style="fill: #1f77b4"/>
   </g>
   <g id="patch_21">
    <path d="M 357.020767 348.519375 
L 369.675312 348.519375 
L 369.675312 290.875307 
L 357.020767 290.875307 
z
" clip-path="url(#p6507f590f8)" style="fill: #1f77b4"/>
   </g>
   <g id="patch_22">
    <path d="M 372.838949 348.519375 
L 385.493494 348.519375 
L 385.493494 294.773939 
L 372.838949 294.773939 
z
" clip-path="url(#p6507f590f8)" style="fill: #1f77b4"/>
   </g>
   <g id="patch_23">
    <path d="M 388.657131 348.519375 
L 401.311676 348.519375 
L 401.311676 295.330887 
L 388.657131 295.330887 
z
" clip-path="url(#p6507f590f8)" style="fill: #1f77b4"/>
   </g>
   <g id="patch_24">
    <path d="M 404.475312 348.519375 
L 417.129858 348.519375 
L 417.129858 297.280203 
L 404.475312 297.280203 
z
" clip-path="url(#p6507f590f8)" style="fill: #1f77b4"/>
   </g>
   <g id="patch_25">
    <path d="M 420.293494 348.519375 
L 432.94804 348.519375 
L 432.94804 295.609361 
L 420.293494 295.609361 
z
" clip-path="url(#p6507f590f8)" style="fill: #1f77b4"/>
   </g>
   <g id="patch_26">
    <path d="M 436.111676 348.519375 
L 448.766222 348.519375 
L 448.766222 298.394098 
L 436.111676 298.394098 
z
" clip-path="url(#p6507f590f8)" style="fill: #1f77b4"/>
   </g>
   <g id="patch_27">
    <path d="M 451.929858 348.519375 
L 464.584403 348.519375 
L 464.584403 298.951046 
L 451.929858 298.951046 
z
" clip-path="url(#p6507f590f8)" style="fill: #1f77b4"/>
   </g>
   <g id="patch_28">
    <path d="M 467.74804 348.519375 
L 480.402585 348.519375 
L 480.402585 300.621888 
L 467.74804 300.621888 
z
" clip-path="url(#p6507f590f8)" style="fill: #1f77b4"/>
   </g>
   <g id="patch_29">
    <path d="M 483.566222 348.519375 
L 496.220767 348.519375 
L 496.220767 302.292731 
L 483.566222 302.292731 
z
" clip-path="url(#p6507f590f8)" style="fill: #1f77b4"/>
   </g>
   <g id="patch_30">
    <path d="M 499.384403 348.519375 
L 512.038949 348.519375 
L 512.038949 311.760839 
L 499.384403 311.760839 
z
" clip-path="url(#p6507f590f8)" style="fill: #1f77b4"/>
   </g>
   <g id="patch_31">
    <path d="M 515.202585 348.519375 
L 527.857131 348.519375 
L 527.857131 308.419154 
L 515.202585 308.419154 
z
" clip-path="url(#p6507f590f8)" style="fill: #1f77b4"/>
   </g>
   <g id="patch_32">
    <path d="M 72.293494 231.003448 
L 84.94804 231.003448 
L 84.94804 149.967584 
L 72.293494 149.967584 
z
" clip-path="url(#p6507f590f8)" style="fill: #ff7f0e"/>
   </g>
   <g id="patch_33">
    <path d="M 88.111676 229.332606 
L 100.766222 229.332606 
L 100.766222 154.423165 
L 88.111676 154.423165 
z
" clip-path="url(#p6507f590f8)" style="fill: #ff7f0e"/>
   </g>
   <g id="patch_34">
    <path d="M 103.929858 227.661763 
L 116.584403 227.661763 
L 116.584403 161.106535 
L 103.929858 161.106535 
z
" clip-path="url(#p6507f590f8)" style="fill: #ff7f0e"/>
   </g>
   <g id="patch_35">
    <path d="M 119.74804 237.408345 
L 132.402585 237.408345 
L 132.402585 175.58717 
L 119.74804 175.58717 
z
" clip-path="url(#p6507f590f8)" style="fill: #ff7f0e"/>
   </g>
   <g id="patch_36">
    <path d="M 135.566222 241.028504 
L 148.220767 241.028504 
L 148.220767 184.219857 
L 135.566222 184.219857 
z
" clip-path="url(#p6507f590f8)" style="fill: #ff7f0e"/>
   </g>
   <g id="patch_37">
    <path d="M 151.384403 249.382717 
L 164.038949 249.382717 
L 164.038949 199.814387 
L 151.384403 199.814387 
z
" clip-path="url(#p6507f590f8)" style="fill: #ff7f0e"/>
   </g>
   <g id="patch_38">
    <path d="M 167.202585 252.445928 
L 179.857131 252.445928 
L 179.857131 205.662336 
L 167.202585 205.662336 
z
" clip-path="url(#p6507f590f8)" style="fill: #ff7f0e"/>
   </g>
   <g id="patch_39">
    <path d="M 183.020767 261.357088 
L 195.675312 261.357088 
L 195.675312 219.586024 
L 183.020767 219.586024 
z
" clip-path="url(#p6507f590f8)" style="fill: #ff7f0e"/>
   </g>
   <g id="patch_40">
    <path d="M 198.838949 262.470983 
L 211.493494 262.470983 
L 211.493494 224.320078 
L 198.838949 224.320078 
z
" clip-path="url(#p6507f590f8)" style="fill: #ff7f0e"/>
   </g>
   <g id="patch_41">
    <path d="M 214.657131 269.989775 
L 227.311676 269.989775 
L 227.311676 234.623607 
L 214.657131 234.623607 
z
" clip-path="url(#p6507f590f8)" style="fill: #ff7f0e"/>
   </g>
   <g id="patch_42">
    <path d="M 230.475312 266.926563 
L 243.129858 266.926563 
L 243.129858 234.345134 
L 230.475312 234.345134 
z
" clip-path="url(#p6507f590f8)" style="fill: #ff7f0e"/>
   </g>
   <g id="patch_43">
    <path d="M 246.293494 272.496039 
L 258.94804 272.496039 
L 258.94804 240.75003 
L 246.293494 240.75003 
z
" clip-path="url(#p6507f590f8)" style="fill: #ff7f0e"/>
   </g>
   <g id="patch_44">
    <path d="M 262.111676 278.065514 
L 274.766222 278.065514 
L 274.766222 247.711874 
L 262.111676 247.711874 
z
" clip-path="url(#p6507f590f8)" style="fill: #ff7f0e"/>
   </g>
   <g id="patch_45">
    <path d="M 277.929858 278.622461 
L 290.584403 278.622461 
L 290.584403 250.218138 
L 277.929858 250.218138 
z
" clip-path="url(#p6507f590f8)" style="fill: #ff7f0e"/>
   </g>
   <g id="patch_46">
    <path d="M 293.74804 277.508566 
L 306.402585 277.508566 
L 306.402585 251.332033 
L 293.74804 251.332033 
z
" clip-path="url(#p6507f590f8)" style="fill: #ff7f0e"/>
   </g>
   <g id="patch_47">
    <path d="M 309.566222 280.293304 
L 322.220767 280.293304 
L 322.220767 255.787613 
L 309.566222 255.787613 
z
" clip-path="url(#p6507f590f8)" style="fill: #ff7f0e"/>
   </g>
   <g id="patch_48">
    <path d="M 325.384403 286.419727 
L 338.038949 286.419727 
L 338.038949 265.255721 
L 325.384403 265.255721 
z
" clip-path="url(#p6507f590f8)" style="fill: #ff7f0e"/>
   </g>
   <g id="patch_49">
    <path d="M 341.202585 288.92599 
L 353.857131 288.92599 
L 353.857131 269.432827 
L 341.202585 269.432827 
z
" clip-path="url(#p6507f590f8)" style="fill: #ff7f0e"/>
   </g>
   <g id="patch_50">
    <path d="M 357.020767 290.875307 
L 369.675312 290.875307 
L 369.675312 273.609934 
L 357.020767 273.609934 
z
" clip-path="url(#p6507f590f8)" style="fill: #ff7f0e"/>
   </g>
   <g id="patch_51">
    <path d="M 372.838949 294.773939 
L 385.493494 294.773939 
L 385.493494 278.622461 
L 372.838949 278.622461 
z
" clip-path="url(#p6507f590f8)" style="fill: #ff7f0e"/>
   </g>
   <g id="patch_52">
    <path d="M 388.657131 295.330887 
L 401.311676 295.330887 
L 401.311676 280.571778 
L 388.657131 280.571778 
z
" clip-path="url(#p6507f590f8)" style="fill: #ff7f0e"/>
   </g>
   <g id="patch_53">
    <path d="M 404.475312 297.280203 
L 417.129858 297.280203 
L 417.129858 283.078041 
L 404.475312 283.078041 
z
" clip-path="url(#p6507f590f8)" style="fill: #ff7f0e"/>
   </g>
   <g id="patch_54">
    <path d="M 420.293494 295.609361 
L 432.94804 295.609361 
L 432.94804 281.685673 
L 420.293494 281.685673 
z
" clip-path="url(#p6507f590f8)" style="fill: #ff7f0e"/>
   </g>
   <g id="patch_55">
    <path d="M 436.111676 298.394098 
L 448.766222 298.394098 
L 448.766222 284.748884 
L 436.111676 284.748884 
z
" clip-path="url(#p6507f590f8)" style="fill: #ff7f0e"/>
   </g>
   <g id="patch_56">
    <path d="M 451.929858 298.951046 
L 464.584403 298.951046 
L 464.584403 285.862779 
L 451.929858 285.862779 
z
" clip-path="url(#p6507f590f8)" style="fill: #ff7f0e"/>
   </g>
   <g id="patch_57">
    <path d="M 467.74804 300.621888 
L 480.402585 300.621888 
L 480.402585 288.369043 
L 467.74804 288.369043 
z
" clip-path="url(#p6507f590f8)" style="fill: #ff7f0e"/>
   </g>
   <g id="patch_58">
    <path d="M 483.566222 302.292731 
L 496.220767 302.292731 
L 496.220767 290.318359 
L 483.566222 290.318359 
z
" clip-path="url(#p6507f590f8)" style="fill: #ff7f0e"/>
   </g>
   <g id="patch_59">
    <path d="M 499.384403 311.760839 
L 512.038949 311.760839 
L 512.038949 302.292731 
L 499.384403 302.292731 
z
" clip-path="url(#p6507f590f8)" style="fill: #ff7f0e"/>
   </g>
   <g id="patch_60">
    <path d="M 515.202585 308.419154 
L 527.857131 308.419154 
L 527.857131 298.951046 
L 515.202585 298.951046 
z
" clip-path="url(#p6507f590f8)" style="fill: #ff7f0e"/>
   </g>
   <g id="patch_61">
    <path d="M 72.293494 149.967584 
L 84.94804 149.967584 
L 84.94804 93.158937 
L 72.293494 93.158937 
z
" clip-path="url(#p6507f590f8)" style="fill: #2ca02c"/>
   </g>
   <g id="patch_62">
    <path d="M 88.111676 154.423165 
L 100.766222 154.423165 
L 100.766222 100.956203 
L 88.111676 100.956203 
z
" clip-path="url(#p6507f590f8)" style="fill: #2ca02c"/>
   </g>
   <g id="patch_63">
    <path d="M 103.929858 161.106535 
L 116.584403 161.106535 
L 116.584403 111.538206 
L 103.929858 111.538206 
z
" clip-path="url(#p6507f590f8)" style="fill: #2ca02c"/>
   </g>
   <g id="patch_64">
    <path d="M 119.74804 175.58717 
L 132.402585 175.58717 
L 132.402585 131.031369 
L 119.74804 131.031369 
z
" clip-path="url(#p6507f590f8)" style="fill: #2ca02c"/>
   </g>
   <g id="patch_65">
    <path d="M 135.566222 184.219857 
L 148.220767 184.219857 
L 148.220767 143.841162 
L 135.566222 143.841162 
z
" clip-path="url(#p6507f590f8)" style="fill: #2ca02c"/>
   </g>
   <g id="patch_66">
    <path d="M 151.384403 199.814387 
L 164.038949 199.814387 
L 164.038949 162.22043 
L 151.384403 162.22043 
z
" clip-path="url(#p6507f590f8)" style="fill: #2ca02c"/>
   </g>
   <g id="patch_67">
    <path d="M 167.202585 205.662336 
L 179.857131 205.662336 
L 179.857131 171.410064 
L 167.202585 171.410064 
z
" clip-path="url(#p6507f590f8)" style="fill: #2ca02c"/>
   </g>
   <g id="patch_68">
    <path d="M 183.020767 219.586024 
L 195.675312 219.586024 
L 195.675312 189.789332 
L 183.020767 189.789332 
z
" clip-path="url(#p6507f590f8)" style="fill: #2ca02c"/>
   </g>
   <g id="patch_69">
    <path d="M 198.838949 224.320078 
L 211.493494 224.320078 
L 211.493494 194.244912 
L 198.838949 194.244912 
z
" clip-path="url(#p6507f590f8)" style="fill: #2ca02c"/>
   </g>
   <g id="patch_70">
    <path d="M 214.657131 234.623607 
L 227.311676 234.623607 
L 227.311676 205.94081 
L 214.657131 205.94081 
z
" clip-path="url(#p6507f590f8)" style="fill: #2ca02c"/>
   </g>
   <g id="patch_71">
    <path d="M 230.475312 234.345134 
L 243.129858 234.345134 
L 243.129858 205.94081 
L 230.475312 205.94081 
z
" clip-path="url(#p6507f590f8)" style="fill: #2ca02c"/>
   </g>
   <g id="patch_72">
    <path d="M 246.293494 240.75003 
L 258.94804 240.75003 
L 258.94804 212.62418 
L 246.293494 212.62418 
z
" clip-path="url(#p6507f590f8)" style="fill: #2ca02c"/>
   </g>
   <g id="patch_73">
    <path d="M 262.111676 247.711874 
L 274.766222 247.711874 
L 274.766222 221.535341 
L 262.111676 221.535341 
z
" clip-path="url(#p6507f590f8)" style="fill: #2ca02c"/>
   </g>
   <g id="patch_74">
    <path d="M 277.929858 250.218138 
L 290.584403 250.218138 
L 290.584403 224.877026 
L 277.929858 224.877026 
z
" clip-path="url(#p6507f590f8)" style="fill: #2ca02c"/>
   </g>
   <g id="patch_75">
    <path d="M 293.74804 251.332033 
L 306.402585 251.332033 
L 306.402585 227.940237 
L 293.74804 227.940237 
z
" clip-path="url(#p6507f590f8)" style="fill: #2ca02c"/>
   </g>
   <g id="patch_76">
    <path d="M 309.566222 255.787613 
L 322.220767 255.787613 
L 322.220767 233.509712 
L 309.566222 233.509712 
z
" clip-path="url(#p6507f590f8)" style="fill: #2ca02c"/>
   </g>
   <g id="patch_77">
    <path d="M 325.384403 265.255721 
L 338.038949 265.255721 
L 338.038949 246.319505 
L 325.384403 246.319505 
z
" clip-path="url(#p6507f590f8)" style="fill: #2ca02c"/>
   </g>
   <g id="patch_78">
    <path d="M 341.202585 269.432827 
L 353.857131 269.432827 
L 353.857131 251.88898 
L 341.202585 251.88898 
z
" clip-path="url(#p6507f590f8)" style="fill: #2ca02c"/>
   </g>
   <g id="patch_79">
    <path d="M 357.020767 273.609934 
L 369.675312 273.609934 
L 369.675312 257.458456 
L 357.020767 257.458456 
z
" clip-path="url(#p6507f590f8)" style="fill: #2ca02c"/>
   </g>
   <g id="patch_80">
    <path d="M 372.838949 278.622461 
L 385.493494 278.622461 
L 385.493494 263.863352 
L 372.838949 263.863352 
z
" clip-path="url(#p6507f590f8)" style="fill: #2ca02c"/>
   </g>
   <g id="patch_81">
    <path d="M 388.657131 280.571778 
L 401.311676 280.571778 
L 401.311676 266.64809 
L 388.657131 266.64809 
z
" clip-path="url(#p6507f590f8)" style="fill: #2ca02c"/>
   </g>
   <g id="patch_82">
    <path d="M 404.475312 283.078041 
L 417.129858 283.078041 
L 417.129858 269.154354 
L 404.475312 269.154354 
z
" clip-path="url(#p6507f590f8)" style="fill: #2ca02c"/>
   </g>
   <g id="patch_83">
    <path d="M 420.293494 281.685673 
L 432.94804 281.685673 
L 432.94804 268.318932 
L 420.293494 268.318932 
z
" clip-path="url(#p6507f590f8)" style="fill: #2ca02c"/>
   </g>
   <g id="patch_84">
    <path d="M 436.111676 284.748884 
L 448.766222 284.748884 
L 448.766222 272.217565 
L 436.111676 272.217565 
z
" clip-path="url(#p6507f590f8)" style="fill: #2ca02c"/>
   </g>
   <g id="patch_85">
    <path d="M 451.929858 285.862779 
L 464.584403 285.862779 
L 464.584403 273.609934 
L 451.929858 273.609934 
z
" clip-path="url(#p6507f590f8)" style="fill: #2ca02c"/>
   </g>
   <g id="patch_86">
    <path d="M 467.74804 288.369043 
L 480.402585 288.369043 
L 480.402585 276.116198 
L 467.74804 276.116198 
z
" clip-path="url(#p6507f590f8)" style="fill: #2ca02c"/>
   </g>
   <g id="patch_87">
    <path d="M 483.566222 290.318359 
L 496.220767 290.318359 
L 496.220767 277.78704 
L 483.566222 277.78704 
z
" clip-path="url(#p6507f590f8)" style="fill: #2ca02c"/>
   </g>
   <g id="patch_88">
    <path d="M 499.384403 302.292731 
L 512.038949 302.292731 
L 512.038949 292.824623 
L 499.384403 292.824623 
z
" clip-path="url(#p6507f590f8)" style="fill: #2ca02c"/>
   </g>
   <g id="patch_89">
    <path d="M 515.202585 298.951046 
L 527.857131 298.951046 
L 527.857131 288.369043 
L 515.202585 288.369043 
z
" clip-path="url(#p6507f590f8)" style="fill: #2ca02c"/>
   </g>
   <g id="patch_90">
    <path d="M 72.293494 93.158937 
L 84.94804 93.158937 
L 84.94804 53.058716 
L 72.293494 53.058716 
z
" clip-path="url(#p6507f590f8)" style="fill: #d62728"/>
   </g>
   <g id="patch_91">
    <path d="M 88.111676 100.956203 
L 100.766222 100.956203 
L 100.766222 53.33719 
L 88.111676 53.33719 
z
" clip-path="url(#p6507f590f8)" style="fill: #d62728"/>
   </g>
   <g id="patch_92">
    <path d="M 103.929858 111.538206 
L 116.584403 111.538206 
L 116.584403 65.590035 
L 103.929858 65.590035 
z
" clip-path="url(#p6507f590f8)" style="fill: #d62728"/>
   </g>
   <g id="patch_93">
    <path d="M 119.74804 131.031369 
L 132.402585 131.031369 
L 132.402585 90.095726 
L 119.74804 90.095726 
z
" clip-path="url(#p6507f590f8)" style="fill: #d62728"/>
   </g>
   <g id="patch_94">
    <path d="M 135.566222 143.841162 
L 148.220767 143.841162 
L 148.220767 106.804152 
L 135.566222 106.804152 
z
" clip-path="url(#p6507f590f8)" style="fill: #d62728"/>
   </g>
   <g id="patch_95">
    <path d="M 151.384403 162.22043 
L 164.038949 162.22043 
L 164.038949 126.854262 
L 151.384403 126.854262 
z
" clip-path="url(#p6507f590f8)" style="fill: #d62728"/>
   </g>
   <g id="patch_96">
    <path d="M 167.202585 171.410064 
L 179.857131 171.410064 
L 179.857131 138.271686 
L 167.202585 138.271686 
z
" clip-path="url(#p6507f590f8)" style="fill: #d62728"/>
   </g>
   <g id="patch_97">
    <path d="M 183.020767 189.789332 
L 195.675312 189.789332 
L 195.675312 159.157218 
L 183.020767 159.157218 
z
" clip-path="url(#p6507f590f8)" style="fill: #d62728"/>
   </g>
   <g id="patch_98">
    <path d="M 198.838949 194.244912 
L 211.493494 194.244912 
L 211.493494 164.44822 
L 198.838949 164.44822 
z
" clip-path="url(#p6507f590f8)" style="fill: #d62728"/>
   </g>
   <g id="patch_99">
    <path d="M 214.657131 205.94081 
L 227.311676 205.94081 
L 227.311676 181.713593 
L 214.657131 181.713593 
z
" clip-path="url(#p6507f590f8)" style="fill: #d62728"/>
   </g>
   <g id="patch_100">
    <path d="M 230.475312 205.94081 
L 243.129858 205.94081 
L 243.129858 182.827488 
L 230.475312 182.827488 
z
" clip-path="url(#p6507f590f8)" style="fill: #d62728"/>
   </g>
   <g id="patch_101">
    <path d="M 246.293494 212.62418 
L 258.94804 212.62418 
L 258.94804 192.57407 
L 246.293494 192.57407 
z
" clip-path="url(#p6507f590f8)" style="fill: #d62728"/>
   </g>
   <g id="patch_102">
    <path d="M 262.111676 221.535341 
L 274.766222 221.535341 
L 274.766222 202.042177 
L 262.111676 202.042177 
z
" clip-path="url(#p6507f590f8)" style="fill: #d62728"/>
   </g>
   <g id="patch_103">
    <path d="M 277.929858 224.877026 
L 290.584403 224.877026 
L 290.584403 203.991494 
L 277.929858 203.991494 
z
" clip-path="url(#p6507f590f8)" style="fill: #d62728"/>
   </g>
   <g id="patch_104">
    <path d="M 293.74804 227.940237 
L 306.402585 227.940237 
L 306.402585 211.510285 
L 293.74804 211.510285 
z
" clip-path="url(#p6507f590f8)" style="fill: #d62728"/>
   </g>
   <g id="patch_105">
    <path d="M 309.566222 233.509712 
L 322.220767 233.509712 
L 322.220767 216.522813 
L 309.566222 216.522813 
z
" clip-path="url(#p6507f590f8)" style="fill: #d62728"/>
   </g>
   <g id="patch_106">
    <path d="M 325.384403 246.319505 
L 338.038949 246.319505 
L 338.038949 233.788186 
L 325.384403 233.788186 
z
" clip-path="url(#p6507f590f8)" style="fill: #d62728"/>
   </g>
   <g id="patch_107">
    <path d="M 341.202585 251.88898 
L 353.857131 251.88898 
L 353.857131 232.952765 
L 341.202585 232.952765 
z
" clip-path="url(#p6507f590f8)" style="fill: #d62728"/>
   </g>
   <g id="patch_108">
    <path d="M 357.020767 257.458456 
L 369.675312 257.458456 
L 369.675312 241.306978 
L 357.020767 241.306978 
z
" clip-path="url(#p6507f590f8)" style="fill: #d62728"/>
   </g>
   <g id="patch_109">
    <path d="M 372.838949 263.863352 
L 385.493494 263.863352 
L 385.493494 247.711874 
L 372.838949 247.711874 
z
" clip-path="url(#p6507f590f8)" style="fill: #d62728"/>
   </g>
   <g id="patch_110">
    <path d="M 388.657131 266.64809 
L 401.311676 266.64809 
L 401.311676 251.88898 
L 388.657131 251.88898 
z
" clip-path="url(#p6507f590f8)" style="fill: #d62728"/>
   </g>
   <g id="patch_111">
    <path d="M 404.475312 269.154354 
L 417.129858 269.154354 
L 417.129858 255.230666 
L 404.475312 255.230666 
z
" clip-path="url(#p6507f590f8)" style="fill: #d62728"/>
   </g>
   <g id="patch_112">
    <path d="M 420.293494 268.318932 
L 432.94804 268.318932 
L 432.94804 251.332033 
L 420.293494 251.332033 
z
" clip-path="url(#p6507f590f8)" style="fill: #d62728"/>
   </g>
   <g id="patch_113">
    <path d="M 436.111676 272.217565 
L 448.766222 272.217565 
L 448.766222 259.407772 
L 436.111676 259.407772 
z
" clip-path="url(#p6507f590f8)" style="fill: #d62728"/>
   </g>
   <g id="patch_114">
    <path d="M 451.929858 273.609934 
L 464.584403 273.609934 
L 464.584403 262.749457 
L 451.929858 262.749457 
z
" clip-path="url(#p6507f590f8)" style="fill: #d62728"/>
   </g>
   <g id="patch_115">
    <path d="M 467.74804 276.116198 
L 480.402585 276.116198 
L 480.402585 264.141826 
L 467.74804 264.141826 
z
" clip-path="url(#p6507f590f8)" style="fill: #d62728"/>
   </g>
   <g id="patch_116">
    <path d="M 483.566222 277.78704 
L 496.220767 277.78704 
L 496.220767 268.597406 
L 483.566222 268.597406 
z
" clip-path="url(#p6507f590f8)" style="fill: #d62728"/>
   </g>
   <g id="patch_117">
    <path d="M 499.384403 292.824623 
L 512.038949 292.824623 
L 512.038949 284.191937 
L 499.384403 284.191937 
z
" clip-path="url(#p6507f590f8)" style="fill: #d62728"/>
   </g>
   <g id="patch_118">
    <path d="M 515.202585 288.369043 
L 527.857131 288.369043 
L 527.857131 278.622461 
L 515.202585 278.622461 
z
" clip-path="url(#p6507f590f8)" style="fill: #d62728"/>
   </g>
   <g id="patch_119">
    <path d="M 72.293494 53.058716 
L 84.94804 53.058716 
L 84.94804 43.033661 
L 72.293494 43.033661 
z
" clip-path="url(#p6507f590f8)" style="fill: #9467bd"/>
   </g>
   <g id="patch_120">
    <path d="M 88.111676 53.33719 
L 100.766222 53.33719 
L 100.766222 43.869082 
L 88.111676 43.869082 
z
" clip-path="url(#p6507f590f8)" style="fill: #9467bd"/>
   </g>
   <g id="patch_121">
    <path d="M 103.929858 65.590035 
L 116.584403 65.590035 
L 116.584403 56.957349 
L 103.929858 56.957349 
z
" clip-path="url(#p6507f590f8)" style="fill: #9467bd"/>
   </g>
   <g id="patch_122">
    <path d="M 119.74804 90.095726 
L 132.402585 90.095726 
L 132.402585 82.298461 
L 119.74804 82.298461 
z
" clip-path="url(#p6507f590f8)" style="fill: #9467bd"/>
   </g>
   <g id="patch_123">
    <path d="M 135.566222 106.804152 
L 148.220767 106.804152 
L 148.220767 99.842308 
L 135.566222 99.842308 
z
" clip-path="url(#p6507f590f8)" style="fill: #9467bd"/>
   </g>
   <g id="patch_124">
    <path d="M 151.384403 126.854262 
L 164.038949 126.854262 
L 164.038949 120.449366 
L 151.384403 120.449366 
z
" clip-path="url(#p6507f590f8)" style="fill: #9467bd"/>
   </g>
   <g id="patch_125">
    <path d="M 167.202585 138.271686 
L 179.857131 138.271686 
L 179.857131 132.145264 
L 167.202585 132.145264 
z
" clip-path="url(#p6507f590f8)" style="fill: #9467bd"/>
   </g>
   <g id="patch_126">
    <path d="M 183.020767 159.157218 
L 195.675312 159.157218 
L 195.675312 153.866217 
L 183.020767 153.866217 
z
" clip-path="url(#p6507f590f8)" style="fill: #9467bd"/>
   </g>
   <g id="patch_127">
    <path d="M 198.838949 164.44822 
L 211.493494 164.44822 
L 211.493494 159.714166 
L 198.838949 159.714166 
z
" clip-path="url(#p6507f590f8)" style="fill: #9467bd"/>
   </g>
   <g id="patch_128">
    <path d="M 214.657131 181.713593 
L 227.311676 181.713593 
L 227.311676 177.258013 
L 214.657131 177.258013 
z
" clip-path="url(#p6507f590f8)" style="fill: #9467bd"/>
   </g>
   <g id="patch_129">
    <path d="M 230.475312 182.827488 
L 243.129858 182.827488 
L 243.129858 178.928855 
L 230.475312 178.928855 
z
" clip-path="url(#p6507f590f8)" style="fill: #9467bd"/>
   </g>
   <g id="patch_130">
    <path d="M 246.293494 192.57407 
L 258.94804 192.57407 
L 258.94804 188.953911 
L 246.293494 188.953911 
z
" clip-path="url(#p6507f590f8)" style="fill: #9467bd"/>
   </g>
   <g id="patch_131">
    <path d="M 262.111676 202.042177 
L 274.766222 202.042177 
L 274.766222 198.422019 
L 262.111676 198.422019 
z
" clip-path="url(#p6507f590f8)" style="fill: #9467bd"/>
   </g>
   <g id="patch_132">
    <path d="M 277.929858 203.991494 
L 290.584403 203.991494 
L 290.584403 200.649809 
L 277.929858 200.649809 
z
" clip-path="url(#p6507f590f8)" style="fill: #9467bd"/>
   </g>
   <g id="patch_133">
    <path d="M 293.74804 211.510285 
L 306.402585 211.510285 
L 306.402585 208.447074 
L 293.74804 208.447074 
z
" clip-path="url(#p6507f590f8)" style="fill: #9467bd"/>
   </g>
   <g id="patch_134">
    <path d="M 309.566222 216.522813 
L 322.220767 216.522813 
L 322.220767 213.459602 
L 309.566222 213.459602 
z
" clip-path="url(#p6507f590f8)" style="fill: #9467bd"/>
   </g>
   <g id="patch_135">
    <path d="M 325.384403 233.788186 
L 338.038949 233.788186 
L 338.038949 231.281922 
L 325.384403 231.281922 
z
" clip-path="url(#p6507f590f8)" style="fill: #9467bd"/>
   </g>
   <g id="patch_136">
    <path d="M 341.202585 232.952765 
L 353.857131 232.952765 
L 353.857131 230.446501 
L 341.202585 230.446501 
z
" clip-path="url(#p6507f590f8)" style="fill: #9467bd"/>
   </g>
   <g id="patch_137">
    <path d="M 357.020767 241.306978 
L 369.675312 241.306978 
L 369.675312 239.079187 
L 357.020767 239.079187 
z
" clip-path="url(#p6507f590f8)" style="fill: #9467bd"/>
   </g>
   <g id="patch_138">
    <path d="M 372.838949 247.711874 
L 385.493494 247.711874 
L 385.493494 245.484084 
L 372.838949 245.484084 
z
" clip-path="url(#p6507f590f8)" style="fill: #9467bd"/>
   </g>
   <g id="patch_139">
    <path d="M 388.657131 251.88898 
L 401.311676 251.88898 
L 401.311676 249.939664 
L 388.657131 249.939664 
z
" clip-path="url(#p6507f590f8)" style="fill: #9467bd"/>
   </g>
   <g id="patch_140">
    <path d="M 404.475312 255.230666 
L 417.129858 255.230666 
L 417.129858 253.559823 
L 404.475312 253.559823 
z
" clip-path="url(#p6507f590f8)" style="fill: #9467bd"/>
   </g>
   <g id="patch_141">
    <path d="M 420.293494 251.332033 
L 432.94804 251.332033 
L 432.94804 249.66119 
L 420.293494 249.66119 
z
" clip-path="url(#p6507f590f8)" style="fill: #9467bd"/>
   </g>
   <g id="patch_142">
    <path d="M 436.111676 259.407772 
L 448.766222 259.407772 
L 448.766222 257.736929 
L 436.111676 257.736929 
z
" clip-path="url(#p6507f590f8)" style="fill: #9467bd"/>
   </g>
   <g id="patch_143">
    <path d="M 451.929858 262.749457 
L 464.584403 262.749457 
L 464.584403 261.357088 
L 451.929858 261.357088 
z
" clip-path="url(#p6507f590f8)" style="fill: #9467bd"/>
   </g>
   <g id="patch_144">
    <path d="M 467.74804 264.141826 
L 480.402585 264.141826 
L 480.402585 262.749457 
L 467.74804 262.749457 
z
" clip-path="url(#p6507f590f8)" style="fill: #9467bd"/>
   </g>
   <g id="patch_145">
    <path d="M 483.566222 268.597406 
L 496.220767 268.597406 
L 496.220767 267.205037 
L 483.566222 267.205037 
z
" clip-path="url(#p6507f590f8)" style="fill: #9467bd"/>
   </g>
   <g id="patch_146">
    <path d="M 499.384403 284.191937 
L 512.038949 284.191937 
L 512.038949 283.078041 
L 499.384403 283.078041 
z
" clip-path="url(#p6507f590f8)" style="fill: #9467bd"/>
   </g>
   <g id="patch_147">
    <path d="M 515.202585 278.622461 
L 527.857131 278.622461 
L 527.857131 277.508566 
L 515.202585 277.508566 
z
" clip-path="url(#p6507f590f8)" style="fill: #9467bd"/>
   </g>
   <g id="patch_148">
    <path d="M 49.515313 348.519375 
L 49.515313 27.759375 
" style="fill: none"/>
   </g>
   <g id="patch_149">
    <path d="M 550.635312 348.519375 
L 550.635312 27.759375 
" style="fill: none"/>
   </g>
   <g id="patch_150">
    <path d="M 49.515312 348.519375 
L 550.635312 348.519375 
" style="fill: none"/>
   </g>
   <g id="patch_151">
    <path d="M 49.515312 27.759375 
L 550.635312 27.759375 
" style="fill: none"/>
   </g>
   <g id="text_15">
    <!-- 42 -->
    <g style="fill: #ffffff" transform="translate(73.05983 289.761412) scale(0.1 -0.1)">
     <defs>
      <path id="Arial-BoldMT-34" d="M 1994 0 
L 1994 922 
L 119 922 
L 119 1691 
L 2106 4600 
L 2844 4600 
L 2844 1694 
L 3413 1694 
L 3413 922 
L 2844 922 
L 2844 0 
L 1994 0 
z
M 1994 1694 
L 1994 3259 
L 941 1694 
L 1994 1694 
z
" transform="scale(0.015625)"/>
      <path id="Arial-BoldMT-32" d="M 3238 816 
L 3238 0 
L 159 0 
Q 209 463 459 877 
Q 709 1291 1447 1975 
Q 2041 2528 2175 2725 
Q 2356 2997 2356 3263 
Q 2356 3556 2198 3714 
Q 2041 3872 1763 3872 
Q 1488 3872 1325 3706 
Q 1163 3541 1138 3156 
L 263 3244 
Q 341 3969 753 4284 
Q 1166 4600 1784 4600 
Q 2463 4600 2850 4234 
Q 3238 3869 3238 3325 
Q 3238 3016 3127 2736 
Q 3016 2456 2775 2150 
Q 2616 1947 2200 1565 
Q 1784 1184 1673 1059 
Q 1563 934 1494 816 
L 3238 816 
z
" transform="scale(0.015625)"/>
     </defs>
     <use xlink:href="#Arial-BoldMT-34"/>
     <use xlink:href="#Arial-BoldMT-32" x="55.615234"/>
    </g>
   </g>
   <g id="text_16">
    <!-- 43 -->
    <g style="fill: #ffffff" transform="translate(88.878011 288.92599) scale(0.1 -0.1)">
     <defs>
      <path id="Arial-BoldMT-33" d="M 241 1216 
L 1091 1319 
Q 1131 994 1309 822 
Q 1488 650 1741 650 
Q 2013 650 2198 856 
Q 2384 1063 2384 1413 
Q 2384 1744 2206 1937 
Q 2028 2131 1772 2131 
Q 1603 2131 1369 2066 
L 1466 2781 
Q 1822 2772 2009 2936 
Q 2197 3100 2197 3372 
Q 2197 3603 2059 3740 
Q 1922 3878 1694 3878 
Q 1469 3878 1309 3722 
Q 1150 3566 1116 3266 
L 306 3403 
Q 391 3819 561 4067 
Q 731 4316 1036 4458 
Q 1341 4600 1719 4600 
Q 2366 4600 2756 4188 
Q 3078 3850 3078 3425 
Q 3078 2822 2419 2463 
Q 2813 2378 3048 2084 
Q 3284 1791 3284 1375 
Q 3284 772 2843 347 
Q 2403 -78 1747 -78 
Q 1125 -78 715 280 
Q 306 638 241 1216 
z
" transform="scale(0.015625)"/>
     </defs>
     <use xlink:href="#Arial-BoldMT-34"/>
     <use xlink:href="#Arial-BoldMT-33" x="55.615234"/>
    </g>
   </g>
   <g id="text_17">
    <!-- 43 -->
    <g style="fill: #ffffff" transform="translate(104.696193 288.090569) scale(0.1 -0.1)">
     <use xlink:href="#Arial-BoldMT-34"/>
     <use xlink:href="#Arial-BoldMT-33" x="55.615234"/>
    </g>
   </g>
   <g id="text_18">
    <!-- 40 -->
    <g style="fill: #ffffff" transform="translate(120.514375 292.96386) scale(0.1 -0.1)">
     <defs>
      <path id="Arial-BoldMT-30" d="M 1756 4600 
Q 2422 4600 2797 4125 
Q 3244 3563 3244 2259 
Q 3244 959 2794 391 
Q 2422 -78 1756 -78 
Q 1088 -78 678 436 
Q 269 950 269 2269 
Q 269 3563 719 4131 
Q 1091 4600 1756 4600 
z
M 1756 3872 
Q 1597 3872 1472 3770 
Q 1347 3669 1278 3406 
Q 1188 3066 1188 2259 
Q 1188 1453 1269 1151 
Q 1350 850 1473 750 
Q 1597 650 1756 650 
Q 1916 650 2041 751 
Q 2166 853 2234 1116 
Q 2325 1453 2325 2259 
Q 2325 3066 2244 3367 
Q 2163 3669 2039 3770 
Q 1916 3872 1756 3872 
z
" transform="scale(0.015625)"/>
     </defs>
     <use xlink:href="#Arial-BoldMT-34"/>
     <use xlink:href="#Arial-BoldMT-30" x="55.615234"/>
    </g>
   </g>
   <g id="text_19">
    <!-- 39 -->
    <g style="fill: #ffffff" transform="translate(136.332557 294.773939) scale(0.1 -0.1)">
     <defs>
      <path id="Arial-BoldMT-39" d="M 291 1059 
L 1141 1153 
Q 1172 894 1303 769 
Q 1434 644 1650 644 
Q 1922 644 2112 894 
Q 2303 1144 2356 1931 
Q 2025 1547 1528 1547 
Q 988 1547 595 1964 
Q 203 2381 203 3050 
Q 203 3747 617 4173 
Q 1031 4600 1672 4600 
Q 2369 4600 2816 4061 
Q 3263 3522 3263 2288 
Q 3263 1031 2797 475 
Q 2331 -81 1584 -81 
Q 1047 -81 715 205 
Q 384 491 291 1059 
z
M 2278 2978 
Q 2278 3403 2083 3637 
Q 1888 3872 1631 3872 
Q 1388 3872 1227 3680 
Q 1066 3488 1066 3050 
Q 1066 2606 1241 2398 
Q 1416 2191 1678 2191 
Q 1931 2191 2104 2391 
Q 2278 2591 2278 2978 
z
" transform="scale(0.015625)"/>
     </defs>
     <use xlink:href="#Arial-BoldMT-33"/>
     <use xlink:href="#Arial-BoldMT-39" x="55.615234"/>
    </g>
   </g>
   <g id="text_20">
    <!-- 36 -->
    <g style="fill: #ffffff" transform="translate(152.150739 298.951046) scale(0.1 -0.1)">
     <defs>
      <path id="Arial-BoldMT-36" d="M 3247 3459 
L 2397 3366 
Q 2366 3628 2234 3753 
Q 2103 3878 1894 3878 
Q 1616 3878 1423 3628 
Q 1231 3378 1181 2588 
Q 1509 2975 1997 2975 
Q 2547 2975 2939 2556 
Q 3331 2138 3331 1475 
Q 3331 772 2918 347 
Q 2506 -78 1859 -78 
Q 1166 -78 719 461 
Q 272 1000 272 2228 
Q 272 3488 737 4044 
Q 1203 4600 1947 4600 
Q 2469 4600 2811 4308 
Q 3153 4016 3247 3459 
z
M 1256 1544 
Q 1256 1116 1453 883 
Q 1650 650 1903 650 
Q 2147 650 2309 840 
Q 2472 1031 2472 1466 
Q 2472 1913 2297 2120 
Q 2122 2328 1859 2328 
Q 1606 2328 1431 2129 
Q 1256 1931 1256 1544 
z
" transform="scale(0.015625)"/>
     </defs>
     <use xlink:href="#Arial-BoldMT-33"/>
     <use xlink:href="#Arial-BoldMT-36" x="55.615234"/>
    </g>
   </g>
   <g id="text_21">
    <!-- 34 -->
    <g style="fill: #ffffff" transform="translate(167.96892 300.482651) scale(0.1 -0.1)">
     <use xlink:href="#Arial-BoldMT-33"/>
     <use xlink:href="#Arial-BoldMT-34" x="55.615234"/>
    </g>
   </g>
   <g id="text_22">
    <!-- 31 -->
    <g style="fill: #ffffff" transform="translate(183.787102 304.938232) scale(0.1 -0.1)">
     <defs>
      <path id="Arial-BoldMT-31" d="M 2519 0 
L 1641 0 
L 1641 3309 
Q 1159 2859 506 2644 
L 506 3441 
Q 850 3553 1253 3867 
Q 1656 4181 1806 4600 
L 2519 4600 
L 2519 0 
z
" transform="scale(0.015625)"/>
     </defs>
     <use xlink:href="#Arial-BoldMT-33"/>
     <use xlink:href="#Arial-BoldMT-31" x="55.615234"/>
    </g>
   </g>
   <g id="text_23">
    <!-- 31 -->
    <g style="fill: #ffffff" transform="translate(199.605284 305.495179) scale(0.1 -0.1)">
     <use xlink:href="#Arial-BoldMT-33"/>
     <use xlink:href="#Arial-BoldMT-31" x="55.615234"/>
    </g>
   </g>
   <g id="text_24">
    <!-- 28 -->
    <g style="fill: #ffffff" transform="translate(215.423466 309.254575) scale(0.1 -0.1)">
     <defs>
      <path id="Arial-BoldMT-38" d="M 1025 2472 
Q 684 2616 529 2867 
Q 375 3119 375 3419 
Q 375 3931 733 4265 
Q 1091 4600 1750 4600 
Q 2403 4600 2764 4265 
Q 3125 3931 3125 3419 
Q 3125 3100 2959 2851 
Q 2794 2603 2494 2472 
Q 2875 2319 3073 2025 
Q 3272 1731 3272 1347 
Q 3272 713 2867 316 
Q 2463 -81 1791 -81 
Q 1166 -81 750 247 
Q 259 634 259 1309 
Q 259 1681 443 1992 
Q 628 2303 1025 2472 
z
M 1206 3356 
Q 1206 3094 1354 2947 
Q 1503 2800 1750 2800 
Q 2000 2800 2150 2948 
Q 2300 3097 2300 3359 
Q 2300 3606 2151 3754 
Q 2003 3903 1759 3903 
Q 1506 3903 1356 3753 
Q 1206 3603 1206 3356 
z
M 1125 1394 
Q 1125 1031 1311 828 
Q 1497 625 1775 625 
Q 2047 625 2225 820 
Q 2403 1016 2403 1384 
Q 2403 1706 2222 1901 
Q 2041 2097 1763 2097 
Q 1441 2097 1283 1875 
Q 1125 1653 1125 1394 
z
" transform="scale(0.015625)"/>
     </defs>
     <use xlink:href="#Arial-BoldMT-32"/>
     <use xlink:href="#Arial-BoldMT-38" x="55.615234"/>
    </g>
   </g>
   <g id="text_25">
    <!-- 29 -->
    <g style="fill: #ffffff" transform="translate(231.241648 307.722969) scale(0.1 -0.1)">
     <use xlink:href="#Arial-BoldMT-32"/>
     <use xlink:href="#Arial-BoldMT-39" x="55.615234"/>
    </g>
   </g>
   <g id="text_26">
    <!-- 27 -->
    <g style="fill: #ffffff" transform="translate(247.05983 310.507707) scale(0.1 -0.1)">
     <defs>
      <path id="Arial-BoldMT-37" d="M 272 3703 
L 272 4519 
L 3275 4519 
L 3275 3881 
Q 2903 3516 2518 2831 
Q 2134 2147 1932 1376 
Q 1731 606 1734 0 
L 888 0 
Q 909 950 1279 1937 
Q 1650 2925 2269 3703 
L 272 3703 
z
" transform="scale(0.015625)"/>
     </defs>
     <use xlink:href="#Arial-BoldMT-32"/>
     <use xlink:href="#Arial-BoldMT-37" x="55.615234"/>
    </g>
   </g>
   <g id="text_27">
    <!-- 25 -->
    <g style="fill: #ffffff" transform="translate(262.878011 313.292444) scale(0.1 -0.1)">
     <defs>
      <path id="Arial-BoldMT-35" d="M 284 1178 
L 1159 1269 
Q 1197 972 1381 798 
Q 1566 625 1806 625 
Q 2081 625 2272 848 
Q 2463 1072 2463 1522 
Q 2463 1944 2273 2155 
Q 2084 2366 1781 2366 
Q 1403 2366 1103 2031 
L 391 2134 
L 841 4519 
L 3163 4519 
L 3163 3697 
L 1506 3697 
L 1369 2919 
Q 1663 3066 1969 3066 
Q 2553 3066 2959 2641 
Q 3366 2216 3366 1538 
Q 3366 972 3038 528 
Q 2591 -78 1797 -78 
Q 1163 -78 763 262 
Q 363 603 284 1178 
z
" transform="scale(0.015625)"/>
     </defs>
     <use xlink:href="#Arial-BoldMT-32"/>
     <use xlink:href="#Arial-BoldMT-35" x="55.615234"/>
    </g>
   </g>
   <g id="text_28">
    <!-- 25 -->
    <g style="fill: #ffffff" transform="translate(278.696193 313.570918) scale(0.1 -0.1)">
     <use xlink:href="#Arial-BoldMT-32"/>
     <use xlink:href="#Arial-BoldMT-35" x="55.615234"/>
    </g>
   </g>
   <g id="text_29">
    <!-- 26 -->
    <g style="fill: #ffffff" transform="translate(294.514375 313.013971) scale(0.1 -0.1)">
     <use xlink:href="#Arial-BoldMT-32"/>
     <use xlink:href="#Arial-BoldMT-36" x="55.615234"/>
    </g>
   </g>
   <g id="text_30">
    <!-- 24 -->
    <g style="fill: #ffffff" transform="translate(310.332557 314.406339) scale(0.1 -0.1)">
     <use xlink:href="#Arial-BoldMT-32"/>
     <use xlink:href="#Arial-BoldMT-34" x="55.615234"/>
    </g>
   </g>
   <g id="text_31">
    <!-- 22 -->
    <g style="fill: #ffffff" transform="translate(326.150739 317.469551) scale(0.1 -0.1)">
     <use xlink:href="#Arial-BoldMT-32"/>
     <use xlink:href="#Arial-BoldMT-32" x="55.615234"/>
    </g>
   </g>
   <g id="text_32">
    <!-- 21 -->
    <g style="fill: #ffffff" transform="translate(341.96892 318.722683) scale(0.1 -0.1)">
     <use xlink:href="#Arial-BoldMT-32"/>
     <use xlink:href="#Arial-BoldMT-31" x="55.615234"/>
    </g>
   </g>
   <g id="text_33">
    <!-- 21 -->
    <g style="fill: #ffffff" transform="translate(357.787102 319.697341) scale(0.1 -0.1)">
     <use xlink:href="#Arial-BoldMT-32"/>
     <use xlink:href="#Arial-BoldMT-31" x="55.615234"/>
    </g>
   </g>
   <g id="text_34">
    <!-- 19 -->
    <g style="fill: #ffffff" transform="translate(373.605284 321.646657) scale(0.1 -0.1)">
     <use xlink:href="#Arial-BoldMT-31"/>
     <use xlink:href="#Arial-BoldMT-39" x="55.615234"/>
    </g>
   </g>
   <g id="text_35">
    <!-- 19 -->
    <g style="fill: #ffffff" transform="translate(389.423466 321.925131) scale(0.1 -0.1)">
     <use xlink:href="#Arial-BoldMT-31"/>
     <use xlink:href="#Arial-BoldMT-39" x="55.615234"/>
    </g>
   </g>
   <g id="text_36">
    <!-- 18 -->
    <g style="fill: #ffffff" transform="translate(405.241648 322.899789) scale(0.1 -0.1)">
     <use xlink:href="#Arial-BoldMT-31"/>
     <use xlink:href="#Arial-BoldMT-38" x="55.615234"/>
    </g>
   </g>
   <g id="text_37">
    <!-- 19 -->
    <g style="fill: #ffffff" transform="translate(421.05983 322.064368) scale(0.1 -0.1)">
     <use xlink:href="#Arial-BoldMT-31"/>
     <use xlink:href="#Arial-BoldMT-39" x="55.615234"/>
    </g>
   </g>
   <g id="text_38">
    <!-- 18 -->
    <g style="fill: #ffffff" transform="translate(436.878011 323.456737) scale(0.1 -0.1)">
     <use xlink:href="#Arial-BoldMT-31"/>
     <use xlink:href="#Arial-BoldMT-38" x="55.615234"/>
    </g>
   </g>
   <g id="text_39">
    <!-- 18 -->
    <g style="fill: #ffffff" transform="translate(452.696193 323.73521) scale(0.1 -0.1)">
     <use xlink:href="#Arial-BoldMT-31"/>
     <use xlink:href="#Arial-BoldMT-38" x="55.615234"/>
    </g>
   </g>
   <g id="text_40">
    <!-- 17 -->
    <g style="fill: #ffffff" transform="translate(468.514375 324.570632) scale(0.1 -0.1)">
     <use xlink:href="#Arial-BoldMT-31"/>
     <use xlink:href="#Arial-BoldMT-37" x="55.615234"/>
    </g>
   </g>
   <g id="text_41">
    <!-- 17 -->
    <g style="fill: #ffffff" transform="translate(484.332557 325.406053) scale(0.1 -0.1)">
     <use xlink:href="#Arial-BoldMT-31"/>
     <use xlink:href="#Arial-BoldMT-37" x="55.615234"/>
    </g>
   </g>
   <g id="text_42">
    <!-- 13 -->
    <g style="fill: #ffffff" transform="translate(500.150739 330.140107) scale(0.1 -0.1)">
     <use xlink:href="#Arial-BoldMT-31"/>
     <use xlink:href="#Arial-BoldMT-33" x="55.615234"/>
    </g>
   </g>
   <g id="text_43">
    <!-- 14 -->
    <g style="fill: #ffffff" transform="translate(515.96892 328.469264) scale(0.1 -0.1)">
     <use xlink:href="#Arial-BoldMT-31"/>
     <use xlink:href="#Arial-BoldMT-34" x="55.615234"/>
    </g>
   </g>
   <g id="text_44">
    <!-- 29 -->
    <g style="fill: #ffffff" transform="translate(73.05983 190.485516) scale(0.1 -0.1)">
     <use xlink:href="#Arial-BoldMT-32"/>
     <use xlink:href="#Arial-BoldMT-39" x="55.615234"/>
    </g>
   </g>
   <g id="text_45">
    <!-- 27 -->
    <g style="fill: #ffffff" transform="translate(88.878011 191.877885) scale(0.1 -0.1)">
     <use xlink:href="#Arial-BoldMT-32"/>
     <use xlink:href="#Arial-BoldMT-37" x="55.615234"/>
    </g>
   </g>
   <g id="text_46">
    <!-- 24 -->
    <g style="fill: #ffffff" transform="translate(104.696193 194.384149) scale(0.1 -0.1)">
     <use xlink:href="#Arial-BoldMT-32"/>
     <use xlink:href="#Arial-BoldMT-34" x="55.615234"/>
    </g>
   </g>
   <g id="text_47">
    <!-- 22 -->
    <g style="fill: #ffffff" transform="translate(120.514375 206.497758) scale(0.1 -0.1)">
     <use xlink:href="#Arial-BoldMT-32"/>
     <use xlink:href="#Arial-BoldMT-32" x="55.615234"/>
    </g>
   </g>
   <g id="text_48">
    <!-- 20 -->
    <g style="fill: #ffffff" transform="translate(136.332557 212.62418) scale(0.1 -0.1)">
     <use xlink:href="#Arial-BoldMT-32"/>
     <use xlink:href="#Arial-BoldMT-30" x="55.615234"/>
    </g>
   </g>
   <g id="text_49">
    <!-- 18 -->
    <g style="fill: #ffffff" transform="translate(152.150739 224.598552) scale(0.1 -0.1)">
     <use xlink:href="#Arial-BoldMT-31"/>
     <use xlink:href="#Arial-BoldMT-38" x="55.615234"/>
    </g>
   </g>
   <g id="text_50">
    <!-- 17 -->
    <g style="fill: #ffffff" transform="translate(167.96892 229.054132) scale(0.1 -0.1)">
     <use xlink:href="#Arial-BoldMT-31"/>
     <use xlink:href="#Arial-BoldMT-37" x="55.615234"/>
    </g>
   </g>
   <g id="text_51">
    <!-- 15 -->
    <g style="fill: #ffffff" transform="translate(183.787102 240.471556) scale(0.1 -0.1)">
     <use xlink:href="#Arial-BoldMT-31"/>
     <use xlink:href="#Arial-BoldMT-35" x="55.615234"/>
    </g>
   </g>
   <g id="text_52">
    <!-- 14 -->
    <g style="fill: #ffffff" transform="translate(199.605284 243.395531) scale(0.1 -0.1)">
     <use xlink:href="#Arial-BoldMT-31"/>
     <use xlink:href="#Arial-BoldMT-34" x="55.615234"/>
    </g>
   </g>
   <g id="text_53">
    <!-- 13 -->
    <g style="fill: #ffffff" transform="translate(215.423466 252.306691) scale(0.1 -0.1)">
     <use xlink:href="#Arial-BoldMT-31"/>
     <use xlink:href="#Arial-BoldMT-33" x="55.615234"/>
    </g>
   </g>
   <g id="text_54">
    <!-- 12 -->
    <g style="fill: #ffffff" transform="translate(231.241648 250.635848) scale(0.1 -0.1)">
     <use xlink:href="#Arial-BoldMT-31"/>
     <use xlink:href="#Arial-BoldMT-32" x="55.615234"/>
    </g>
   </g>
   <g id="text_55">
    <!-- 11 -->
    <g style="fill: #ffffff" transform="translate(247.33483 256.623034) scale(0.1 -0.1)">
     <use xlink:href="#Arial-BoldMT-31"/>
     <use xlink:href="#Arial-BoldMT-31" x="50.115234"/>
    </g>
   </g>
   <g id="text_56">
    <!-- 11 -->
    <g style="fill: #ffffff" transform="translate(263.153011 262.888694) scale(0.1 -0.1)">
     <use xlink:href="#Arial-BoldMT-31"/>
     <use xlink:href="#Arial-BoldMT-31" x="50.115234"/>
    </g>
   </g>
   <g id="text_57">
    <!-- 10 -->
    <g style="fill: #ffffff" transform="translate(278.696193 264.4203) scale(0.1 -0.1)">
     <use xlink:href="#Arial-BoldMT-31"/>
     <use xlink:href="#Arial-BoldMT-30" x="55.615234"/>
    </g>
   </g>
   <g id="text_58">
    <!-- 9 -->
    <g style="fill: #ffffff" transform="translate(297.294844 267.999206) scale(0.1 -0.1)">
     <use xlink:href="#Arial-BoldMT-39"/>
    </g>
   </g>
   <g id="text_59">
    <!-- 9 -->
    <g style="fill: #ffffff" transform="translate(313.113026 271.619365) scale(0.1 -0.1)">
     <use xlink:href="#Arial-BoldMT-39"/>
    </g>
   </g>
   <g id="text_60">
    <!-- 8 -->
    <g style="fill: #ffffff" transform="translate(328.931207 279.41663) scale(0.1 -0.1)">
     <use xlink:href="#Arial-BoldMT-38"/>
    </g>
   </g>
   <g id="text_61">
    <!-- 7 -->
    <g style="fill: #ffffff" transform="translate(344.749389 282.758315) scale(0.1 -0.1)">
     <use xlink:href="#Arial-BoldMT-37"/>
    </g>
   </g>
   <g id="text_62">
    <!-- 6 -->
    <g style="fill: #ffffff" transform="translate(360.567571 285.821526) scale(0.1 -0.1)">
     <use xlink:href="#Arial-BoldMT-36"/>
    </g>
   </g>
   <g id="text_63">
    <!-- 6 -->
    <g style="fill: #ffffff" transform="translate(376.385753 290.277107) scale(0.1 -0.1)">
     <use xlink:href="#Arial-BoldMT-36"/>
    </g>
   </g>
   <g id="text_64">
    <!-- 5 -->
    <g style="fill: #ffffff" transform="translate(392.203935 291.530239) scale(0.1 -0.1)">
     <use xlink:href="#Arial-BoldMT-35"/>
    </g>
   </g>
   <g id="text_65">
    <!-- 5 -->
    <g style="fill: #ffffff" transform="translate(408.022116 293.758029) scale(0.1 -0.1)">
     <use xlink:href="#Arial-BoldMT-35"/>
    </g>
   </g>
   <g id="text_66">
    <!-- 5 -->
    <g style="fill: #ffffff" transform="translate(423.840298 292.226423) scale(0.1 -0.1)">
     <use xlink:href="#Arial-BoldMT-35"/>
    </g>
   </g>
   <g id="text_67">
    <!-- 5 -->
    <g style="fill: #ffffff" transform="translate(439.65848 295.150397) scale(0.1 -0.1)">
     <use xlink:href="#Arial-BoldMT-35"/>
    </g>
   </g>
   <g id="text_68">
    <!-- 5 -->
    <g style="fill: #ffffff" transform="translate(455.476662 295.985819) scale(0.1 -0.1)">
     <use xlink:href="#Arial-BoldMT-35"/>
    </g>
   </g>
   <g id="text_69">
    <!-- 4 -->
    <g style="fill: #ffffff" transform="translate(471.294844 298.074372) scale(0.1 -0.1)">
     <use xlink:href="#Arial-BoldMT-34"/>
    </g>
   </g>
   <g id="text_70">
    <!-- 4 -->
    <g style="fill: #ffffff" transform="translate(487.113026 299.884451) scale(0.1 -0.1)">
     <use xlink:href="#Arial-BoldMT-34"/>
    </g>
   </g>
   <g id="text_71">
    <!-- 3 -->
    <g style="fill: #ffffff" transform="translate(502.931207 310.605691) scale(0.1 -0.1)">
     <use xlink:href="#Arial-BoldMT-33"/>
    </g>
   </g>
   <g id="text_72">
    <!-- 3 -->
    <g style="fill: #ffffff" transform="translate(518.749389 307.264006) scale(0.1 -0.1)">
     <use xlink:href="#Arial-BoldMT-33"/>
    </g>
   </g>
   <g id="text_73">
    <!-- 20 -->
    <g style="fill: #ffffff" transform="translate(73.05983 121.563261) scale(0.1 -0.1)">
     <use xlink:href="#Arial-BoldMT-32"/>
     <use xlink:href="#Arial-BoldMT-30" x="55.615234"/>
    </g>
   </g>
   <g id="text_74">
    <!-- 19 -->
    <g style="fill: #ffffff" transform="translate(88.878011 127.689684) scale(0.1 -0.1)">
     <use xlink:href="#Arial-BoldMT-31"/>
     <use xlink:href="#Arial-BoldMT-39" x="55.615234"/>
    </g>
   </g>
   <g id="text_75">
    <!-- 18 -->
    <g style="fill: #ffffff" transform="translate(104.696193 136.32237) scale(0.1 -0.1)">
     <use xlink:href="#Arial-BoldMT-31"/>
     <use xlink:href="#Arial-BoldMT-38" x="55.615234"/>
    </g>
   </g>
   <g id="text_76">
    <!-- 16 -->
    <g style="fill: #ffffff" transform="translate(120.514375 153.30927) scale(0.1 -0.1)">
     <use xlink:href="#Arial-BoldMT-31"/>
     <use xlink:href="#Arial-BoldMT-36" x="55.615234"/>
    </g>
   </g>
   <g id="text_77">
    <!-- 14 -->
    <g style="fill: #ffffff" transform="translate(136.332557 164.030509) scale(0.1 -0.1)">
     <use xlink:href="#Arial-BoldMT-31"/>
     <use xlink:href="#Arial-BoldMT-34" x="55.615234"/>
    </g>
   </g>
   <g id="text_78">
    <!-- 14 -->
    <g style="fill: #ffffff" transform="translate(152.150739 181.017409) scale(0.1 -0.1)">
     <use xlink:href="#Arial-BoldMT-31"/>
     <use xlink:href="#Arial-BoldMT-34" x="55.615234"/>
    </g>
   </g>
   <g id="text_79">
    <!-- 12 -->
    <g style="fill: #ffffff" transform="translate(167.96892 188.5362) scale(0.1 -0.1)">
     <use xlink:href="#Arial-BoldMT-31"/>
     <use xlink:href="#Arial-BoldMT-32" x="55.615234"/>
    </g>
   </g>
   <g id="text_80">
    <!-- 11 -->
    <g style="fill: #ffffff" transform="translate(184.062102 204.687678) scale(0.1 -0.1)">
     <use xlink:href="#Arial-BoldMT-31"/>
     <use xlink:href="#Arial-BoldMT-31" x="50.115234"/>
    </g>
   </g>
   <g id="text_81">
    <!-- 11 -->
    <g style="fill: #ffffff" transform="translate(199.880284 209.282495) scale(0.1 -0.1)">
     <use xlink:href="#Arial-BoldMT-31"/>
     <use xlink:href="#Arial-BoldMT-31" x="50.115234"/>
    </g>
   </g>
   <g id="text_82">
    <!-- 10 -->
    <g style="fill: #ffffff" transform="translate(215.423466 220.282209) scale(0.1 -0.1)">
     <use xlink:href="#Arial-BoldMT-31"/>
     <use xlink:href="#Arial-BoldMT-30" x="55.615234"/>
    </g>
   </g>
   <g id="text_83">
    <!-- 10 -->
    <g style="fill: #ffffff" transform="translate(231.241648 220.142972) scale(0.1 -0.1)">
     <use xlink:href="#Arial-BoldMT-31"/>
     <use xlink:href="#Arial-BoldMT-30" x="55.615234"/>
    </g>
   </g>
   <g id="text_84">
    <!-- 10 -->
    <g style="fill: #ffffff" transform="translate(247.05983 226.687105) scale(0.1 -0.1)">
     <use xlink:href="#Arial-BoldMT-31"/>
     <use xlink:href="#Arial-BoldMT-30" x="55.615234"/>
    </g>
   </g>
   <g id="text_85">
    <!-- 9 -->
    <g style="fill: #ffffff" transform="translate(265.65848 238.202514) scale(0.1 -0.1)">
     <use xlink:href="#Arial-BoldMT-39"/>
    </g>
   </g>
   <g id="text_86">
    <!-- 9 -->
    <g style="fill: #ffffff" transform="translate(281.476662 241.126488) scale(0.1 -0.1)">
     <use xlink:href="#Arial-BoldMT-39"/>
    </g>
   </g>
   <g id="text_87">
    <!-- 8 -->
    <g style="fill: #ffffff" transform="translate(297.294844 243.215041) scale(0.1 -0.1)">
     <use xlink:href="#Arial-BoldMT-38"/>
    </g>
   </g>
   <g id="text_88">
    <!-- 8 -->
    <g style="fill: #ffffff" transform="translate(313.113026 248.227569) scale(0.1 -0.1)">
     <use xlink:href="#Arial-BoldMT-38"/>
    </g>
   </g>
   <g id="text_89">
    <!-- 7 -->
    <g style="fill: #ffffff" transform="translate(328.931207 259.366519) scale(0.1 -0.1)">
     <use xlink:href="#Arial-BoldMT-37"/>
    </g>
   </g>
   <g id="text_90">
    <!-- 6 -->
    <g style="fill: #ffffff" transform="translate(344.749389 264.23981) scale(0.1 -0.1)">
     <use xlink:href="#Arial-BoldMT-36"/>
    </g>
   </g>
   <g id="text_91">
    <!-- 6 -->
    <g style="fill: #ffffff" transform="translate(360.567571 269.113101) scale(0.1 -0.1)">
     <use xlink:href="#Arial-BoldMT-36"/>
    </g>
   </g>
   <g id="text_92">
    <!-- 5 -->
    <g style="fill: #ffffff" transform="translate(376.385753 274.821813) scale(0.1 -0.1)">
     <use xlink:href="#Arial-BoldMT-35"/>
    </g>
   </g>
   <g id="text_93">
    <!-- 5 -->
    <g style="fill: #ffffff" transform="translate(392.203935 277.18884) scale(0.1 -0.1)">
     <use xlink:href="#Arial-BoldMT-35"/>
    </g>
   </g>
   <g id="text_94">
    <!-- 5 -->
    <g style="fill: #ffffff" transform="translate(408.022116 279.695104) scale(0.1 -0.1)">
     <use xlink:href="#Arial-BoldMT-35"/>
    </g>
   </g>
   <g id="text_95">
    <!-- 5 -->
    <g style="fill: #ffffff" transform="translate(423.840298 278.581209) scale(0.1 -0.1)">
     <use xlink:href="#Arial-BoldMT-35"/>
    </g>
   </g>
   <g id="text_96">
    <!-- 4 -->
    <g style="fill: #ffffff" transform="translate(439.65848 282.062131) scale(0.1 -0.1)">
     <use xlink:href="#Arial-BoldMT-34"/>
    </g>
   </g>
   <g id="text_97">
    <!-- 4 -->
    <g style="fill: #ffffff" transform="translate(455.476662 283.315263) scale(0.1 -0.1)">
     <use xlink:href="#Arial-BoldMT-34"/>
    </g>
   </g>
   <g id="text_98">
    <!-- 4 -->
    <g style="fill: #ffffff" transform="translate(471.294844 285.821526) scale(0.1 -0.1)">
     <use xlink:href="#Arial-BoldMT-34"/>
    </g>
   </g>
   <g id="text_99">
    <!-- 4 -->
    <g style="fill: #ffffff" transform="translate(487.113026 287.631606) scale(0.1 -0.1)">
     <use xlink:href="#Arial-BoldMT-34"/>
    </g>
   </g>
   <g id="text_100">
    <!-- 3 -->
    <g style="fill: #ffffff" transform="translate(502.931207 301.137583) scale(0.1 -0.1)">
     <use xlink:href="#Arial-BoldMT-33"/>
    </g>
   </g>
   <g id="text_101">
    <!-- 4 -->
    <g style="fill: #ffffff" transform="translate(518.749389 297.238951) scale(0.1 -0.1)">
     <use xlink:href="#Arial-BoldMT-34"/>
    </g>
   </g>
   <g id="text_102">
    <!-- 14 -->
    <g style="fill: #ffffff" transform="translate(73.05983 73.108827) scale(0.1 -0.1)">
     <use xlink:href="#Arial-BoldMT-31"/>
     <use xlink:href="#Arial-BoldMT-34" x="55.615234"/>
    </g>
   </g>
   <g id="text_103">
    <!-- 17 -->
    <g style="fill: #ffffff" transform="translate(88.878011 77.146696) scale(0.1 -0.1)">
     <use xlink:href="#Arial-BoldMT-31"/>
     <use xlink:href="#Arial-BoldMT-37" x="55.615234"/>
    </g>
   </g>
   <g id="text_104">
    <!-- 16 -->
    <g style="fill: #ffffff" transform="translate(104.696193 88.56412) scale(0.1 -0.1)">
     <use xlink:href="#Arial-BoldMT-31"/>
     <use xlink:href="#Arial-BoldMT-36" x="55.615234"/>
    </g>
   </g>
   <g id="text_105">
    <!-- 15 -->
    <g style="fill: #ffffff" transform="translate(120.514375 110.563547) scale(0.1 -0.1)">
     <use xlink:href="#Arial-BoldMT-31"/>
     <use xlink:href="#Arial-BoldMT-35" x="55.615234"/>
    </g>
   </g>
   <g id="text_106">
    <!-- 13 -->
    <g style="fill: #ffffff" transform="translate(136.332557 125.322657) scale(0.1 -0.1)">
     <use xlink:href="#Arial-BoldMT-31"/>
     <use xlink:href="#Arial-BoldMT-33" x="55.615234"/>
    </g>
   </g>
   <g id="text_107">
    <!-- 13 -->
    <g style="fill: #ffffff" transform="translate(152.150739 144.537346) scale(0.1 -0.1)">
     <use xlink:href="#Arial-BoldMT-31"/>
     <use xlink:href="#Arial-BoldMT-33" x="55.615234"/>
    </g>
   </g>
   <g id="text_108">
    <!-- 12 -->
    <g style="fill: #ffffff" transform="translate(167.96892 154.840875) scale(0.1 -0.1)">
     <use xlink:href="#Arial-BoldMT-31"/>
     <use xlink:href="#Arial-BoldMT-32" x="55.615234"/>
    </g>
   </g>
   <g id="text_109">
    <!-- 11 -->
    <g style="fill: #ffffff" transform="translate(184.062102 174.473275) scale(0.1 -0.1)">
     <use xlink:href="#Arial-BoldMT-31"/>
     <use xlink:href="#Arial-BoldMT-31" x="50.115234"/>
    </g>
   </g>
   <g id="text_110">
    <!-- 11 -->
    <g style="fill: #ffffff" transform="translate(199.880284 179.346566) scale(0.1 -0.1)">
     <use xlink:href="#Arial-BoldMT-31"/>
     <use xlink:href="#Arial-BoldMT-31" x="50.115234"/>
    </g>
   </g>
   <g id="text_111">
    <!-- 9 -->
    <g style="fill: #ffffff" transform="translate(218.203935 197.406108) scale(0.1 -0.1)">
     <use xlink:href="#Arial-BoldMT-39"/>
    </g>
   </g>
   <g id="text_112">
    <!-- 8 -->
    <g style="fill: #ffffff" transform="translate(234.022116 197.963055) scale(0.1 -0.1)">
     <use xlink:href="#Arial-BoldMT-38"/>
    </g>
   </g>
   <g id="text_113">
    <!-- 7 -->
    <g style="fill: #ffffff" transform="translate(249.840298 206.178031) scale(0.1 -0.1)">
     <use xlink:href="#Arial-BoldMT-37"/>
    </g>
   </g>
   <g id="text_114">
    <!-- 7 -->
    <g style="fill: #ffffff" transform="translate(265.65848 215.367665) scale(0.1 -0.1)">
     <use xlink:href="#Arial-BoldMT-37"/>
    </g>
   </g>
   <g id="text_115">
    <!-- 8 -->
    <g style="fill: #ffffff" transform="translate(281.476662 218.013166) scale(0.1 -0.1)">
     <use xlink:href="#Arial-BoldMT-38"/>
    </g>
   </g>
   <g id="text_116">
    <!-- 6 -->
    <g style="fill: #ffffff" transform="translate(297.294844 223.304167) scale(0.1 -0.1)">
     <use xlink:href="#Arial-BoldMT-36"/>
    </g>
   </g>
   <g id="text_117">
    <!-- 6 -->
    <g style="fill: #ffffff" transform="translate(313.113026 228.595169) scale(0.1 -0.1)">
     <use xlink:href="#Arial-BoldMT-36"/>
    </g>
   </g>
   <g id="text_118">
    <!-- 4 -->
    <g style="fill: #ffffff" transform="translate(328.931207 243.632752) scale(0.1 -0.1)">
     <use xlink:href="#Arial-BoldMT-34"/>
    </g>
   </g>
   <g id="text_119">
    <!-- 7 -->
    <g style="fill: #ffffff" transform="translate(344.749389 245.999779) scale(0.1 -0.1)">
     <use xlink:href="#Arial-BoldMT-37"/>
    </g>
   </g>
   <g id="text_120">
    <!-- 6 -->
    <g style="fill: #ffffff" transform="translate(360.567571 252.961623) scale(0.1 -0.1)">
     <use xlink:href="#Arial-BoldMT-36"/>
    </g>
   </g>
   <g id="text_121">
    <!-- 6 -->
    <g style="fill: #ffffff" transform="translate(376.385753 259.366519) scale(0.1 -0.1)">
     <use xlink:href="#Arial-BoldMT-36"/>
    </g>
   </g>
   <g id="text_122">
    <!-- 5 -->
    <g style="fill: #ffffff" transform="translate(392.203935 262.847441) scale(0.1 -0.1)">
     <use xlink:href="#Arial-BoldMT-35"/>
    </g>
   </g>
   <g id="text_123">
    <!-- 5 -->
    <g style="fill: #ffffff" transform="translate(408.022116 265.771416) scale(0.1 -0.1)">
     <use xlink:href="#Arial-BoldMT-35"/>
    </g>
   </g>
   <g id="text_124">
    <!-- 6 -->
    <g style="fill: #ffffff" transform="translate(423.840298 263.404389) scale(0.1 -0.1)">
     <use xlink:href="#Arial-BoldMT-36"/>
    </g>
   </g>
   <g id="text_125">
    <!-- 5 -->
    <g style="fill: #ffffff" transform="translate(439.65848 269.391575) scale(0.1 -0.1)">
     <use xlink:href="#Arial-BoldMT-35"/>
    </g>
   </g>
   <g id="text_126">
    <!-- 4 -->
    <g style="fill: #ffffff" transform="translate(455.476662 271.758602) scale(0.1 -0.1)">
     <use xlink:href="#Arial-BoldMT-34"/>
    </g>
   </g>
   <g id="text_127">
    <!-- 4 -->
    <g style="fill: #ffffff" transform="translate(471.294844 273.707918) scale(0.1 -0.1)">
     <use xlink:href="#Arial-BoldMT-34"/>
    </g>
   </g>
   <g id="text_128">
    <!-- 3 -->
    <g style="fill: #ffffff" transform="translate(487.113026 276.771129) scale(0.1 -0.1)">
     <use xlink:href="#Arial-BoldMT-33"/>
    </g>
   </g>
   <g id="text_129">
    <!-- 3 -->
    <g style="fill: #ffffff" transform="translate(502.931207 292.087186) scale(0.1 -0.1)">
     <use xlink:href="#Arial-BoldMT-33"/>
    </g>
   </g>
   <g id="text_130">
    <!-- 4 -->
    <g style="fill: #ffffff" transform="translate(518.749389 287.074658) scale(0.1 -0.1)">
     <use xlink:href="#Arial-BoldMT-34"/>
    </g>
   </g>
   <g id="text_131">
    <!-- 4 -->
    <g style="fill: #ffffff" transform="translate(75.840298 51.625095) scale(0.1 -0.1)">
     <use xlink:href="#Arial-BoldMT-34"/>
    </g>
   </g>
   <g id="text_132">
    <!-- 3 -->
    <g style="fill: #ffffff" transform="translate(91.65848 52.182042) scale(0.1 -0.1)">
     <use xlink:href="#Arial-BoldMT-33"/>
    </g>
   </g>
   <g id="text_133">
    <!-- 3 -->
    <g style="fill: #ffffff" transform="translate(107.476662 64.852598) scale(0.1 -0.1)">
     <use xlink:href="#Arial-BoldMT-33"/>
    </g>
   </g>
   <g id="text_134">
    <!-- US TB Incidence Rates by Race and Ethnicity, 1993-2021 -->
    <g style="fill: #262626" transform="translate(44.190937 21.759375) scale(0.2 -0.2)">
     <defs>
      <path id="ArialMT-55" d="M 3500 4581 
L 4106 4581 
L 4106 1934 
Q 4106 1244 3950 837 
Q 3794 431 3386 176 
Q 2978 -78 2316 -78 
Q 1672 -78 1262 144 
Q 853 366 678 786 
Q 503 1206 503 1934 
L 503 4581 
L 1109 4581 
L 1109 1938 
Q 1109 1341 1220 1058 
Q 1331 775 1601 622 
Q 1872 469 2263 469 
Q 2931 469 3215 772 
Q 3500 1075 3500 1938 
L 3500 4581 
z
" transform="scale(0.015625)"/>
      <path id="ArialMT-53" d="M 288 1472 
L 859 1522 
Q 900 1178 1048 958 
Q 1197 738 1509 602 
Q 1822 466 2213 466 
Q 2559 466 2825 569 
Q 3091 672 3220 851 
Q 3350 1031 3350 1244 
Q 3350 1459 3225 1620 
Q 3100 1781 2813 1891 
Q 2628 1963 1997 2114 
Q 1366 2266 1113 2400 
Q 784 2572 623 2826 
Q 463 3081 463 3397 
Q 463 3744 659 4045 
Q 856 4347 1234 4503 
Q 1613 4659 2075 4659 
Q 2584 4659 2973 4495 
Q 3363 4331 3572 4012 
Q 3781 3694 3797 3291 
L 3216 3247 
Q 3169 3681 2898 3903 
Q 2628 4125 2100 4125 
Q 1550 4125 1298 3923 
Q 1047 3722 1047 3438 
Q 1047 3191 1225 3031 
Q 1400 2872 2139 2705 
Q 2878 2538 3153 2413 
Q 3553 2228 3743 1945 
Q 3934 1663 3934 1294 
Q 3934 928 3725 604 
Q 3516 281 3123 101 
Q 2731 -78 2241 -78 
Q 1619 -78 1198 103 
Q 778 284 539 648 
Q 300 1013 288 1472 
z
" transform="scale(0.015625)"/>
      <path id="ArialMT-54" d="M 1659 0 
L 1659 4041 
L 150 4041 
L 150 4581 
L 3781 4581 
L 3781 4041 
L 2266 4041 
L 2266 0 
L 1659 0 
z
" transform="scale(0.015625)"/>
      <path id="ArialMT-42" d="M 469 0 
L 469 4581 
L 2188 4581 
Q 2713 4581 3030 4442 
Q 3347 4303 3526 4014 
Q 3706 3725 3706 3409 
Q 3706 3116 3547 2856 
Q 3388 2597 3066 2438 
Q 3481 2316 3704 2022 
Q 3928 1728 3928 1328 
Q 3928 1006 3792 729 
Q 3656 453 3456 303 
Q 3256 153 2954 76 
Q 2653 0 2216 0 
L 469 0 
z
M 1075 2656 
L 2066 2656 
Q 2469 2656 2644 2709 
Q 2875 2778 2992 2937 
Q 3109 3097 3109 3338 
Q 3109 3566 3000 3739 
Q 2891 3913 2687 3977 
Q 2484 4041 1991 4041 
L 1075 4041 
L 1075 2656 
z
M 1075 541 
L 2216 541 
Q 2509 541 2628 563 
Q 2838 600 2978 687 
Q 3119 775 3209 942 
Q 3300 1109 3300 1328 
Q 3300 1584 3169 1773 
Q 3038 1963 2805 2039 
Q 2572 2116 2134 2116 
L 1075 2116 
L 1075 541 
z
" transform="scale(0.015625)"/>
      <path id="ArialMT-73" d="M 197 991 
L 753 1078 
Q 800 744 1014 566 
Q 1228 388 1613 388 
Q 2000 388 2187 545 
Q 2375 703 2375 916 
Q 2375 1106 2209 1216 
Q 2094 1291 1634 1406 
Q 1016 1563 777 1677 
Q 538 1791 414 1992 
Q 291 2194 291 2438 
Q 291 2659 392 2848 
Q 494 3038 669 3163 
Q 800 3259 1026 3326 
Q 1253 3394 1513 3394 
Q 1903 3394 2198 3281 
Q 2494 3169 2634 2976 
Q 2775 2784 2828 2463 
L 2278 2388 
Q 2241 2644 2061 2787 
Q 1881 2931 1553 2931 
Q 1166 2931 1000 2803 
Q 834 2675 834 2503 
Q 834 2394 903 2306 
Q 972 2216 1119 2156 
Q 1203 2125 1616 2013 
Q 2213 1853 2448 1751 
Q 2684 1650 2818 1456 
Q 2953 1263 2953 975 
Q 2953 694 2789 445 
Q 2625 197 2315 61 
Q 2006 -75 1616 -75 
Q 969 -75 630 194 
Q 291 463 197 991 
z
" transform="scale(0.015625)"/>
      <path id="ArialMT-62" d="M 941 0 
L 419 0 
L 419 4581 
L 981 4581 
L 981 2947 
Q 1338 3394 1891 3394 
Q 2197 3394 2470 3270 
Q 2744 3147 2920 2923 
Q 3097 2700 3197 2384 
Q 3297 2069 3297 1709 
Q 3297 856 2875 390 
Q 2453 -75 1863 -75 
Q 1275 -75 941 416 
L 941 0 
z
M 934 1684 
Q 934 1088 1097 822 
Q 1363 388 1816 388 
Q 2184 388 2453 708 
Q 2722 1028 2722 1663 
Q 2722 2313 2464 2622 
Q 2206 2931 1841 2931 
Q 1472 2931 1203 2611 
Q 934 2291 934 1684 
z
" transform="scale(0.015625)"/>
      <path id="ArialMT-79" d="M 397 -1278 
L 334 -750 
Q 519 -800 656 -800 
Q 844 -800 956 -737 
Q 1069 -675 1141 -563 
Q 1194 -478 1313 -144 
Q 1328 -97 1363 -6 
L 103 3319 
L 709 3319 
L 1400 1397 
Q 1534 1031 1641 628 
Q 1738 1016 1872 1384 
L 2581 3319 
L 3144 3319 
L 1881 -56 
Q 1678 -603 1566 -809 
Q 1416 -1088 1222 -1217 
Q 1028 -1347 759 -1347 
Q 597 -1347 397 -1278 
z
" transform="scale(0.015625)"/>
      <path id="ArialMT-45" d="M 506 0 
L 506 4581 
L 3819 4581 
L 3819 4041 
L 1113 4041 
L 1113 2638 
L 3647 2638 
L 3647 2100 
L 1113 2100 
L 1113 541 
L 3925 541 
L 3925 0 
L 506 0 
z
" transform="scale(0.015625)"/>
      <path id="ArialMT-68" d="M 422 0 
L 422 4581 
L 984 4581 
L 984 2938 
Q 1378 3394 1978 3394 
Q 2347 3394 2619 3248 
Q 2891 3103 3008 2847 
Q 3125 2591 3125 2103 
L 3125 0 
L 2563 0 
L 2563 2103 
Q 2563 2525 2380 2717 
Q 2197 2909 1863 2909 
Q 1613 2909 1392 2779 
Q 1172 2650 1078 2428 
Q 984 2206 984 1816 
L 984 0 
L 422 0 
z
" transform="scale(0.015625)"/>
      <path id="ArialMT-2c" d="M 569 0 
L 569 641 
L 1209 641 
L 1209 0 
Q 1209 -353 1084 -570 
Q 959 -788 688 -906 
L 531 -666 
Q 709 -588 793 -436 
Q 878 -284 888 0 
L 569 0 
z
" transform="scale(0.015625)"/>
      <path id="ArialMT-33" d="M 269 1209 
L 831 1284 
Q 928 806 1161 595 
Q 1394 384 1728 384 
Q 2125 384 2398 659 
Q 2672 934 2672 1341 
Q 2672 1728 2419 1979 
Q 2166 2231 1775 2231 
Q 1616 2231 1378 2169 
L 1441 2663 
Q 1497 2656 1531 2656 
Q 1891 2656 2178 2843 
Q 2466 3031 2466 3422 
Q 2466 3731 2256 3934 
Q 2047 4138 1716 4138 
Q 1388 4138 1169 3931 
Q 950 3725 888 3313 
L 325 3413 
Q 428 3978 793 4289 
Q 1159 4600 1703 4600 
Q 2078 4600 2393 4439 
Q 2709 4278 2876 4000 
Q 3044 3722 3044 3409 
Q 3044 3113 2884 2869 
Q 2725 2625 2413 2481 
Q 2819 2388 3044 2092 
Q 3269 1797 3269 1353 
Q 3269 753 2831 336 
Q 2394 -81 1725 -81 
Q 1122 -81 723 278 
Q 325 638 269 1209 
z
" transform="scale(0.015625)"/>
      <path id="ArialMT-2d" d="M 203 1375 
L 203 1941 
L 1931 1941 
L 1931 1375 
L 203 1375 
z
" transform="scale(0.015625)"/>
     </defs>
     <use xlink:href="#ArialMT-55"/>
     <use xlink:href="#ArialMT-53" x="72.216797"/>
     <use xlink:href="#ArialMT-20" x="138.916016"/>
     <use xlink:href="#ArialMT-54" x="164.949219"/>
     <use xlink:href="#ArialMT-42" x="226.033203"/>
     <use xlink:href="#ArialMT-20" x="292.732422"/>
     <use xlink:href="#ArialMT-49" x="320.515625"/>
     <use xlink:href="#ArialMT-6e" x="348.298828"/>
     <use xlink:href="#ArialMT-63" x="403.914062"/>
     <use xlink:href="#ArialMT-69" x="453.914062"/>
     <use xlink:href="#ArialMT-64" x="476.130859"/>
     <use xlink:href="#ArialMT-65" x="531.746094"/>
     <use xlink:href="#ArialMT-6e" x="587.361328"/>
     <use xlink:href="#ArialMT-63" x="642.976562"/>
     <use xlink:href="#ArialMT-65" x="692.976562"/>
     <use xlink:href="#ArialMT-20" x="748.591797"/>
     <use xlink:href="#ArialMT-52" x="776.375"/>
     <use xlink:href="#ArialMT-61" x="848.591797"/>
     <use xlink:href="#ArialMT-74" x="904.207031"/>
     <use xlink:href="#ArialMT-65" x="931.990234"/>
     <use xlink:href="#ArialMT-73" x="987.605469"/>
     <use xlink:href="#ArialMT-20" x="1037.605469"/>
     <use xlink:href="#ArialMT-62" x="1065.388672"/>
     <use xlink:href="#ArialMT-79" x="1121.003906"/>
     <use xlink:href="#ArialMT-20" x="1171.003906"/>
     <use xlink:href="#ArialMT-52" x="1198.787109"/>
     <use xlink:href="#ArialMT-61" x="1271.003906"/>
     <use xlink:href="#ArialMT-63" x="1326.619141"/>
     <use xlink:href="#ArialMT-65" x="1376.619141"/>
     <use xlink:href="#ArialMT-20" x="1432.234375"/>
     <use xlink:href="#ArialMT-61" x="1460.017578"/>
     <use xlink:href="#ArialMT-6e" x="1515.632812"/>
     <use xlink:href="#ArialMT-64" x="1571.248047"/>
     <use xlink:href="#ArialMT-20" x="1626.863281"/>
     <use xlink:href="#ArialMT-45" x="1654.646484"/>
     <use xlink:href="#ArialMT-74" x="1721.345703"/>
     <use xlink:href="#ArialMT-68" x="1749.128906"/>
     <use xlink:href="#ArialMT-6e" x="1804.744141"/>
     <use xlink:href="#ArialMT-69" x="1860.359375"/>
     <use xlink:href="#ArialMT-63" x="1882.576172"/>
     <use xlink:href="#ArialMT-69" x="1932.576172"/>
     <use xlink:href="#ArialMT-74" x="1954.792969"/>
     <use xlink:href="#ArialMT-79" x="1982.576172"/>
     <use xlink:href="#ArialMT-2c" x="2025.201172"/>
     <use xlink:href="#ArialMT-20" x="2052.984375"/>
     <use xlink:href="#ArialMT-31" x="2080.767578"/>
     <use xlink:href="#ArialMT-39" x="2136.382812"/>
     <use xlink:href="#ArialMT-39" x="2191.998047"/>
     <use xlink:href="#ArialMT-33" x="2247.613281"/>
     <use xlink:href="#ArialMT-2d" x="2303.228516"/>
     <use xlink:href="#ArialMT-32" x="2336.529297"/>
     <use xlink:href="#ArialMT-30" x="2392.144531"/>
     <use xlink:href="#ArialMT-32" x="2447.759766"/>
     <use xlink:href="#ArialMT-31" x="2503.375"/>
    </g>
   </g>
   <g id="legend_1">
    <g id="patch_152">
     <path d="M 464.70875 43.917187 
L 484.70875 43.917187 
L 484.70875 36.917187 
L 464.70875 36.917187 
z
" style="fill: #1f77b4"/>
    </g>
    <g id="text_135">
     <!-- Asian -->
     <g style="fill: #262626" transform="translate(492.70875 43.917187) scale(0.1 -0.1)">
      <defs>
       <path id="ArialMT-41" d="M -9 0 
L 1750 4581 
L 2403 4581 
L 4278 0 
L 3588 0 
L 3053 1388 
L 1138 1388 
L 634 0 
L -9 0 
z
M 1313 1881 
L 2866 1881 
L 2388 3150 
Q 2169 3728 2063 4100 
Q 1975 3659 1816 3225 
L 1313 1881 
z
" transform="scale(0.015625)"/>
      </defs>
      <use xlink:href="#ArialMT-41"/>
      <use xlink:href="#ArialMT-73" x="66.699219"/>
      <use xlink:href="#ArialMT-69" x="116.699219"/>
      <use xlink:href="#ArialMT-61" x="138.916016"/>
      <use xlink:href="#ArialMT-6e" x="194.53125"/>
     </g>
    </g>
    <g id="patch_153">
     <path d="M 464.70875 58.0625 
L 484.70875 58.0625 
L 484.70875 51.0625 
L 464.70875 51.0625 
z
" style="fill: #ff7f0e"/>
    </g>
    <g id="text_136">
     <!-- Black -->
     <g style="fill: #262626" transform="translate(492.70875 58.0625) scale(0.1 -0.1)">
      <defs>
       <path id="ArialMT-6c" d="M 409 0 
L 409 4581 
L 972 4581 
L 972 0 
L 409 0 
z
" transform="scale(0.015625)"/>
       <path id="ArialMT-6b" d="M 425 0 
L 425 4581 
L 988 4581 
L 988 1969 
L 2319 3319 
L 3047 3319 
L 1778 2088 
L 3175 0 
L 2481 0 
L 1384 1697 
L 988 1316 
L 988 0 
L 425 0 
z
" transform="scale(0.015625)"/>
      </defs>
      <use xlink:href="#ArialMT-42"/>
      <use xlink:href="#ArialMT-6c" x="66.699219"/>
      <use xlink:href="#ArialMT-61" x="88.916016"/>
      <use xlink:href="#ArialMT-63" x="144.53125"/>
      <use xlink:href="#ArialMT-6b" x="194.53125"/>
     </g>
    </g>
    <g id="patch_154">
     <path d="M 464.70875 72.207812 
L 484.70875 72.207812 
L 484.70875 65.207812 
L 464.70875 65.207812 
z
" style="fill: #2ca02c"/>
    </g>
    <g id="text_137">
     <!-- Hispanic -->
     <g style="fill: #262626" transform="translate(492.70875 72.207812) scale(0.1 -0.1)">
      <defs>
       <path id="ArialMT-48" d="M 513 0 
L 513 4581 
L 1119 4581 
L 1119 2700 
L 3500 2700 
L 3500 4581 
L 4106 4581 
L 4106 0 
L 3500 0 
L 3500 2159 
L 1119 2159 
L 1119 0 
L 513 0 
z
" transform="scale(0.015625)"/>
       <path id="ArialMT-70" d="M 422 -1272 
L 422 3319 
L 934 3319 
L 934 2888 
Q 1116 3141 1344 3267 
Q 1572 3394 1897 3394 
Q 2322 3394 2647 3175 
Q 2972 2956 3137 2557 
Q 3303 2159 3303 1684 
Q 3303 1175 3120 767 
Q 2938 359 2589 142 
Q 2241 -75 1856 -75 
Q 1575 -75 1351 44 
Q 1128 163 984 344 
L 984 -1272 
L 422 -1272 
z
M 931 1641 
Q 931 1000 1190 694 
Q 1450 388 1819 388 
Q 2194 388 2461 705 
Q 2728 1022 2728 1688 
Q 2728 2322 2467 2637 
Q 2206 2953 1844 2953 
Q 1484 2953 1207 2617 
Q 931 2281 931 1641 
z
" transform="scale(0.015625)"/>
      </defs>
      <use xlink:href="#ArialMT-48"/>
      <use xlink:href="#ArialMT-69" x="72.216797"/>
      <use xlink:href="#ArialMT-73" x="94.433594"/>
      <use xlink:href="#ArialMT-70" x="144.433594"/>
      <use xlink:href="#ArialMT-61" x="200.048828"/>
      <use xlink:href="#ArialMT-6e" x="255.664062"/>
      <use xlink:href="#ArialMT-69" x="311.279297"/>
      <use xlink:href="#ArialMT-63" x="333.496094"/>
     </g>
    </g>
    <g id="patch_155">
     <path d="M 464.70875 86.353125 
L 484.70875 86.353125 
L 484.70875 79.353125 
L 464.70875 79.353125 
z
" style="fill: #d62728"/>
    </g>
    <g id="text_138">
     <!-- Indigenous -->
     <g style="fill: #262626" transform="translate(492.70875 86.353125) scale(0.1 -0.1)">
      <defs>
       <path id="ArialMT-67" d="M 319 -275 
L 866 -356 
Q 900 -609 1056 -725 
Q 1266 -881 1628 -881 
Q 2019 -881 2231 -725 
Q 2444 -569 2519 -288 
Q 2563 -116 2559 434 
Q 2191 0 1641 0 
Q 956 0 581 494 
Q 206 988 206 1678 
Q 206 2153 378 2554 
Q 550 2956 876 3175 
Q 1203 3394 1644 3394 
Q 2231 3394 2613 2919 
L 2613 3319 
L 3131 3319 
L 3131 450 
Q 3131 -325 2973 -648 
Q 2816 -972 2473 -1159 
Q 2131 -1347 1631 -1347 
Q 1038 -1347 672 -1080 
Q 306 -813 319 -275 
z
M 784 1719 
Q 784 1066 1043 766 
Q 1303 466 1694 466 
Q 2081 466 2343 764 
Q 2606 1063 2606 1700 
Q 2606 2309 2336 2618 
Q 2066 2928 1684 2928 
Q 1309 2928 1046 2623 
Q 784 2319 784 1719 
z
" transform="scale(0.015625)"/>
       <path id="ArialMT-6f" d="M 213 1659 
Q 213 2581 725 3025 
Q 1153 3394 1769 3394 
Q 2453 3394 2887 2945 
Q 3322 2497 3322 1706 
Q 3322 1066 3130 698 
Q 2938 331 2570 128 
Q 2203 -75 1769 -75 
Q 1072 -75 642 372 
Q 213 819 213 1659 
z
M 791 1659 
Q 791 1022 1069 705 
Q 1347 388 1769 388 
Q 2188 388 2466 706 
Q 2744 1025 2744 1678 
Q 2744 2294 2464 2611 
Q 2184 2928 1769 2928 
Q 1347 2928 1069 2612 
Q 791 2297 791 1659 
z
" transform="scale(0.015625)"/>
       <path id="ArialMT-75" d="M 2597 0 
L 2597 488 
Q 2209 -75 1544 -75 
Q 1250 -75 995 37 
Q 741 150 617 320 
Q 494 491 444 738 
Q 409 903 409 1263 
L 409 3319 
L 972 3319 
L 972 1478 
Q 972 1038 1006 884 
Q 1059 663 1231 536 
Q 1403 409 1656 409 
Q 1909 409 2131 539 
Q 2353 669 2445 892 
Q 2538 1116 2538 1541 
L 2538 3319 
L 3100 3319 
L 3100 0 
L 2597 0 
z
" transform="scale(0.015625)"/>
      </defs>
      <use xlink:href="#ArialMT-49"/>
      <use xlink:href="#ArialMT-6e" x="27.783203"/>
      <use xlink:href="#ArialMT-64" x="83.398438"/>
      <use xlink:href="#ArialMT-69" x="139.013672"/>
      <use xlink:href="#ArialMT-67" x="161.230469"/>
      <use xlink:href="#ArialMT-65" x="216.845703"/>
      <use xlink:href="#ArialMT-6e" x="272.460938"/>
      <use xlink:href="#ArialMT-6f" x="328.076172"/>
      <use xlink:href="#ArialMT-75" x="383.691406"/>
      <use xlink:href="#ArialMT-73" x="439.306641"/>
     </g>
    </g>
    <g id="patch_156">
     <path d="M 464.70875 100.615625 
L 484.70875 100.615625 
L 484.70875 93.615625 
L 464.70875 93.615625 
z
" style="fill: #9467bd"/>
    </g>
    <g id="text_139">
     <!-- White -->
     <g style="fill: #262626" transform="translate(492.70875 100.615625) scale(0.1 -0.1)">
      <defs>
       <path id="ArialMT-57" d="M 1294 0 
L 78 4581 
L 700 4581 
L 1397 1578 
Q 1509 1106 1591 641 
Q 1766 1375 1797 1488 
L 2669 4581 
L 3400 4581 
L 4056 2263 
Q 4303 1400 4413 641 
Q 4500 1075 4641 1638 
L 5359 4581 
L 5969 4581 
L 4713 0 
L 4128 0 
L 3163 3491 
Q 3041 3928 3019 4028 
Q 2947 3713 2884 3491 
L 1913 0 
L 1294 0 
z
" transform="scale(0.015625)"/>
      </defs>
      <use xlink:href="#ArialMT-57"/>
      <use xlink:href="#ArialMT-68" x="94.384766"/>
      <use xlink:href="#ArialMT-69" x="150"/>
      <use xlink:href="#ArialMT-74" x="172.216797"/>
      <use xlink:href="#ArialMT-65" x="200"/>
     </g>
    </g>
   </g>
  </g>
 </g>
 <defs>
  <clipPath id="p6507f590f8">
   <rect x="49.515313" y="27.759375" width="501.12" height="320.76"/>
  </clipPath>
 </defs>
</svg>
